SplineFontDB: 3.0
FontName: Samim
FullName: Samim
FamilyName: Samim
Weight: Regular
Copyright: Copyright (c) 2003 by Bitstream, Inc. All Rights Reserved.\nCopyright (c) 2006 by Tavmjong Bah. All Rights Reserved.\nDejaVu changes are in public domain\nCopyright (c) 2015 by Saber Rastikerdar. All Rights Reserved.
Version: 0.4
ItalicAngle: 0
UnderlinePosition: -100
UnderlineWidth: 100
Ascent: 1536
Descent: 512
LayerCount: 2
Layer: 0 1 "Back"  1
Layer: 1 1 "Fore"  0
XUID: [1021 502 1027637223 6329498]
UniqueID: 4046467
UseUniqueID: 1
FSType: 0
OS2Version: 1
OS2_WeightWidthSlopeOnly: 0
OS2_UseTypoMetrics: 1
CreationTime: 1431850356
ModificationTime: 1446500869
PfmFamily: 33
TTFWeight: 400
TTFWidth: 5
LineGap: 0
VLineGap: 0
Panose: 2 11 6 3 3 8 4 2 2 4
OS2TypoAscent: 2250
OS2TypoAOffset: 0
OS2TypoDescent: -750
OS2TypoDOffset: 0
OS2TypoLinegap: 0
OS2WinAscent: 2250
OS2WinAOffset: 0
OS2WinDescent: 750
OS2WinDOffset: 0
HheadAscent: 2250
HheadAOffset: 0
HheadDescent: -750
HheadDOffset: 0
OS2SubXSize: 1331
OS2SubYSize: 1433
OS2SubXOff: 0
OS2SubYOff: 286
OS2SupXSize: 1331
OS2SupYSize: 1433
OS2SupXOff: 0
OS2SupYOff: 983
OS2StrikeYSize: 102
OS2StrikeYPos: 530
OS2Vendor: 'PfEd'
OS2CodePages: 600001ff.dfff0000
Lookup: 1 0 0 "'case' Case-Sensitive Forms in Latin lookup 0"  {"'case' Case-Sensitive Forms in Latin lookup 0 subtable"  } ['case' ('DFLT' <'dflt' > 'latn' <'CAT ' 'ESP ' 'GAL ' 'dflt' > ) ]
Lookup: 6 1 0 "'ccmp' Glyph Composition/Decomposition lookup 2"  {"'ccmp' Glyph Composition/Decomposition lookup 2 subtable"  } ['ccmp' ('arab' <'KUR ' 'SND ' 'URD ' 'dflt' > 'hebr' <'dflt' > 'nko ' <'dflt' > ) ]
Lookup: 6 0 0 "'ccmp' Glyph Composition/Decomposition lookup 3"  {"'ccmp' Glyph Composition/Decomposition lookup 3 subtable"  } ['ccmp' ('cyrl' <'MKD ' 'SRB ' 'dflt' > 'grek' <'dflt' > 'latn' <'ISM ' 'KSM ' 'LSM ' 'MOL ' 'NSM ' 'ROM ' 'SKS ' 'SSM ' 'dflt' > ) ]

StartChar: exclam
Encoding: 33 33 1
Width: 771
VWidth: 1925
GlyphClass: 2
Flags: W
LayerCount: 2
Fore
SplineSet
290.46 238.76 m 1,0,-1
 481.28 238.76 l 1,1,-1
 481.28 0 l 1,2,-1
 290.46 0 l 1,3,-1
 290.46 238.76 l 1,0,-1
290.46 1403.42 m 1,4,-1
 481.28 1403.42 l 1,5,-1
 481.28 787.72 l 1,6,-1
 462.48 452.14 l 1,7,-1
 310.2 452.14 l 1,8,-1
 290.46 787.72 l 1,9,-1
 290.46 1403.42 l 1,4,-1
EndSplineSet
EndChar

StartChar: quotedbl
Encoding: 34 34 2
Width: 885
VWidth: 1925
GlyphClass: 2
Flags: W
LayerCount: 2
Fore
SplineSet
344.98 1403.42 m 1,0,-1
 344.98 881.72 l 1,1,-1
 185.18 881.72 l 1,2,-1
 185.18 1403.42 l 1,3,-1
 344.98 1403.42 l 1,0,-1
700.3 1403.42 m 1,4,-1
 700.3 881.72 l 1,5,-1
 540.5 881.72 l 1,6,-1
 540.5 1403.42 l 1,7,-1
 700.3 1403.42 l 1,4,-1
EndSplineSet
EndChar

StartChar: numbersign
Encoding: 35 35 3
Width: 1613
VWidth: 1925
GlyphClass: 2
Flags: W
LayerCount: 2
Fore
SplineSet
984.18 846.94 m 1,0,-1
 710.64 846.94 l 1,1,-1
 631.68 532.98 l 1,2,-1
 907.1 532.98 l 1,3,-1
 984.18 846.94 l 1,0,-1
843.18 1381.8 m 1,4,-1
 745.42 991.7 l 1,5,-1
 1019.9 991.7 l 1,6,-1
 1118.6 1381.8 l 1,7,-1
 1269 1381.8 l 1,8,-1
 1172.18 991.7 l 1,9,-1
 1465.46 991.7 l 1,10,-1
 1465.46 846.94 l 1,11,-1
 1135.52 846.94 l 1,12,-1
 1058.44 532.98 l 1,13,-1
 1357.36 532.98 l 1,14,-1
 1357.36 389.16 l 1,15,-1
 1021.78 389.16 l 1,16,-1
 924.02 0 l 1,17,-1
 773.62 0 l 1,18,-1
 870.44 389.16 l 1,19,-1
 595.02 389.16 l 1,20,-1
 498.2 0 l 1,21,-1
 346.86 0 l 1,22,-1
 444.62 389.16 l 1,23,-1
 148.52 389.16 l 1,24,-1
 148.52 532.98 l 1,25,-1
 479.4 532.98 l 1,26,-1
 558.36 846.94 l 1,27,-1
 255.68 846.94 l 1,28,-1
 255.68 991.7 l 1,29,-1
 595.02 991.7 l 1,30,-1
 690.9 1381.8 l 1,31,-1
 843.18 1381.8 l 1,4,-1
EndSplineSet
EndChar

StartChar: dollar
Encoding: 36 36 4
Width: 1224
VWidth: 1925
GlyphClass: 2
Flags: W
LayerCount: 2
Fore
SplineSet
650.48 -282.94 m 1,0,-1
 556.48 -282.94 l 1,1,-1
 555.54 0 l 1,2,3
 456.84 1.87988 456.84 1.87988 358.14 23.0303 c 128,-1,4
 259.44 44.1797 259.44 44.1797 159.8 86.4805 c 1,5,-1
 159.8 255.68 l 1,6,7
 255.68 195.52 255.68 195.52 353.91 164.97 c 128,-1,8
 452.14 134.42 452.14 134.42 556.48 133.48 c 1,9,-1
 556.48 562.12 l 1,10,11
 348.74 595.96 348.74 595.96 254.27 676.8 c 128,-1,12
 159.8 757.64 159.8 757.64 159.8 898.64 c 0,13,14
 159.8 1051.86 159.8 1051.86 262.26 1140.22 c 128,-1,15
 364.72 1228.58 364.72 1228.58 556.48 1241.74 c 1,16,-1
 556.48 1462.64 l 1,17,-1
 650.48 1462.64 l 1,18,-1
 650.48 1244.56 l 1,19,20
 737.9 1240.8 737.9 1240.8 819.68 1226.23 c 128,-1,21
 901.46 1211.66 901.46 1211.66 979.48 1186.28 c 1,22,-1
 979.48 1021.78 l 1,23,24
 901.46 1061.26 901.46 1061.26 819.21 1082.88 c 128,-1,25
 736.96 1104.5 736.96 1104.5 650.48 1108.26 c 1,26,-1
 650.48 706.88 l 1,27,28
 863.86 673.98 863.86 673.98 964.44 589.38 c 128,-1,29
 1065.02 504.78 1065.02 504.78 1065.02 358.14 c 0,30,31
 1065.02 199.28 1065.02 199.28 958.33 107.63 c 128,-1,32
 851.64 15.9805 851.64 15.9805 650.48 1.87988 c 1,33,-1
 650.48 -282.94 l 1,0,-1
556.48 723.8 m 1,34,-1
 556.48 1109.2 l 1,35,36
 447.44 1096.98 447.44 1096.98 390.1 1047.16 c 128,-1,37
 332.76 997.34 332.76 997.34 332.76 914.62 c 0,38,39
 332.76 833.78 332.76 833.78 385.87 788.66 c 128,-1,40
 438.98 743.54 438.98 743.54 556.48 723.8 c 1,34,-1
650.48 543.32 m 1,41,-1
 650.48 136.3 l 1,42,43
 769.86 152.28 769.86 152.28 830.49 203.98 c 128,-1,44
 891.12 255.68 891.12 255.68 891.12 340.28 c 0,45,46
 891.12 423 891.12 423 833.31 471.88 c 128,-1,47
 775.5 520.76 775.5 520.76 650.48 543.32 c 1,41,-1
EndSplineSet
EndChar

StartChar: percent
Encoding: 37 37 5
Width: 1829
VWidth: 1925
GlyphClass: 2
Flags: W
LayerCount: 2
Fore
SplineSet
1399.66 617.58 m 0,0,1
 1317.88 617.58 1317.88 617.58 1271.35 548.02 c 128,-1,2
 1224.82 478.46 1224.82 478.46 1224.82 354.38 c 0,3,4
 1224.82 232.18 1224.82 232.18 1271.35 162.15 c 128,-1,5
 1317.88 92.1201 1317.88 92.1201 1399.66 92.1201 c 0,6,7
 1479.56 92.1201 1479.56 92.1201 1526.09 162.15 c 128,-1,8
 1572.62 232.18 1572.62 232.18 1572.62 354.38 c 0,9,10
 1572.62 477.52 1572.62 477.52 1526.09 547.55 c 128,-1,11
 1479.56 617.58 1479.56 617.58 1399.66 617.58 c 0,0,1
1399.66 736.96 m 0,12,13
 1548.18 736.96 1548.18 736.96 1635.6 633.56 c 128,-1,14
 1723.02 530.16 1723.02 530.16 1723.02 354.38 c 256,15,16
 1723.02 178.6 1723.02 178.6 1635.13 75.6699 c 128,-1,17
 1547.24 -27.2598 1547.24 -27.2598 1399.66 -27.2598 c 0,18,19
 1249.26 -27.2598 1249.26 -27.2598 1161.84 75.6699 c 128,-1,20
 1074.42 178.6 1074.42 178.6 1074.42 354.38 c 0,21,22
 1074.42 531.1 1074.42 531.1 1162.31 634.03 c 128,-1,23
 1250.2 736.96 1250.2 736.96 1399.66 736.96 c 0,12,13
429.58 1309.42 m 256,24,25
 348.74 1309.42 348.74 1309.42 302.21 1239.39 c 128,-1,26
 255.68 1169.36 255.68 1169.36 255.68 1047.16 c 0,27,28
 255.68 923.08 255.68 923.08 301.74 853.52 c 128,-1,29
 347.8 783.96 347.8 783.96 429.58 783.96 c 256,30,31
 511.36 783.96 511.36 783.96 557.89 853.52 c 128,-1,32
 604.42 923.08 604.42 923.08 604.42 1047.16 c 0,33,34
 604.42 1168.42 604.42 1168.42 557.42 1238.92 c 128,-1,35
 510.42 1309.42 510.42 1309.42 429.58 1309.42 c 256,24,25
1278.4 1428.8 m 1,36,-1
 1428.8 1428.8 l 1,37,-1
 550.84 -27.2598 l 1,38,-1
 400.44 -27.2598 l 1,39,-1
 1278.4 1428.8 l 1,36,-1
429.58 1428.8 m 256,40,41
 578.1 1428.8 578.1 1428.8 666.46 1325.87 c 128,-1,42
 754.82 1222.94 754.82 1222.94 754.82 1047.16 c 0,43,44
 754.82 869.5 754.82 869.5 666.93 767.04 c 128,-1,45
 579.04 664.58 579.04 664.58 429.58 664.58 c 256,46,47
 280.12 664.58 280.12 664.58 193.17 767.51 c 128,-1,48
 106.22 870.44 106.22 870.44 106.22 1047.16 c 0,49,50
 106.22 1222 106.22 1222 193.64 1325.4 c 128,-1,51
 281.06 1428.8 281.06 1428.8 429.58 1428.8 c 256,40,41
EndSplineSet
EndChar

StartChar: ampersand
Encoding: 38 38 6
Width: 1501
VWidth: 1925
GlyphClass: 2
Flags: W
LayerCount: 2
Fore
SplineSet
468.12 754.82 m 1,0,1
 382.58 678.68 382.58 678.68 342.63 603.01 c 128,-1,2
 302.68 527.34 302.68 527.34 302.68 444.62 c 0,3,4
 302.68 307.38 302.68 307.38 402.32 216.2 c 128,-1,5
 501.96 125.02 501.96 125.02 652.36 125.02 c 0,6,7
 741.66 125.02 741.66 125.02 819.68 154.63 c 128,-1,8
 897.7 184.24 897.7 184.24 966.32 244.4 c 1,9,-1
 468.12 754.82 l 1,0,1
600.66 860.1 m 2,10,-1
 1078.18 371.3 l 1,11,12
 1133.64 454.96 1133.64 454.96 1164.66 550.37 c 128,-1,13
 1195.68 645.78 1195.68 645.78 1201.32 752.94 c 1,14,-1
 1376.16 752.94 l 1,15,16
 1364.88 628.86 1364.88 628.86 1316 507.6 c 128,-1,17
 1267.12 386.34 1267.12 386.34 1179.7 267.9 c 1,18,-1
 1441.96 0 l 1,19,-1
 1205.08 0 l 1,20,-1
 1070.66 138.18 l 1,21,22
 972.9 54.5195 972.9 54.5195 865.74 13.6299 c 128,-1,23
 758.58 -27.2598 758.58 -27.2598 635.44 -27.2598 c 0,24,25
 408.9 -27.2598 408.9 -27.2598 265.08 101.99 c 128,-1,26
 121.26 231.24 121.26 231.24 121.26 433.34 c 0,27,28
 121.26 553.66 121.26 553.66 184.24 659.41 c 128,-1,29
 247.22 765.16 247.22 765.16 373.18 858.22 c 1,30,31
 328.06 917.44 328.06 917.44 304.56 976.19 c 128,-1,32
 281.06 1034.94 281.06 1034.94 281.06 1091.34 c 0,33,34
 281.06 1243.62 281.06 1243.62 385.4 1336.21 c 128,-1,35
 489.74 1428.8 489.74 1428.8 662.7 1428.8 c 0,36,37
 740.72 1428.8 740.72 1428.8 818.27 1411.88 c 128,-1,38
 895.82 1394.96 895.82 1394.96 975.72 1361.12 c 1,39,-1
 975.72 1190.04 l 1,40,41
 893.94 1234.22 893.94 1234.22 819.68 1257.25 c 128,-1,42
 745.42 1280.28 745.42 1280.28 681.5 1280.28 c 0,43,44
 582.8 1280.28 582.8 1280.28 521.23 1228.11 c 128,-1,45
 459.66 1175.94 459.66 1175.94 459.66 1093.22 c 0,46,47
 459.66 1045.28 459.66 1045.28 487.39 996.87 c 128,-1,48
 515.12 948.46 515.12 948.46 600.66 860.1 c 2,10,-1
EndSplineSet
EndChar

StartChar: quotesingle
Encoding: 39 39 7
Width: 529
VWidth: 1925
GlyphClass: 2
Flags: W
LayerCount: 2
Fore
SplineSet
344.98 1403.42 m 1,0,-1
 344.98 881.72 l 1,1,-1
 185.18 881.72 l 1,2,-1
 185.18 1403.42 l 1,3,-1
 344.98 1403.42 l 1,0,-1
EndSplineSet
EndChar

StartChar: parenleft
Encoding: 40 40 8
Width: 751
VWidth: 1925
GlyphClass: 2
Flags: W
GlyphCompositionVertical: 3  uni239D%0,0,44,2703 uni239C%1,44,44,2731 uni239B%0,44,0,2740
LayerCount: 2
Fore
SplineSet
596.9 1460.76 m 1,0,1
 470.94 1244.56 470.94 1244.56 409.84 1033.06 c 128,-1,2
 348.74 821.56 348.74 821.56 348.74 604.42 c 256,3,4
 348.74 387.28 348.74 387.28 410.31 174.37 c 128,-1,5
 471.88 -38.54 471.88 -38.54 596.9 -253.8 c 1,6,-1
 446.5 -253.8 l 1,7,8
 305.5 -32.9004 305.5 -32.9004 235.47 180.48 c 128,-1,9
 165.44 393.86 165.44 393.86 165.44 604.42 c 0,10,11
 165.44 814.04 165.44 814.04 235 1026.48 c 128,-1,12
 304.56 1238.92 304.56 1238.92 446.5 1460.76 c 1,13,-1
 596.9 1460.76 l 1,0,1
EndSplineSet
EndChar

StartChar: parenright
Encoding: 41 41 9
Width: 751
VWidth: 1925
GlyphClass: 2
Flags: W
GlyphCompositionVertical: 3  uni23A0%0,0,44,2703 uni239F%1,44,44,2731 uni239E%0,44,0,2740
LayerCount: 2
Fore
SplineSet
154.16 1460.76 m 1,0,-1
 304.56 1460.76 l 1,1,2
 445.56 1238.92 445.56 1238.92 515.59 1026.48 c 128,-1,3
 585.62 814.04 585.62 814.04 585.62 604.42 c 0,4,5
 585.62 393.86 585.62 393.86 515.59 180.48 c 128,-1,6
 445.56 -32.9004 445.56 -32.9004 304.56 -253.8 c 1,7,-1
 154.16 -253.8 l 1,8,9
 279.18 -38.54 279.18 -38.54 340.75 174.37 c 128,-1,10
 402.32 387.28 402.32 387.28 402.32 604.42 c 256,11,12
 402.32 821.56 402.32 821.56 340.75 1033.06 c 128,-1,13
 279.18 1244.56 279.18 1244.56 154.16 1460.76 c 1,0,-1
EndSplineSet
EndChar

StartChar: asterisk
Encoding: 42 42 10
Width: 962
VWidth: 1925
GlyphClass: 2
Flags: W
LayerCount: 2
Fore
SplineSet
905.22 1172.18 m 1,0,-1
 567.76 989.82 l 1,1,-1
 905.22 806.52 l 1,2,-1
 850.7 714.4 l 1,3,-1
 534.86 905.22 l 1,4,-1
 534.86 550.84 l 1,5,-1
 427.7 550.84 l 1,6,-1
 427.7 905.22 l 1,7,-1
 111.86 714.4 l 1,8,-1
 57.3398 806.52 l 1,9,-1
 394.8 989.82 l 1,10,-1
 57.3398 1172.18 l 1,11,-1
 111.86 1265.24 l 1,12,-1
 427.7 1074.42 l 1,13,-1
 427.7 1428.8 l 1,14,-1
 534.86 1428.8 l 1,15,-1
 534.86 1074.42 l 1,16,-1
 850.7 1265.24 l 1,17,-1
 905.22 1172.18 l 1,0,-1
EndSplineSet
EndChar

StartChar: plus
Encoding: 43 43 11
Width: 1613
VWidth: 1925
GlyphClass: 2
Flags: W
LayerCount: 2
Fore
SplineSet
885.48 1206.96 m 1,0,-1
 885.48 683.38 l 1,1,-1
 1409.06 683.38 l 1,2,-1
 1409.06 523.58 l 1,3,-1
 885.48 523.58 l 1,4,-1
 885.48 0 l 1,5,-1
 727.56 0 l 1,6,-1
 727.56 523.58 l 1,7,-1
 203.98 523.58 l 1,8,-1
 203.98 683.38 l 1,9,-1
 727.56 683.38 l 1,10,-1
 727.56 1206.96 l 1,11,-1
 885.48 1206.96 l 1,0,-1
EndSplineSet
EndChar

StartChar: comma
Encoding: 44 44 12
Width: 611
VWidth: 1925
GlyphClass: 2
Flags: W
LayerCount: 2
Fore
SplineSet
225.6 238.76 m 1,0,-1
 423.94 238.76 l 1,1,-1
 423.94 77.0801 l 1,2,-1
 269.78 -223.72 l 1,3,-1
 148.52 -223.72 l 1,4,-1
 225.6 77.0801 l 1,5,-1
 225.6 238.76 l 1,0,-1
EndSplineSet
EndChar

StartChar: hyphen
Encoding: 45 45 13
Width: 694
VWidth: 1925
GlyphClass: 2
Flags: W
LayerCount: 2
Fore
SplineSet
94 604.42 m 1,0,-1
 600.66 604.42 l 1,1,-1
 600.66 450.26 l 1,2,-1
 94 450.26 l 1,3,-1
 94 604.42 l 1,0,-1
EndSplineSet
EndChar

StartChar: period
Encoding: 46 46 14
Width: 496
VWidth: 1925
GlyphClass: 2
Flags: W
LayerCount: 2
Fore
SplineSet
148.99 238.76 m 1,0,-1
 347.33 238.76 l 1,1,-1
 347.33 0 l 1,2,-1
 148.99 0 l 1,3,-1
 148.99 238.76 l 1,0,-1
EndSplineSet
EndChar

StartChar: slash
Encoding: 47 47 15
Width: 648
VWidth: 1925
GlyphClass: 2
Flags: W
LayerCount: 2
Fore
SplineSet
488.8 1403.42 m 1,0,-1
 648.6 1403.42 l 1,1,-1
 159.8 -178.6 l 1,2,-1
 0 -178.6 l 1,3,-1
 488.8 1403.42 l 1,0,-1
EndSplineSet
EndChar

StartChar: colon
Encoding: 58 58 16
Width: 648
VWidth: 1925
GlyphClass: 2
Flags: W
LayerCount: 2
Fore
SplineSet
225.6 238.76 m 1,0,-1
 423.94 238.76 l 1,1,-1
 423.94 0 l 1,2,-1
 225.6 0 l 1,3,-1
 225.6 238.76 l 1,0,-1
225.6 995.46 m 1,4,-1
 423.94 995.46 l 1,5,-1
 423.94 756.7 l 1,6,-1
 225.6 756.7 l 1,7,-1
 225.6 995.46 l 1,4,-1
EndSplineSet
EndChar

StartChar: semicolon
Encoding: 59 59 17
Width: 648
VWidth: 1925
GlyphClass: 2
Flags: W
LayerCount: 2
Fore
SplineSet
225.6 995.46 m 1,0,-1
 423.94 995.46 l 1,1,-1
 423.94 756.7 l 1,2,-1
 225.6 756.7 l 1,3,-1
 225.6 995.46 l 1,0,-1
225.6 238.76 m 1,4,-1
 423.94 238.76 l 1,5,-1
 423.94 77.0801 l 1,6,-1
 269.78 -223.72 l 1,7,-1
 148.52 -223.72 l 1,8,-1
 225.6 77.0801 l 1,9,-1
 225.6 238.76 l 1,4,-1
EndSplineSet
EndChar

StartChar: less
Encoding: 60 60 18
Width: 1613
VWidth: 1925
GlyphClass: 2
Flags: W
LayerCount: 2
Fore
SplineSet
1409.06 947.52 m 1,0,-1
 438.98 602.54 l 1,1,-1
 1409.06 259.44 l 1,2,-1
 1409.06 88.3604 l 1,3,-1
 203.98 525.46 l 1,4,-1
 203.98 681.5 l 1,5,-1
 1409.06 1118.6 l 1,6,-1
 1409.06 947.52 l 1,0,-1
EndSplineSet
EndChar

StartChar: equal
Encoding: 61 61 19
Width: 1613
VWidth: 1925
GlyphClass: 2
Flags: W
GlyphCompositionHorizontal: 2  equal%0,0,44,1433 equal%1,44,0,1433
LayerCount: 2
Fore
SplineSet
203.98 874.2 m 1,0,-1
 1409.06 874.2 l 1,1,-1
 1409.06 716.28 l 1,2,-1
 203.98 716.28 l 1,3,-1
 203.98 874.2 l 1,0,-1
203.98 490.68 m 1,4,-1
 1409.06 490.68 l 1,5,-1
 1409.06 330.88 l 1,6,-1
 203.98 330.88 l 1,7,-1
 203.98 490.68 l 1,4,-1
EndSplineSet
EndChar

StartChar: greater
Encoding: 62 62 20
Width: 1613
VWidth: 1925
GlyphClass: 2
Flags: W
LayerCount: 2
Fore
SplineSet
203.98 947.52 m 1,0,-1
 203.98 1118.6 l 1,1,-1
 1409.06 681.5 l 1,2,-1
 1409.06 525.46 l 1,3,-1
 203.98 88.3604 l 1,4,-1
 203.98 259.44 l 1,5,-1
 1172.18 602.54 l 1,6,-1
 203.98 947.52 l 1,0,-1
EndSplineSet
EndChar

StartChar: question
Encoding: 63 63 21
Width: 1021
VWidth: 1925
GlyphClass: 2
Flags: W
LayerCount: 2
Fore
SplineSet
367.54 238.76 m 1,0,-1
 558.36 238.76 l 1,1,-1
 558.36 0 l 1,2,-1
 367.54 0 l 1,3,-1
 367.54 238.76 l 1,0,-1
552.72 376.94 m 1,4,-1
 373.18 376.94 l 1,5,-1
 373.18 521.7 l 2,6,7
 373.18 616.64 373.18 616.64 399.5 677.74 c 128,-1,8
 425.82 738.84 425.82 738.84 510.42 819.68 c 1,9,-1
 595.02 903.34 l 1,10,11
 648.6 953.16 648.6 953.16 672.57 997.34 c 128,-1,12
 696.54 1041.52 696.54 1041.52 696.54 1087.58 c 0,13,14
 696.54 1171.24 696.54 1171.24 634.97 1222.94 c 128,-1,15
 573.4 1274.64 573.4 1274.64 471.88 1274.64 c 0,16,17
 397.62 1274.64 397.62 1274.64 313.49 1241.74 c 128,-1,18
 229.36 1208.84 229.36 1208.84 138.18 1145.86 c 1,19,-1
 138.18 1322.58 l 1,20,21
 226.54 1376.16 226.54 1376.16 317.25 1402.48 c 128,-1,22
 407.96 1428.8 407.96 1428.8 504.78 1428.8 c 0,23,24
 677.74 1428.8 677.74 1428.8 782.55 1337.62 c 128,-1,25
 887.36 1246.44 887.36 1246.44 887.36 1096.98 c 0,26,27
 887.36 1025.54 887.36 1025.54 853.52 961.15 c 128,-1,28
 819.68 896.76 819.68 896.76 735.08 815.92 c 1,29,-1
 652.36 735.08 l 2,30,31
 608.18 690.9 608.18 690.9 589.85 665.99 c 128,-1,32
 571.52 641.08 571.52 641.08 564 617.58 c 0,33,34
 558.36 597.84 558.36 597.84 555.54 569.64 c 128,-1,35
 552.72 541.44 552.72 541.44 552.72 492.56 c 2,36,-1
 552.72 376.94 l 1,4,-1
EndSplineSet
EndChar

StartChar: at
Encoding: 64 64 22
Width: 1925
VWidth: 1925
GlyphClass: 2
Flags: W
LayerCount: 2
Fore
SplineSet
716.28 504.78 m 0,0,1
 716.28 370.36 716.28 370.36 783.02 293.75 c 128,-1,2
 849.76 217.14 849.76 217.14 966.32 217.14 c 0,3,4
 1081.94 217.14 1081.94 217.14 1148.21 294.22 c 128,-1,5
 1214.48 371.3 1214.48 371.3 1214.48 504.78 c 0,6,7
 1214.48 636.38 1214.48 636.38 1146.8 713.93 c 128,-1,8
 1079.12 791.48 1079.12 791.48 964.44 791.48 c 0,9,10
 850.7 791.48 850.7 791.48 783.49 714.4 c 128,-1,11
 716.28 637.32 716.28 637.32 716.28 504.78 c 0,0,1
1228.58 223.72 m 1,12,13
 1172.18 151.34 1172.18 151.34 1099.33 117.03 c 128,-1,14
 1026.48 82.7197 1026.48 82.7197 929.66 82.7197 c 0,15,16
 767.98 82.7197 767.98 82.7197 666.93 199.75 c 128,-1,17
 565.88 316.78 565.88 316.78 565.88 504.78 c 256,18,19
 565.88 692.78 565.88 692.78 667.4 810.28 c 128,-1,20
 768.92 927.78 768.92 927.78 929.66 927.78 c 0,21,22
 1026.48 927.78 1026.48 927.78 1099.8 892.53 c 128,-1,23
 1173.12 857.28 1173.12 857.28 1228.58 785.84 c 1,24,-1
 1228.58 908.98 l 1,25,-1
 1363 908.98 l 1,26,-1
 1363 217.14 l 1,27,28
 1500.24 237.82 1500.24 237.82 1577.79 342.63 c 128,-1,29
 1655.34 447.44 1655.34 447.44 1655.34 613.82 c 0,30,31
 1655.34 714.4 1655.34 714.4 1625.73 802.76 c 128,-1,32
 1596.12 891.12 1596.12 891.12 1535.96 966.32 c 0,33,34
 1438.2 1089.46 1438.2 1089.46 1297.67 1154.79 c 128,-1,35
 1157.14 1220.12 1157.14 1220.12 991.7 1220.12 c 0,36,37
 876.08 1220.12 876.08 1220.12 769.86 1189.57 c 128,-1,38
 663.64 1159.02 663.64 1159.02 573.4 1098.86 c 1,39,40
 425.82 1002.98 425.82 1002.98 342.63 847.41 c 128,-1,41
 259.44 691.84 259.44 691.84 259.44 510.42 c 0,42,43
 259.44 360.96 259.44 360.96 313.49 230.3 c 128,-1,44
 367.54 99.6396 367.54 99.6396 470 0 c 1,45,46
 568.7 -97.7598 568.7 -97.7598 698.42 -148.99 c 128,-1,47
 828.14 -200.22 828.14 -200.22 975.72 -200.22 c 0,48,49
 1096.98 -200.22 1096.98 -200.22 1214.01 -159.33 c 128,-1,50
 1331.04 -118.44 1331.04 -118.44 1428.8 -42.2998 c 1,51,-1
 1513.4 -146.64 l 1,52,53
 1395.9 -237.82 1395.9 -237.82 1257.25 -286.23 c 128,-1,54
 1118.6 -334.64 1118.6 -334.64 975.72 -334.64 c 0,55,56
 801.82 -334.64 801.82 -334.64 647.66 -273.07 c 128,-1,57
 493.5 -211.5 493.5 -211.5 373.18 -94 c 256,58,59
 252.86 23.5 252.86 23.5 189.88 178.13 c 128,-1,60
 126.9 332.76 126.9 332.76 126.9 510.42 c 0,61,62
 126.9 681.5 126.9 681.5 190.82 836.6 c 128,-1,63
 254.74 991.7 254.74 991.7 373.18 1109.2 c 0,64,65
 494.44 1228.58 494.44 1228.58 653.3 1292.03 c 128,-1,66
 812.16 1355.48 812.16 1355.48 989.82 1355.48 c 0,67,68
 1189.1 1355.48 1189.1 1355.48 1359.71 1273.7 c 128,-1,69
 1530.32 1191.92 1530.32 1191.92 1645.94 1041.52 c 0,70,71
 1716.44 949.4 1716.44 949.4 1753.57 841.3 c 128,-1,72
 1790.7 733.2 1790.7 733.2 1790.7 617.58 c 0,73,74
 1790.7 370.36 1790.7 370.36 1641.24 227.48 c 128,-1,75
 1491.78 84.5996 1491.78 84.5996 1228.58 78.96 c 1,76,-1
 1228.58 223.72 l 1,12,13
EndSplineSet
EndChar

StartChar: bracketleft
Encoding: 91 91 23
Width: 751
VWidth: 1925
GlyphClass: 2
Flags: W
GlyphCompositionVertical: 3  uni23A3%0,0,44,2703 uni23A2%1,44,44,2731 uni23A1%0,44,0,2699
LayerCount: 2
Fore
SplineSet
165.44 1462.64 m 1,0,-1
 564 1462.64 l 1,1,-1
 564 1328.22 l 1,2,-1
 338.4 1328.22 l 1,3,-1
 338.4 -119.38 l 1,4,-1
 564 -119.38 l 1,5,-1
 564 -253.8 l 1,6,-1
 165.44 -253.8 l 1,7,-1
 165.44 1462.64 l 1,0,-1
EndSplineSet
EndChar

StartChar: backslash
Encoding: 92 92 24
Width: 648
VWidth: 1925
GlyphClass: 2
Flags: W
LayerCount: 2
Fore
SplineSet
159.8 1403.42 m 1,0,-1
 648.6 -178.6 l 1,1,-1
 488.8 -178.6 l 1,2,-1
 0 1403.42 l 1,3,-1
 159.8 1403.42 l 1,0,-1
EndSplineSet
EndChar

StartChar: bracketright
Encoding: 93 93 25
Width: 751
VWidth: 1925
GlyphClass: 2
Flags: W
GlyphCompositionVertical: 3  uni23A6%0,0,44,2687 uni23A5%1,44,44,2713 uni23A4%0,44,0,2699
LayerCount: 2
Fore
SplineSet
585.62 1462.64 m 1,0,-1
 585.62 -253.8 l 1,1,-1
 187.06 -253.8 l 1,2,-1
 187.06 -119.38 l 1,3,-1
 411.72 -119.38 l 1,4,-1
 411.72 1328.22 l 1,5,-1
 187.06 1328.22 l 1,6,-1
 187.06 1462.64 l 1,7,-1
 585.62 1462.64 l 1,0,-1
EndSplineSet
EndChar

StartChar: asciicircum
Encoding: 94 94 26
Width: 1613
VWidth: 1925
GlyphClass: 2
Flags: W
LayerCount: 2
Fore
SplineSet
898.64 1403.42 m 1,0,-1
 1409.06 879.84 l 1,1,-1
 1220.12 879.84 l 1,2,-1
 806.52 1251.14 l 1,3,-1
 392.92 879.84 l 1,4,-1
 203.98 879.84 l 1,5,-1
 714.4 1403.42 l 1,6,-1
 898.64 1403.42 l 1,0,-1
EndSplineSet
EndChar

StartChar: underscore
Encoding: 95 95 27
Width: 962
VWidth: 1925
GlyphClass: 2
Flags: W
GlyphCompositionHorizontal: 2  underscore%0,0,44,1188 underscore%1,44,0,1188
LayerCount: 2
Fore
SplineSet
981.36 -319.6 m 1,0,-1
 981.36 -454.02 l 1,1,-1
 -18.7998 -454.02 l 1,2,-1
 -18.7998 -319.6 l 1,3,-1
 981.36 -319.6 l 1,0,-1
EndSplineSet
EndChar

StartChar: grave
Encoding: 96 96 28
Width: 962
VWidth: 1925
GlyphClass: 2
Flags: W
LayerCount: 2
Fore
SplineSet
344.98 1539.72 m 1,0,-1
 610.06 1188.16 l 1,1,-1
 466.24 1188.16 l 1,2,-1
 159.8 1539.72 l 1,3,-1
 344.98 1539.72 l 1,0,-1
EndSplineSet
EndChar

StartChar: braceleft
Encoding: 123 123 29
Width: 1224
VWidth: 1925
GlyphClass: 2
Flags: W
GlyphCompositionVertical: 5  uni23A9%0,0,44,2700 uni23AA%1,44,44,2742 uni23A8%0,44,44,2727 uni23AA%1,44,44,2742 uni23A7%0,44,0,2719
LayerCount: 2
Fore
SplineSet
984.18 -178.6 m 1,0,-1
 984.18 -313.96 l 1,1,-1
 925.9 -313.96 l 2,2,3
 691.84 -313.96 691.84 -313.96 612.41 -244.4 c 128,-1,4
 532.98 -174.84 532.98 -174.84 532.98 32.9004 c 2,5,-1
 532.98 257.56 l 2,6,7
 532.98 399.5 532.98 399.5 482.22 454.02 c 128,-1,8
 431.46 508.54 431.46 508.54 297.98 508.54 c 2,9,-1
 240.64 508.54 l 1,10,-1
 240.64 642.96 l 1,11,-1
 297.98 642.96 l 2,12,13
 432.4 642.96 432.4 642.96 482.69 697.01 c 128,-1,14
 532.98 751.06 532.98 751.06 532.98 891.12 c 2,15,-1
 532.98 1116.72 l 2,16,17
 532.98 1324.46 532.98 1324.46 612.41 1393.55 c 128,-1,18
 691.84 1462.64 691.84 1462.64 925.9 1462.64 c 2,19,-1
 984.18 1462.64 l 1,20,-1
 984.18 1328.22 l 1,21,-1
 920.26 1328.22 l 2,22,23
 787.72 1328.22 787.72 1328.22 747.3 1286.86 c 128,-1,24
 706.88 1245.5 706.88 1245.5 706.88 1112.96 c 2,25,-1
 706.88 879.84 l 2,26,27
 706.88 732.26 706.88 732.26 664.11 665.52 c 128,-1,28
 621.34 598.78 621.34 598.78 517.94 575.28 c 1,29,30
 622.28 549.9 622.28 549.9 664.58 483.16 c 128,-1,31
 706.88 416.42 706.88 416.42 706.88 269.78 c 2,32,-1
 706.88 36.6602 l 2,33,34
 706.88 -95.8799 706.88 -95.8799 747.3 -137.24 c 128,-1,35
 787.72 -178.6 787.72 -178.6 920.26 -178.6 c 2,36,-1
 984.18 -178.6 l 1,0,-1
EndSplineSet
EndChar

StartChar: bar
Encoding: 124 124 30
Width: 648
VWidth: 1925
GlyphClass: 2
Flags: W
GlyphCompositionVertical: 2  bar%0,0,44,2287 bar%1,44,0,2287
LayerCount: 2
Fore
SplineSet
404.2 1471.1 m 1,0,-1
 404.2 -454.02 l 1,1,-1
 244.4 -454.02 l 1,2,-1
 244.4 1471.1 l 1,3,-1
 404.2 1471.1 l 1,0,-1
EndSplineSet
EndChar

StartChar: braceright
Encoding: 125 125 31
Width: 1224
VWidth: 1925
GlyphClass: 2
Flags: W
GlyphCompositionVertical: 5  uni23AD%0,0,44,2700 uni23AA%1,44,44,2742 uni23AC%0,44,44,2727 uni23AA%1,44,44,2742 uni23AB%0,44,0,2719
LayerCount: 2
Fore
SplineSet
240.64 -178.6 m 1,0,-1
 306.44 -178.6 l 2,1,2
 438.04 -178.6 438.04 -178.6 477.99 -138.18 c 128,-1,3
 517.94 -97.7598 517.94 -97.7598 517.94 36.6602 c 2,4,-1
 517.94 269.78 l 2,5,6
 517.94 416.42 517.94 416.42 560.24 483.16 c 128,-1,7
 602.54 549.9 602.54 549.9 706.88 575.28 c 1,8,9
 602.54 598.78 602.54 598.78 560.24 665.52 c 128,-1,10
 517.94 732.26 517.94 732.26 517.94 879.84 c 2,11,-1
 517.94 1112.96 l 2,12,13
 517.94 1246.44 517.94 1246.44 477.99 1287.33 c 128,-1,14
 438.04 1328.22 438.04 1328.22 306.44 1328.22 c 2,15,-1
 240.64 1328.22 l 1,16,-1
 240.64 1462.64 l 1,17,-1
 299.86 1462.64 l 2,18,19
 533.92 1462.64 533.92 1462.64 612.41 1393.55 c 128,-1,20
 690.9 1324.46 690.9 1324.46 690.9 1116.72 c 2,21,-1
 690.9 891.12 l 2,22,23
 690.9 751.06 690.9 751.06 741.66 697.01 c 128,-1,24
 792.42 642.96 792.42 642.96 925.9 642.96 c 2,25,-1
 984.18 642.96 l 1,26,-1
 984.18 508.54 l 1,27,-1
 925.9 508.54 l 2,28,29
 792.42 508.54 792.42 508.54 741.66 454.02 c 128,-1,30
 690.9 399.5 690.9 399.5 690.9 257.56 c 2,31,-1
 690.9 32.9004 l 2,32,33
 690.9 -174.84 690.9 -174.84 612.41 -244.4 c 128,-1,34
 533.92 -313.96 533.92 -313.96 299.86 -313.96 c 2,35,-1
 240.64 -313.96 l 1,36,-1
 240.64 -178.6 l 1,0,-1
EndSplineSet
EndChar

StartChar: asciitilde
Encoding: 126 126 32
Width: 1613
VWidth: 1925
GlyphClass: 2
Flags: W
LayerCount: 2
Fore
SplineSet
1409.06 767.98 m 1,0,-1
 1409.06 600.66 l 1,1,2
 1310.36 526.4 1310.36 526.4 1226.23 494.44 c 128,-1,3
 1142.1 462.48 1142.1 462.48 1050.92 462.48 c 0,4,5
 947.52 462.48 947.52 462.48 810.28 517.94 c 0,6,7
 799.94 521.7 799.94 521.7 795.24 523.58 c 0,8,9
 788.66 526.4 788.66 526.4 774.56 531.1 c 0,10,11
 628.86 589.38 628.86 589.38 540.5 589.38 c 0,12,13
 457.78 589.38 457.78 589.38 376.94 553.19 c 128,-1,14
 296.1 517 296.1 517 203.98 438.98 c 1,15,-1
 203.98 606.3 l 1,16,17
 302.68 680.56 302.68 680.56 386.81 712.99 c 128,-1,18
 470.94 745.42 470.94 745.42 562.12 745.42 c 0,19,20
 665.52 745.42 665.52 745.42 803.7 689.02 c 0,21,22
 813.1 685.26 813.1 685.26 817.8 683.38 c 0,23,24
 825.32 680.56 825.32 680.56 838.48 675.86 c 0,25,26
 984.18 617.58 984.18 617.58 1072.54 617.58 c 0,27,28
 1153.38 617.58 1153.38 617.58 1232.81 653.3 c 128,-1,29
 1312.24 689.02 1312.24 689.02 1409.06 767.98 c 1,0,-1
EndSplineSet
EndChar

StartChar: afii57388
Encoding: 1548 1548 34
Width: 664
VWidth: 2054
GlyphClass: 2
Flags: W
LayerCount: 2
Fore
SplineSet
355.818 0 m 4,0,1
 243.533 0 243.533 0 220 110 c 4,2,3
 209.1 160.95 209.1 160.95 228.857 247 c 4,4,5
 265.432 406.292 265.432 406.292 435.857 568 c 5,6,-1
 542.392 568 l 5,7,8
 364.725 423 364.725 423 353.857 252 c 5,9,10
 506.726 254.051 506.726 254.051 497.818 99.0693 c 4,11,12
 492.191 0 492.191 0 355.818 0 c 4,0,1
EndSplineSet
EndChar

StartChar: uni0615
Encoding: 1557 1557 35
Width: 0
VWidth: 2186
GlyphClass: 4
Flags: W
AnchorPoint: "Anchor-10" 547.84 1279.5 mark 0
AnchorPoint: "Anchor-9" 547.84 1279.5 mark 0
AnchorPoint: "Anchor-1" 547.84 1975 basemark 0
AnchorPoint: "Anchor-1" 547.84 1279.5 mark 0
LayerCount: 2
Fore
SplineSet
466.096 1456.96 m 1,0,-1
 552.12 1456.96 l 2,1,2
 639.138 1456.96 639.138 1456.96 665.862 1472.75 c 0,3,4
 697.288 1492.32 697.288 1492.32 713.059 1508.3 c 128,-1,5
 728.83 1524.27 728.83 1524.27 728.83 1541.65 c 0,6,7
 728.83 1583.09 728.83 1583.09 689.03 1604.94 c 1,8,9
 681.399 1607.6 681.399 1607.6 672.751 1605.46 c 128,-1,10
 664.102 1603.31 664.102 1603.31 640.309 1592.64 c 128,-1,11
 616.515 1581.97 616.515 1581.97 601.865 1576.19 c 0,12,13
 543.049 1552.44 543.049 1552.44 483.147 1478.12 c 2,14,-1
 466.096 1456.96 l 1,0,-1
576.73 1374.89 m 2,15,-1
 282.64 1374.89 l 1,16,-1
 282.64 1456.96 l 1,17,-1
 369.31 1456.96 l 1,18,-1
 369.31 1883.89 l 1,19,-1
 452.45 1883.89 l 1,20,-1
 452.45 1497.67 l 1,21,-1
 477.109 1547.67 l 2,22,23
 513.381 1621.22 513.381 1621.22 619.878 1662.18 c 0,24,25
 682.718 1686.12 682.718 1686.12 752.956 1660.03 c 0,26,27
 814.11 1636.51 814.11 1636.51 814.11 1557.7 c 0,28,29
 814.11 1466.67 814.11 1466.67 750.648 1417.09 c 0,30,31
 696.384 1374.89 696.384 1374.89 576.73 1374.89 c 2,15,-1
EndSplineSet
EndChar

StartChar: uni061B
Encoding: 1563 1563 36
Width: 654
VWidth: 2054
GlyphClass: 2
Flags: W
LayerCount: 2
Fore
SplineSet
338.676 433.611 m 4,0,1
 226.39 433.611 226.39 433.611 202.857 543.611 c 4,2,3
 191.957 594.561 191.957 594.561 211.715 680.611 c 4,4,5
 248.289 839.903 248.289 839.903 418.715 1001.61 c 5,6,-1
 525.249 1001.61 l 5,7,8
 347.582 856.611 347.582 856.611 336.715 685.611 c 5,9,10
 489.583 687.663 489.583 687.663 480.676 532.681 c 4,11,12
 475.048 433.611 475.048 433.611 338.676 433.611 c 4,0,1
232.49 239.023 m 1,13,-1
 420.274 239.023 l 1,14,-1
 420.274 7.99023 l 1,15,-1
 232.49 7.99023 l 1,16,-1
 232.49 239.023 l 1,13,-1
EndSplineSet
EndChar

StartChar: uni061F
Encoding: 1567 1567 37
Width: 1093
VWidth: 2054
GlyphClass: 2
Flags: W
LayerCount: 2
Fore
SplineSet
691.84 239.023 m 1,0,-1
 691.84 7.99023 l 1,1,-1
 512.103 7.99023 l 1,2,-1
 512.103 239.023 l 1,3,-1
 691.84 239.023 l 1,0,-1
518.138 411.315 m 1,4,-1
 518.138 522.81 l 2,5,6
 518.138 575.715 518.138 575.715 515.06 606.501 c 0,7,8
 511.934 637.76 511.934 637.76 505.543 660.122 c 0,9,10
 496.827 687.36 496.827 687.36 476.031 715.622 c 0,11,12
 455.868 743.022 455.868 743.022 407.894 790.997 c 2,13,-1
 319.283 877.593 l 1,14,15
 230.155 962.758 230.155 962.758 194.878 1029.88 c 0,16,17
 160.072 1096.12 160.072 1096.12 160.072 1169.54 c 0,18,19
 160.072 1323.89 160.072 1323.89 268.02 1417.8 c 0,20,21
 376.713 1512.37 376.713 1512.37 557.213 1512.37 c 0,22,23
 659.086 1512.37 659.086 1512.37 754.465 1484.68 c 0,24,25
 846.579 1457.96 846.579 1457.96 937.255 1404.02 c 1,26,-1
 937.255 1244.87 l 1,27,28
 848.514 1303.68 848.514 1303.68 766.345 1335.82 c 0,29,30
 674.191 1371.85 674.191 1371.85 592.416 1371.85 c 0,31,32
 479.337 1371.85 479.337 1371.85 410.053 1313.68 c 0,33,34
 339.81 1254.69 339.81 1254.69 339.81 1159.48 c 0,35,36
 339.81 1107.1 339.81 1107.1 366.937 1057.1 c 0,37,38
 393.542 1008.07 393.542 1008.07 452.198 953.518 c 1,39,-1
 542.663 864.064 l 1,40,41
 631.462 779.207 631.462 779.207 658.641 716.116 c 128,-1,42
 685.806 653.057 685.806 653.057 685.806 553.989 c 2,43,-1
 685.806 411.315 l 1,44,-1
 518.138 411.315 l 1,4,-1
EndSplineSet
EndChar

StartChar: uni0621
Encoding: 1569 1569 38
Width: 703
VWidth: 2181
GlyphClass: 2
Flags: W
AnchorPoint: "Anchor-7" 346 -83 basechar 0
AnchorPoint: "Anchor-10" 308.5 992.5 basechar 0
LayerCount: 2
Fore
SplineSet
91.1709 0.134766 m 1,0,-1
 91.1709 123.013 l 5,1,2
 123.768 132.107 123.768 132.107 208.768 158.414 c 0,3,4
 263.819 177.061 263.819 177.061 333.154 216.433 c 1,5,6
 94.7676 256.723 94.7676 256.723 94.7676 460.414 c 0,7,8
 94.7676 624.233 94.7676 624.233 221.178 702.127 c 128,-1,9
 347.591 780.023 347.591 780.023 543.029 736.774 c 1,10,-1
 543.029 607.535 l 1,11,12
 465.891 629.31 465.891 629.31 409.938 627.711 c 0,13,14
 363.193 626.832 363.193 626.832 316.923 603.697 c 0,15,16
 225.735 558.104 225.735 558.104 226.684 452.016 c 0,17,18
 226.684 313.818 226.684 313.818 386.768 294.414 c 0,19,20
 444.223 287.655 444.223 287.655 517.995 294.826 c 0,21,22
 548.766 297.817 548.766 297.817 612.365 330.839 c 1,23,-1
 612.365 203.272 l 1,24,25
 534.168 153.269 534.168 153.269 365.976 87.6338 c 0,26,27
 184.858 17.0654 184.858 17.0654 91.1709 0.134766 c 1,0,-1
EndSplineSet
EndChar

StartChar: uni0627
Encoding: 1575 1575 44
Width: 493
VWidth: 2181
GlyphClass: 2
Flags: W
AnchorPoint: "Anchor-10" 246.5 1490 basechar 0
AnchorPoint: "Anchor-7" 244.5 -116.5 basechar 0
LayerCount: 2
Fore
SplineSet
168.06 1322.96 m 1,0,-1
 324.94 1390.96 l 1,1,-1
 324.94 1.5 l 1,2,-1
 219.06 1.5 l 1,3,-1
 168.06 1322.96 l 1,0,-1
EndSplineSet
Substitution2: "'fina' Terminal Forms in Arabic lookup 9 subtable" uniFE8E
EndChar

StartChar: uni062D
Encoding: 1581 1581 50
Width: 1407
VWidth: 2181
GlyphClass: 2
Flags: W
AnchorPoint: "Anchor-10" 554.5 1296 basechar 0
AnchorPoint: "Anchor-7" 538.84 -755.5 basechar 0
LayerCount: 2
Fore
SplineSet
914.195 746.788 m 1,0,1
 854.072 750.337 854.072 750.337 704.745 794.237 c 0,2,3
 597.636 824.604 597.636 824.604 526.195 831.788 c 0,4,5
 378.236 845.789 378.236 845.789 241.12 668.977 c 1,6,-1
 137.12 748.977 l 1,7,8
 200.134 849.213 200.134 849.213 307.245 929 c 0,9,10
 386.271 987.01 386.271 987.01 530.195 976.788 c 0,11,12
 616.355 970.668 616.355 970.668 854.745 881.237 c 0,13,14
 1011.64 822.381 1011.64 822.381 1171.12 802.581 c 1,15,-1
 1149.12 662.977 l 1,16,17
 349.797 542.274 349.797 542.274 262.195 91.7881 c 0,18,19
 212.148 -165.578 212.148 -165.578 418.195 -292.212 c 0,20,21
 660.521 -441.143 660.521 -441.143 988.745 -351.628 c 0,22,23
 1120.75 -315.628 1120.75 -315.628 1315.4 -214.88 c 1,24,-1
 1315.4 -372.327 l 1,25,26
 1157.74 -500.628 1157.74 -500.628 887.745 -528.208 c 0,27,28
 574.62 -560.115 574.62 -560.115 373.195 -460.212 c 0,29,30
 85.6289 -316.418 85.6289 -316.418 91.1953 25.7881 c 0,31,32
 101.308 559.788 101.308 559.788 914.195 746.788 c 1,0,1
EndSplineSet
Substitution2: "'fina' Terminal Forms in Arabic lookup 9 subtable" uniFEA2
Substitution2: "'medi' Medial Forms in Arabic lookup 11 subtable" uniFEA4
Substitution2: "'init' Initial Forms in Arabic lookup 13 subtable" uniFEA3
EndChar

StartChar: uni062F
Encoding: 1583 1583 52
Width: 962
VWidth: 2181
GlyphClass: 2
Flags: W
AnchorPoint: "Anchor-10" 340.935 1117.81 basechar 0
AnchorPoint: "Anchor-7" 390.059 -193.422 basechar 0
LayerCount: 2
Fore
SplineSet
412.77 158.228 m 0,0,1
 598.219 158.228 598.219 158.228 677.389 227.008 c 0,2,3
 743.74 283.675 743.74 283.675 705.61 380.343 c 0,4,5
 616.789 602.56 616.789 602.56 396.609 800.52 c 1,6,-1
 495.589 943.939 l 1,7,8
 835.604 609.961 835.604 609.961 866.075 360.001 c 0,9,10
 880.865 238.677 880.865 238.677 810.124 135.844 c 0,11,12
 715.569 -4.5964 715.569 -4.5964 418.829 -9.43262 c 0,13,14
 208.704 -13.4727 208.704 -13.4727 85.458 31.5605 c 1,15,-1
 85.458 202.814 l 1,16,17
 228.278 157.228 228.278 157.228 412.77 158.228 c 0,0,1
EndSplineSet
Substitution2: "'fina' Terminal Forms in Arabic lookup 9 subtable" uniFEAA
EndChar

StartChar: uni0631
Encoding: 1585 1585 54
Width: 847
VWidth: 2186
GlyphClass: 2
Flags: W
AnchorPoint: "Anchor-7" 526 -631.5 basechar 0
AnchorPoint: "Anchor-10" 443.81 942.01 basechar 0
LayerCount: 2
Fore
SplineSet
735.601 48.5 m 0,0,1
 657.441 -501.365 657.441 -501.365 94.8672 -505.23 c 1,2,-1
 26.8672 -381.23 l 1,3,4
 553.434 -344.173 553.434 -344.173 589.677 66.7705 c 0,5,6
 598.834 169.84 598.834 169.84 518.585 464.2 c 1,7,-1
 659.601 561.5 l 1,8,9
 765.731 261.33 765.731 261.33 735.601 48.5 c 0,0,1
EndSplineSet
PairPos2: "'kern' Horizontal Kerning lookup 15-1" uniFB58 dx=70 dy=0 dh=70 dv=0 dx=0 dy=0 dh=0 dv=0
PairPos2: "'kern' Horizontal Kerning lookup 15-1" uniFEF3 dx=70 dy=0 dh=70 dv=0 dx=0 dy=0 dh=0 dv=0
PairPos2: "'kern' Horizontal Kerning lookup 15-1" uniFBFE dx=70 dy=0 dh=70 dv=0 dx=0 dy=0 dh=0 dv=0
PairPos2: "'kern' Horizontal Kerning lookup 15-1" uniFEDF dx=-70 dy=0 dh=-70 dv=0 dx=0 dy=0 dh=0 dv=0
PairPos2: "'kern' Horizontal Kerning lookup 15-1" uniFBAC dx=-70 dy=0 dh=-70 dv=0 dx=0 dy=0 dh=0 dv=0
PairPos2: "'kern' Horizontal Kerning lookup 15-1" uniFB90 dx=-70 dy=0 dh=-70 dv=0 dx=0 dy=0 dh=0 dv=0
PairPos2: "'kern' Horizontal Kerning lookup 15-1" uni06A9 dx=-70 dy=0 dh=-70 dv=0 dx=0 dy=0 dh=0 dv=0
PairPos2: "'kern' Horizontal Kerning lookup 15-1" uni0649 dx=-70 dy=0 dh=-70 dv=0 dx=0 dy=0 dh=0 dv=0
PairPos2: "'kern' Horizontal Kerning lookup 15-1" uni0647 dx=-70 dy=0 dh=-70 dv=0 dx=0 dy=0 dh=0 dv=0
PairPos2: "'kern' Horizontal Kerning lookup 15-1" uniFEE7 dx=-70 dy=0 dh=-70 dv=0 dx=0 dy=0 dh=0 dv=0
PairPos2: "'kern' Horizontal Kerning lookup 15-1" uniFEE3 dx=-70 dy=0 dh=-70 dv=0 dx=0 dy=0 dh=0 dv=0
PairPos2: "'kern' Horizontal Kerning lookup 15-1" uni0645 dx=-70 dy=0 dh=-70 dv=0 dx=0 dy=0 dh=0 dv=0
PairPos2: "'kern' Horizontal Kerning lookup 15-1" uni0644 dx=-70 dy=0 dh=-70 dv=0 dx=0 dy=0 dh=0 dv=0
PairPos2: "'kern' Horizontal Kerning lookup 15-1" uniFEDB dx=-70 dy=0 dh=-70 dv=0 dx=0 dy=0 dh=0 dv=0
PairPos2: "'kern' Horizontal Kerning lookup 15-1" uniFED7 dx=-70 dy=0 dh=-70 dv=0 dx=0 dy=0 dh=0 dv=0
PairPos2: "'kern' Horizontal Kerning lookup 15-1" uni0642 dx=-70 dy=0 dh=-70 dv=0 dx=0 dy=0 dh=0 dv=0
PairPos2: "'kern' Horizontal Kerning lookup 15-1" uniFED3 dx=-70 dy=0 dh=-70 dv=0 dx=0 dy=0 dh=0 dv=0
PairPos2: "'kern' Horizontal Kerning lookup 15-1" uni0641 dx=-70 dy=0 dh=-70 dv=0 dx=0 dy=0 dh=0 dv=0
PairPos2: "'kern' Horizontal Kerning lookup 15-1" uniFECF dx=-70 dy=0 dh=-70 dv=0 dx=0 dy=0 dh=0 dv=0
PairPos2: "'kern' Horizontal Kerning lookup 15-1" uniFECB dx=-70 dy=0 dh=-70 dv=0 dx=0 dy=0 dh=0 dv=0
PairPos2: "'kern' Horizontal Kerning lookup 15-1" uniFEC7 dx=-70 dy=0 dh=-70 dv=0 dx=0 dy=0 dh=0 dv=0
PairPos2: "'kern' Horizontal Kerning lookup 15-1" uni0638 dx=-70 dy=0 dh=-70 dv=0 dx=0 dy=0 dh=0 dv=0
PairPos2: "'kern' Horizontal Kerning lookup 15-1" uniFEC3 dx=-70 dy=0 dh=-70 dv=0 dx=0 dy=0 dh=0 dv=0
PairPos2: "'kern' Horizontal Kerning lookup 15-1" uni0637 dx=-70 dy=0 dh=-70 dv=0 dx=0 dy=0 dh=0 dv=0
PairPos2: "'kern' Horizontal Kerning lookup 15-1" uniFEBF dx=-70 dy=0 dh=-70 dv=0 dx=0 dy=0 dh=0 dv=0
PairPos2: "'kern' Horizontal Kerning lookup 15-1" uni0636 dx=-70 dy=0 dh=-70 dv=0 dx=0 dy=0 dh=0 dv=0
PairPos2: "'kern' Horizontal Kerning lookup 15-1" uniFEBB dx=-70 dy=0 dh=-70 dv=0 dx=0 dy=0 dh=0 dv=0
PairPos2: "'kern' Horizontal Kerning lookup 15-1" uni0635 dx=-70 dy=0 dh=-70 dv=0 dx=0 dy=0 dh=0 dv=0
PairPos2: "'kern' Horizontal Kerning lookup 15-1" uniFEB7 dx=-70 dy=0 dh=-70 dv=0 dx=0 dy=0 dh=0 dv=0
PairPos2: "'kern' Horizontal Kerning lookup 15-1" uni0634 dx=-70 dy=0 dh=-70 dv=0 dx=0 dy=0 dh=0 dv=0
PairPos2: "'kern' Horizontal Kerning lookup 15-1" uniFEB3 dx=-70 dy=0 dh=-70 dv=0 dx=0 dy=0 dh=0 dv=0
PairPos2: "'kern' Horizontal Kerning lookup 15-1" uni0633 dx=-70 dy=0 dh=-70 dv=0 dx=0 dy=0 dh=0 dv=0
PairPos2: "'kern' Horizontal Kerning lookup 15-1" uni0630 dx=-70 dy=0 dh=-70 dv=0 dx=0 dy=0 dh=0 dv=0
PairPos2: "'kern' Horizontal Kerning lookup 15-1" uni062F dx=-70 dy=0 dh=-70 dv=0 dx=0 dy=0 dh=0 dv=0
PairPos2: "'kern' Horizontal Kerning lookup 15-1" uniFEA7 dx=-70 dy=0 dh=-70 dv=0 dx=0 dy=0 dh=0 dv=0
PairPos2: "'kern' Horizontal Kerning lookup 15-1" uniFEA3 dx=-70 dy=0 dh=-70 dv=0 dx=0 dy=0 dh=0 dv=0
PairPos2: "'kern' Horizontal Kerning lookup 15-1" uniFE9F dx=-70 dy=0 dh=-70 dv=0 dx=0 dy=0 dh=0 dv=0
PairPos2: "'kern' Horizontal Kerning lookup 15-1" uniFE9B dx=-70 dy=0 dh=-70 dv=0 dx=0 dy=0 dh=0 dv=0
PairPos2: "'kern' Horizontal Kerning lookup 15-1" uni062B dx=-70 dy=0 dh=-70 dv=0 dx=0 dy=0 dh=0 dv=0
PairPos2: "'kern' Horizontal Kerning lookup 15-1" uniFE97 dx=-70 dy=0 dh=-70 dv=0 dx=0 dy=0 dh=0 dv=0
PairPos2: "'kern' Horizontal Kerning lookup 15-1" uni062A dx=-70 dy=0 dh=-70 dv=0 dx=0 dy=0 dh=0 dv=0
PairPos2: "'kern' Horizontal Kerning lookup 15-1" uni0629 dx=-70 dy=0 dh=-70 dv=0 dx=0 dy=0 dh=0 dv=0
PairPos2: "'kern' Horizontal Kerning lookup 15-1" uniFE91 dx=-70 dy=0 dh=-70 dv=0 dx=0 dy=0 dh=0 dv=0
PairPos2: "'kern' Horizontal Kerning lookup 15-1" uni0628 dx=-70 dy=0 dh=-70 dv=0 dx=0 dy=0 dh=0 dv=0
PairPos2: "'kern' Horizontal Kerning lookup 15-1" uni0627 dx=-70 dy=0 dh=-70 dv=0 dx=0 dy=0 dh=0 dv=0
PairPos2: "'kern' Horizontal Kerning lookup 15-1" uni0622 dx=-70 dy=0 dh=-70 dv=0 dx=0 dy=0 dh=0 dv=0
PairPos2: "'kern' Horizontal Kerning lookup 15-1" uniFB94 dx=-70 dy=0 dh=-70 dv=0 dx=0 dy=0 dh=0 dv=0
PairPos2: "'kern' Horizontal Kerning lookup 15-1" afii57509 dx=-70 dy=0 dh=-70 dv=0 dx=0 dy=0 dh=0 dv=0
PairPos2: "'kern' Horizontal Kerning lookup 15-1" uniFB56 dx=-70 dy=0 dh=-70 dv=0 dx=0 dy=0 dh=0 dv=0
PairPos2: "'kern' Horizontal Kerning lookup 15-1" afii57506 dx=-70 dy=0 dh=-70 dv=0 dx=0 dy=0 dh=0 dv=0
Substitution2: "'fina' Terminal Forms in Arabic lookup 9 subtable" uniFEAE
EndChar

StartChar: uni0633
Encoding: 1587 1587 56
Width: 2241
VWidth: 2186
GlyphClass: 2
Flags: W
AnchorPoint: "Anchor-7" 344.5 -664.03 basechar 0
AnchorPoint: "Anchor-10" 536.51 846.5 basechar 0
LayerCount: 2
Fore
SplineSet
1205.4 286.691 m 5,0,1
 1241.72 159.332 1241.72 159.332 1376.03 165.741 c 4,2,3
 1566.83 173.75 1566.83 173.75 1544.32 540.36 c 5,4,-1
 1688.12 540.36 l 5,5,6
 1689.22 178.945 1689.22 178.945 1852.89 164.633 c 28,7,8
 1958.37 155.409 1958.37 155.409 1988.89 242.633 c 4,9,10
 2009.05 300.244 2009.05 300.244 1996.89 471.633 c 4,11,12
 1994.49 505.358 1994.49 505.358 1963.66 662.314 c 5,13,-1
 2110.25 697.276 l 5,14,15
 2141.77 608.85 2141.77 608.85 2149.89 474.633 c 4,16,17
 2168.61 164.926 2168.61 164.926 2069.89 59.6328 c 4,18,19
 2017.86 4.13867 2017.86 4.13867 1885.04 0 c 28,20,21
 1703.78 -6.07227 1703.78 -6.07227 1641.01 132.418 c 6,22,-1
 1635.7 144.133 l 5,23,-1
 1631.71 131.907 l 6,24,25
 1590.07 4.31543 1590.07 4.31543 1376.6 1.55859 c 4,26,27
 1262.57 -0.240234 1262.57 -0.240234 1223.64 74.0156 c 5,28,29
 1219.12 -482.932 1219.12 -482.932 662.25 -488.25 c 4,30,31
 121.254 -495.181 121.254 -495.181 91.3916 9.85449 c 4,32,33
 86.9453 85.0518 86.9453 85.0518 107.469 190.831 c 4,34,35
 128.946 301.524 128.946 301.524 176.646 402.498 c 5,36,-1
 320.845 352.996 l 5,37,38
 232.274 137.498 232.274 137.498 250.783 -2.3623 c 4,39,40
 294.15 -330.066 294.15 -330.066 656.923 -331.072 c 4,41,42
 1045.41 -332.133 1045.41 -332.133 1085.12 0 c 4,43,44
 1112.03 215.263 1112.03 215.263 979.776 384.141 c 5,45,-1
 1113 510.98 l 5,46,47
 1147.7 429.423 1147.7 429.423 1205.4 286.691 c 5,0,1
EndSplineSet
Substitution2: "'fina' Terminal Forms in Arabic lookup 9 subtable" uniFEB2
Substitution2: "'medi' Medial Forms in Arabic lookup 11 subtable" uniFEB4
Substitution2: "'init' Initial Forms in Arabic lookup 13 subtable" uniFEB3
EndChar

StartChar: uni0635
Encoding: 1589 1589 58
Width: 2388
VWidth: 2181
GlyphClass: 2
Flags: W
AnchorPoint: "Anchor-10" 432.84 846.5 basechar 0
AnchorPoint: "Anchor-7" 397.84 -701.5 basechar 0
LayerCount: 2
Fore
SplineSet
1205.4 286.691 m 13,0,1
 1233.02 230.994 1233.02 230.994 1277.85 229.022 c 5,2,3
 1493.8 556.99 1493.8 556.99 1768.87 680.133 c 4,4,5
 1996.43 782.007 1996.43 782.007 2164.87 677.133 c 4,6,7
 2318.99 580.429 2318.99 580.429 2297.89 330.188 c 4,8,9
 2287.52 207.23 2287.52 207.23 2141.8 98.792 c 4,10,11
 2012.41 2.49999 2012.41 2.49999 1655.74 0.188477 c 6,12,-1
 1371.25 -1.65527 l 6,13,14
 1297.47 -2.13342 1297.47 -2.13342 1241.07 73.75 c 5,15,-1
 1223.64 74.0156 l 5,16,17
 1219.14 -481.116 1219.14 -481.116 662.25 -488.25 c 4,18,19
 121.254 -495.181 121.254 -495.181 91.3916 9.85449 c 4,20,21
 86.9453 85.0518 86.9453 85.0518 107.469 190.831 c 4,22,23
 128.946 301.524 128.946 301.524 176.646 402.498 c 5,24,-1
 320.845 352.996 l 5,25,26
 232.274 137.498 232.274 137.498 250.783 -2.3623 c 4,27,28
 294.15 -330.066 294.15 -330.066 656.923 -331.072 c 4,29,30
 1043.61 -332.128 1043.61 -332.128 1085.12 0 c 4,31,32
 1112.03 215.263 1112.03 215.263 979.776 384.141 c 5,33,-1
 1113 510.98 l 5,34,35
 1147.7 429.423 1147.7 429.423 1205.4 286.691 c 13,0,1
1419.18 180.197 m 5,36,-1
 1597.95 180.197 l 6,37,38
 1916.93 180.197 1916.93 180.197 2006.89 223.188 c 4,39,40
 2125.78 280.003 2125.78 280.003 2139.06 354.529 c 5,41,42
 2150.76 433.338 2150.76 433.338 2115.68 482.013 c 4,43,44
 2078.8 533.193 2078.8 533.193 2002.32 544.29 c 4,45,46
 1871.11 564.592 1871.11 564.592 1744.87 479.133 c 4,47,48
 1555.87 353.133 1555.87 353.133 1419.18 180.197 c 5,36,-1
EndSplineSet
Substitution2: "'fina' Terminal Forms in Arabic lookup 9 subtable" uniFEBA
Substitution2: "'medi' Medial Forms in Arabic lookup 11 subtable" uniFEBC
Substitution2: "'init' Initial Forms in Arabic lookup 13 subtable" uniFEBB
EndChar

StartChar: uni0637
Encoding: 1591 1591 60
Width: 1469
VWidth: 2181
GlyphClass: 2
Flags: W
AnchorPoint: "Anchor-10" 278.72 1522.47 basechar 0
AnchorPoint: "Anchor-7" 284.72 -170 basechar 0
LayerCount: 2
Fore
SplineSet
509.34 180.009 m 1,0,-1
 688.115 180.009 l 2,1,2
 1007.09 180.009 1007.09 180.009 1097.05 223 c 0,3,4
 1215.94 279.815 1215.94 279.815 1229.22 354.341 c 1,5,6
 1240.92 433.15 1240.92 433.15 1205.84 481.824 c 0,7,8
 1168.96 533.005 1168.96 533.005 1092.48 544.102 c 0,9,10
 961.27 564.403 961.27 564.403 835.026 478.945 c 0,11,12
 646.026 352.945 646.026 352.945 509.34 180.009 c 1,0,-1
745.898 0 m 2,13,-1
 84.75 0 l 1,14,-1
 84.75 168.979 l 1,15,-1
 252.28 168.98 l 1,16,-1
 252.28 1325.89 l 1,17,-1
 411.16 1388.89 l 1,18,-1
 368.01 228.834 l 1,19,20
 583.96 556.807 583.96 556.807 859.026 679.945 c 0,21,22
 1086.59 781.819 1086.59 781.819 1255.03 676.945 c 0,23,24
 1409.16 580.234 1409.16 580.234 1388.05 330 c 0,25,26
 1377.68 207.042 1377.68 207.042 1231.96 98.6035 c 0,27,28
 1099.46 0 1099.46 0 745.898 0 c 2,13,-1
EndSplineSet
Substitution2: "'fina' Terminal Forms in Arabic lookup 9 subtable" uniFEC2
Substitution2: "'medi' Medial Forms in Arabic lookup 11 subtable" uniFEC4
Substitution2: "'init' Initial Forms in Arabic lookup 13 subtable" uniFEC3
EndChar

StartChar: uni0639
Encoding: 1593 1593 62
Width: 1259
VWidth: 2181
GlyphClass: 2
Flags: W
AnchorPoint: "Anchor-10" 520.325 1347.51 basechar 0
AnchorPoint: "Anchor-7" 577.235 -726.76 basechar 0
LayerCount: 2
Fore
SplineSet
668.364 -350.414 m 0,0,1
 929.254 -338.107 929.254 -338.107 1129.99 -236.275 c 1,2,-1
 1162.71 -389.537 l 1,3,4
 987.351 -473.35 987.351 -473.35 772.646 -497.208 c 0,5,6
 641.331 -512.109 641.331 -512.109 527.721 -501.004 c 0,7,8
 300.69 -479.745 300.69 -479.745 186.438 -341.049 c 0,9,10
 69.9902 -199.961 69.9902 -199.961 87.3379 17.6338 c 0,11,12
 106.608 263.849 106.608 263.849 427.058 475.612 c 2,13,-1
 438.993 483.499 l 1,14,15
 401.751 491.494 401.751 491.494 349.399 518.215 c 0,16,17
 205.501 593.226 205.501 593.226 203.252 763.173 c 4,18,19
 199.384 1021.2 199.384 1021.2 431.899 1088 c 0,20,21
 610.389 1139.31 610.389 1139.31 824.289 1032.46 c 1,22,-1
 786.349 903.61 l 1,23,24
 657.345 961.465 657.345 961.465 553.899 964 c 0,25,26
 351.249 968.967 351.249 968.967 341.899 784 c 0,27,28
 335.376 654.944 335.376 654.944 444.011 605.549 c 0,29,30
 550.049 558.378 550.049 558.378 625.407 567.394 c 0,31,32
 784.224 586.893 784.224 586.893 943.04 606.393 c 1,33,-1
 943.04 455.731 l 1,34,35
 668.513 427.824 668.513 427.824 510.428 337.582 c 0,36,37
 259.25 192.469 259.25 192.469 250.592 -3.82812 c 0,38,39
 243.312 -178.299 243.312 -178.299 359.404 -265.989 c 1,40,41
 484.025 -358.754 484.025 -358.754 668.364 -350.414 c 0,0,1
EndSplineSet
Substitution2: "'fina' Terminal Forms in Arabic lookup 9 subtable" uniFECA
Substitution2: "'medi' Medial Forms in Arabic lookup 11 subtable" uniFECC
Substitution2: "'init' Initial Forms in Arabic lookup 13 subtable" uniFECB
EndChar

StartChar: afii57440
Encoding: 1600 1600 64
Width: 642
VWidth: 2181
GlyphClass: 2
Flags: W
AnchorPoint: "Anchor-10" 321 1274.5 basechar 0
AnchorPoint: "Anchor-7" 321 -116.5 basechar 0
LayerCount: 2
Fore
SplineSet
-3.40039 0 m 1,0,-1
 -3.40039 168.979 l 1,1,-1
 645.4 168.979 l 1,2,-1
 645.4 0 l 1,3,-1
 -3.40039 0 l 1,0,-1
EndSplineSet
EndChar

StartChar: uni0643
Encoding: 1603 1603 67
Width: 1734
VWidth: 2181
GlyphClass: 2
Flags: W
AnchorPoint: "Anchor-10" 531 1394.5 basechar 0
AnchorPoint: "Anchor-7" 789 -223.5 basechar 0
LayerCount: 2
Fore
SplineSet
1044.77 1181.06 m 1,0,-1
 1044.77 1129.12 l 1,1,2
 975.084 1123.99 975.084 1123.99 936.614 1109.81 c 0,3,4
 839.33 1073.34 839.33 1073.34 839.33 1025.55 c 0,5,6
 839.33 989.411 839.33 989.411 858.004 965.402 c 0,7,8
 875.196 942.479 875.196 942.479 955.292 930.699 c 0,9,10
 1004.69 923.436 1004.69 923.436 1029.62 900.664 c 0,11,12
 1054.05 878.351 1054.05 878.351 1054.05 838.298 c 0,13,14
 1054.05 742.199 1054.05 742.199 964.839 691.751 c 0,15,16
 895.97 652.804 895.97 652.804 801.689 651.929 c 0,17,18
 741.751 651.929 741.751 651.929 689.148 660.715 c 1,19,-1
 689.148 719.167 l 1,20,21
 749.907 711.158 749.907 711.158 792.059 711.158 c 0,22,23
 866.867 711.158 866.867 711.158 915.098 730.146 c 0,24,25
 999.45 762.542 999.45 762.542 999.45 816.898 c 0,26,27
 999.45 877.435 999.45 877.435 901.515 893.393 c 0,28,29
 844.717 902.048 844.717 902.048 813.966 933.498 c 128,-1,30
 783.138 965.029 783.138 965.029 784.373 1021.9 c 0,31,32
 786.251 1097.81 786.251 1097.81 856.895 1133.61 c 0,33,34
 937.2 1174.24 937.2 1174.24 1044.77 1181.06 c 1,0,-1
803.766 169.815 m 0,35,36
 1009.18 163.795 1009.18 163.795 1131.14 176.459 c 0,37,38
 1494.12 214.145 1494.12 214.145 1511.61 381.05 c 6,39,-1
 1517.4 436.293 l 5,40,-1
 1517.43 436.553 l 5,41,-1
 1472.43 1326.96 l 1,42,-1
 1633.3 1388.96 l 1,43,-1
 1633.3 406.814 l 2,44,45
 1633.3 389.2 1633.3 389.2 1630.65 350.508 c 0,46,47
 1616.01 136.756 1616.01 136.756 1326.15 46.2764 c 0,48,49
 1177.82 -0.0244141 1177.82 -0.0244141 911.041 2 c 0,50,51
 570.476 4.81348 570.476 4.81348 451.23 38.2891 c 0,52,53
 131.265 129.436 131.265 129.436 96.9727 452.526 c 0,54,55
 84.7383 568.016 84.7383 568.016 131.248 698.266 c 1,56,-1
 284.864 668.049 l 1,57,58
 252.952 530.511 252.952 530.511 262.056 472.255 c 0,59,60
 295.846 248.081 295.846 248.081 523.828 193.139 c 0,61,62
 595.238 175.93 595.238 175.93 803.766 169.815 c 0,35,36
EndSplineSet
Substitution2: "'fina' Terminal Forms in Arabic lookup 9 subtable" uniFEDA
Substitution2: "'medi' Medial Forms in Arabic lookup 11 subtable" uniFEDC
Substitution2: "'init' Initial Forms in Arabic lookup 13 subtable" uniFEDB
EndChar

StartChar: uni0644
Encoding: 1604 1604 68
Width: 1273
VWidth: 2181
GlyphClass: 2
Flags: W
AnchorPoint: "Anchor-10" 487.01 1069.5 basechar 0
AnchorPoint: "Anchor-7" 464.15 -627.616 basechar 0
LayerCount: 2
Fore
SplineSet
1056.54 154.819 m 6,0,1
 1054.91 446.32 l 6,2,-1
 1023.91 1324.03 l 5,3,-1
 1180.79 1389.03 l 5,4,-1
 1180.79 446.32 l 6,5,6
 1180.79 254.693 1180.79 254.693 1178.46 190.32 c 5,7,8
 1173.36 -87.2305 1173.36 -87.2305 1059.75 -223.629 c 4,9,10
 919.56 -390.27 919.56 -390.27 667.498 -396.703 c 4,11,12
 378.753 -404.455 378.753 -404.455 220.749 -248.629 c 4,13,14
 87.9961 -117.262 87.9961 -117.262 91.3721 104.055 c 132,-1,15
 94.749 325.371 94.749 325.371 178.749 495.371 c 5,16,-1
 332.749 457.371 l 5,17,18
 249.641 267.849 249.641 267.849 255.053 110.184 c 4,19,20
 260.65 -52.8525 260.65 -52.8525 349.749 -134.629 c 4,21,22
 464.482 -240.034 464.482 -240.034 655.419 -234.949 c 4,23,24
 818.824 -231.051 818.824 -231.051 907.498 -166.703 c 4,25,26
 1057.72 -56.9014 1057.72 -56.9014 1056.54 154.819 c 6,0,1
EndSplineSet
Substitution2: "'fina' Terminal Forms in Arabic lookup 9 subtable" uniFEDE
Substitution2: "'medi' Medial Forms in Arabic lookup 11 subtable" uniFEE0
Substitution2: "'init' Initial Forms in Arabic lookup 13 subtable" uniFEDF
EndChar

StartChar: uni0645
Encoding: 1605 1605 69
Width: 1062
VWidth: 2181
GlyphClass: 2
Flags: W
AnchorPoint: "Anchor-10" 544.5 1006.31 basechar 0
AnchorPoint: "Anchor-7" 131.631 -729.952 basechar 0
LayerCount: 2
Fore
SplineSet
500.759 309.006 m 0,0,1
 620.895 303 620.895 303 630 302.999 c 0,2,3
 754.691 303 754.691 303 801.34 316.183 c 0,4,5
 830.327 324.249 830.327 324.249 851.993 371.271 c 0,6,7
 910.532 499.176 910.532 499.176 637.303 617.836 c 0,8,9
 528.894 665.205 528.894 665.205 464.313 586.632 c 2,10,-1
 464.196 586.489 l 1,11,12
 408.043 506.976 408.043 506.976 424.019 324.565 c 2,13,-1
 424.161 322.938 l 1,14,-1
 425.237 321.707 l 2,15,16
 433.635 312.105 433.635 312.105 500.759 309.006 c 0,0,1
376 154 m 0,17,18
 245.538 154 245.538 154 207.078 78.7461 c 0,19,20
 173.583 12.8717 173.583 12.8717 183.078 -121.254 c 2,21,-1
 215.078 -573.254 l 1,22,-1
 66 -658 l 1,23,-1
 66 -75 l 2,24,25
 66 112.26 66 112.26 140.934 206.914 c 0,26,27
 190.739 270.392 190.739 270.392 269.852 284.073 c 2,28,-1
 274.212 284.827 l 1,29,-1
 273.994 289.247 l 2,30,31
 259.302 587.117 259.302 587.117 376.553 697.77 c 0,32,33
 522.286 836.466 522.286 836.466 706.806 748.244 c 24,34,35
 1049.02 585.053 1049.02 585.053 997.386 385 c 0,36,37
 940.262 164.608 940.262 164.608 889.799 168.497 c 1,38,39
 826.794 143.062 826.794 143.062 657.168 147.997 c 0,40,41
 478.117 154 478.117 154 376 154 c 0,17,18
EndSplineSet
Substitution2: "'init' Initial Forms in Arabic lookup 13 subtable" uniFEE3
Substitution2: "'medi' Medial Forms in Arabic lookup 11 subtable" uniFEE4
Substitution2: "'fina' Terminal Forms in Arabic lookup 9 subtable" uniFEE2
EndChar

StartChar: uni0647
Encoding: 1607 1607 71
Width: 938
VWidth: 2181
GlyphClass: 2
Flags: W
AnchorPoint: "Anchor-10" 423.924 1149.58 basechar 0
AnchorPoint: "Anchor-7" 332.864 -181.56 basechar 0
LayerCount: 2
Fore
SplineSet
267.952 365.033 m 4,0,1
 240.905 290.105 240.905 290.105 266.486 242.395 c 4,2,3
 293.418 192.164 293.418 192.164 369.174 161.341 c 4,4,5
 448.84 129.302 448.84 129.302 552.344 152.239 c 4,6,7
 635.869 170.021 635.869 170.021 657.279 243.817 c 4,8,9
 674.104 301.806 674.104 301.806 639.956 397.045 c 6,10,-1
 639.901 397.197 l 5,11,12
 573.231 532.073 573.231 532.073 456.305 627.509 c 5,13,14
 306.497 477.354 306.497 477.354 267.952 365.033 c 4,0,1
163.312 503.273 m 28,15,16
 235.312 620.394 235.312 620.394 340.026 725.67 c 5,17,-1
 302.419 758.007 l 5,18,-1
 404.417 867.113 l 5,19,20
 680.777 667.43 680.777 667.43 771.902 472.861 c 4,21,22
 909.782 180.977 909.782 180.977 692.809 49.458 c 4,23,24
 614.796 2.1709 614.796 2.1709 468.301 3.53027 c 4,25,26
 330.438 4.82715 330.438 4.82715 255.768 40.5059 c 4,27,28
 120.207 105.396 120.207 105.396 97.3262 226.047 c 4,29,30
 72.7031 355.883 72.7031 355.883 163.312 503.273 c 28,15,16
EndSplineSet
Substitution2: "'fina' Terminal Forms in Arabic lookup 9 subtable" uniFEEA
Substitution2: "'medi' Medial Forms in Arabic lookup 11 subtable" uniFEEC
Substitution2: "'init' Initial Forms in Arabic lookup 13 subtable" uniFEEB
EndChar

StartChar: uni0648
Encoding: 1608 1608 72
Width: 883
VWidth: 2181
GlyphClass: 2
Flags: W
AnchorPoint: "Anchor-10" 412.282 1032.17 basechar 0
AnchorPoint: "Anchor-7" 577.191 -589.443 basechar 0
LayerCount: 2
Fore
SplineSet
467.055 516.782 m 0,0,1
 337.804 513.161 337.804 513.161 293.921 341.953 c 0,2,3
 248.977 168.458 248.977 168.458 402.021 141.953 c 0,4,5
 551.078 115.953 551.078 115.953 658.188 197.749 c 1,6,7
 666.213 223.028 666.213 223.028 647.425 323.581 c 0,8,9
 609.684 520.838 609.684 520.838 467.055 516.782 c 0,0,1
782.994 -25.6064 m 0,10,11
 758.044 -171.295 758.044 -171.295 673.993 -279.606 c 0,12,13
 499.939 -503.909 499.939 -503.909 147.979 -507 c 1,14,-1
 79.9785 -381 l 1,15,16
 605.574 -349.607 605.574 -349.607 642.729 47 c 1,17,18
 585.53 -5.52246 585.53 -5.52246 441.987 -8.25098 c 0,19,20
 269.016 -11.2502 269.016 -11.2502 199.05 86 c 0,21,22
 136.572 174.012 136.572 174.012 152.299 289.042 c 0,23,24
 177.094 481.457 177.094 481.457 266.208 573.749 c 0,25,26
 388.294 698.577 388.294 698.577 539.748 665.749 c 0,27,28
 657.061 640.959 657.061 640.959 719.484 525.823 c 0,29,30
 783.183 406.168 783.183 406.168 797.085 255.849 c 0,31,32
 808.513 126.516 808.513 126.516 782.994 -25.6064 c 0,10,11
EndSplineSet
Substitution2: "'fina' Terminal Forms in Arabic lookup 9 subtable" uniFEEE
EndChar

StartChar: uni0649
Encoding: 1609 1609 73
Width: 1595
VWidth: 2181
GlyphClass: 2
Flags: W
AnchorPoint: "Anchor-10" 405.722 966.334 basechar 0
AnchorPoint: "Anchor-7" 528.423 -626.472 basechar 0
LayerCount: 2
Fore
SplineSet
1344.52 -171.967 m 0,0,1
 1075.55 -399.164 1075.55 -399.164 713.875 -412.326 c 0,2,3
 336.525 -425.302 336.525 -425.302 203.583 -172.547 c 0,4,5
 119.436 -12.2812 119.436 -12.2812 168.583 226.453 c 0,6,7
 207.941 418.947 207.941 418.947 319.994 604 c 1,8,-1
 461.994 540.893 l 1,9,10
 384.721 391.752 384.721 391.752 344.583 263.453 c 0,11,12
 278.614 52.5872 278.614 52.5872 357.007 -83.8193 c 0,13,14
 450.803 -247.966 450.803 -247.966 722.875 -241.326 c 0,15,16
 977.402 -234.808 977.402 -234.808 1152.52 -126.967 c 0,17,18
 1297.05 -37.9639 1297.05 -37.9639 1332.21 32.1807 c 0,19,20
 1369.33 103.673 1369.33 103.673 1194.78 99.7808 c 128,-1,21
 1020.23 95.8891 1020.23 95.8891 948.231 155.889 c 0,22,23
 857.633 231.388 857.633 231.388 909.23 385 c 0,24,25
 969.397 564.121 969.397 564.121 1116.35 665.537 c 0,26,27
 1329.35 812.537 1329.35 812.537 1533.23 605.092 c 1,28,-1
 1475.23 453.092 l 1,29,30
 1349.46 584.975 1349.46 584.975 1194.35 509.045 c 0,31,32
 1049.44 438.113 1049.44 438.113 1031.85 301.635 c 0,33,34
 1024.98 248.891 1024.98 248.891 1089.71 249.779 c 0,35,36
 1305.75 252.662 1305.75 252.662 1371.71 224.779 c 0,37,38
 1501.35 169.556 1501.35 169.556 1472.88 13.6738 c 0,39,40
 1456.19 -77.6396 1456.19 -77.6396 1344.52 -171.967 c 0,0,1
EndSplineSet
Substitution2: "'fina' Terminal Forms in Arabic lookup 9 subtable" uniFEF0
Substitution2: "'medi' Medial Forms in Arabic lookup 11 subtable" uniFBE9
Substitution2: "'init' Initial Forms in Arabic lookup 13 subtable" uniFBE8
EndChar

StartChar: uni064B
Encoding: 1611 1611 75
Width: 0
VWidth: 2186
GlyphClass: 4
Flags: W
AnchorPoint: "Anchor-10" 547.84 1041.5 mark 0
AnchorPoint: "Anchor-9" 547.84 1041.5 mark 0
AnchorPoint: "Anchor-1" 547.84 1576.5 basemark 0
AnchorPoint: "Anchor-1" 547.84 1041.5 mark 0
LayerCount: 2
Fore
SplineSet
269.4 977.41 m 5,0,-1
 269.4 1104.48 l 5,1,-1
 827.28 1332.79 l 5,2,-1
 827.28 1205.72 l 5,3,-1
 269.4 977.41 l 5,0,-1
269.4 1234.21 m 5,4,-1
 269.4 1361.28 l 5,5,-1
 827.28 1589.59 l 5,6,-1
 827.28 1462.52 l 5,7,-1
 269.4 1234.21 l 5,4,-1
EndSplineSet
EndChar

StartChar: uni064C
Encoding: 1612 1612 76
Width: 0
VWidth: 2186
GlyphClass: 4
Flags: W
AnchorPoint: "Anchor-10" 554.386 1155.44 mark 0
AnchorPoint: "Anchor-9" 554.386 1155.44 mark 0
AnchorPoint: "Anchor-1" 546.386 1810.94 basemark 0
AnchorPoint: "Anchor-1" 554.386 1155.44 mark 0
LayerCount: 2
Fore
SplineSet
567.219 1298.72 m 0,0,1
 608.391 1338.78 608.391 1338.78 631.845 1385.69 c 2,2,-1
 639.364 1400.73 l 1,3,-1
 622.913 1404.22 l 2,4,5
 589.558 1411.29 589.558 1411.29 566.532 1424.31 c 0,6,7
 457.736 1481.73 457.736 1481.73 457.736 1574.47 c 0,8,9
 457.736 1661.08 457.736 1661.08 526.365 1712.8 c 0,10,11
 552.86 1732.67 552.86 1732.67 615.937 1732.67 c 0,12,13
 688.759 1732.67 688.759 1732.67 727.738 1694.66 c 0,14,15
 782.696 1640.71 782.696 1640.71 782.696 1561.63 c 0,16,17
 782.696 1521.9 782.696 1521.9 770.46 1483.15 c 2,18,-1
 765.402 1467.14 l 1,19,-1
 782.175 1466.26 l 2,20,21
 802.247 1465.2 802.247 1465.2 817.806 1465.17 c 0,22,23
 831.205 1464.45 831.205 1464.45 845.826 1464.2 c 1,24,-1
 845.826 1372.44 l 1,25,26
 806.232 1372.69 806.232 1372.69 788.381 1374.48 c 2,27,-1
 723.27 1380.74 l 1,28,-1
 719.537 1371.99 l 2,29,30
 692.652 1308.91 692.652 1308.91 614.12 1227.24 c 1,31,32
 527.043 1139.14 527.043 1139.14 431.896 1139.14 c 0,33,34
 319.02 1139.14 319.02 1139.14 262.205 1295.39 c 0,35,36
 247.89 1334.51 247.89 1334.51 246.994 1442.7 c 1,37,-1
 317.299 1442.7 l 1,38,39
 318.143 1347.11 318.143 1347.11 331.307 1318.59 c 0,40,41
 372.26 1230.84 372.26 1230.84 431.896 1230.84 c 0,42,43
 497.076 1230.84 497.076 1230.84 567.219 1298.72 c 0,0,1
669.292 1482.64 m 1,44,-1
 680.316 1508.36 l 2,45,46
 690.996 1533.28 690.996 1533.28 690.996 1561.63 c 0,47,48
 690.996 1604.15 690.996 1604.15 668.07 1623.02 c 0,49,50
 646.28 1640.97 646.28 1640.97 620.217 1640.97 c 0,51,52
 591.787 1640.97 591.787 1640.97 575.875 1628.63 c 0,53,54
 551.576 1610.34 551.576 1610.34 551.576 1574.47 c 0,55,56
 551.576 1526.08 551.576 1526.08 607.898 1503.55 c 0,57,58
 629.803 1494.79 629.803 1494.79 658.123 1486.08 c 2,59,-1
 669.292 1482.64 l 1,44,-1
EndSplineSet
EndChar

StartChar: uni064D
Encoding: 1613 1613 77
Width: 0
VWidth: 2186
GlyphClass: 4
Flags: W
AnchorPoint: "Anchor-7" 531.84 75.5 mark 0
AnchorPoint: "Anchor-6" 531.84 75.5 mark 0
AnchorPoint: "Anchor-0" 547.84 -439.5 basemark 0
AnchorPoint: "Anchor-0" 531.84 75.5 mark 0
LayerCount: 2
Fore
SplineSet
270.96 -512.18 m 5,0,-1
 270.96 -385.109 l 5,1,-1
 828.84 -156.8 l 5,2,-1
 828.84 -283.87 l 5,3,-1
 270.96 -512.18 l 5,0,-1
270.96 -255.38 m 5,4,-1
 270.96 -128.31 l 5,5,-1
 828.84 100 l 5,6,-1
 828.84 -27.0703 l 5,7,-1
 270.96 -255.38 l 5,4,-1
EndSplineSet
EndChar

StartChar: uni064E
Encoding: 1614 1614 78
Width: 0
VWidth: 2186
GlyphClass: 4
Flags: W
AnchorPoint: "Anchor-10" 517.84 1279.5 mark 0
AnchorPoint: "Anchor-9" 517.84 1279.5 mark 0
AnchorPoint: "Anchor-1" 517.84 1600.5 basemark 0
AnchorPoint: "Anchor-1" 517.84 1279.5 mark 0
LayerCount: 2
Fore
SplineSet
237.4 1237.41 m 1,0,-1
 237.4 1364.48 l 1,1,-1
 795.28 1592.79 l 5,2,-1
 795.28 1465.72 l 1,3,-1
 237.4 1237.41 l 1,0,-1
EndSplineSet
EndChar

StartChar: uni064F
Encoding: 1615 1615 79
Width: 0
VWidth: 2186
GlyphClass: 4
Flags: W
AnchorPoint: "Anchor-10" 531.84 1205.5 mark 0
AnchorPoint: "Anchor-9" 531.84 1205.5 mark 0
AnchorPoint: "Anchor-1" 547.84 1825 basemark 0
AnchorPoint: "Anchor-1" 531.84 1205.5 mark 0
LayerCount: 2
Fore
SplineSet
594.529 1426.81 m 6,0,1
 586.598 1428.57 586.598 1428.57 567.734 1438.5 c 4,2,3
 459.19 1494.78 459.19 1494.78 459.19 1588.53 c 4,4,5
 459.19 1675.14 459.19 1675.14 527.819 1726.86 c 4,6,7
 554.314 1746.73 554.314 1746.73 617.39 1746.73 c 4,8,9
 690.212 1746.73 690.212 1746.73 729.192 1708.72 c 4,10,11
 784.15 1654.77 784.15 1654.77 784.15 1575.69 c 4,12,13
 784.15 1543.43 784.15 1543.43 769.757 1497.16 c 6,14,-1
 764.821 1481.3 l 5,15,-1
 781.407 1480.32 l 6,16,17
 799.81 1479.24 799.81 1479.24 819.259 1478.7 c 4,18,19
 832.229 1478.34 832.229 1478.34 847.28 1478.21 c 5,20,-1
 847.28 1386.53 l 5,21,22
 817.029 1386.85 817.029 1386.85 789.455 1388.57 c 4,23,24
 757.6 1390.7 757.6 1390.7 727.915 1393.88 c 6,25,-1
 720.312 1394.69 l 5,26,-1
 715.905 1388.44 l 6,27,28
 671.45 1325.37 671.45 1325.37 599.88 1281.81 c 4,29,30
 398.294 1157.85 398.294 1157.85 248.4 1152.36 c 5,31,-1
 248.4 1244.01 l 5,32,33
 408.671 1248.65 408.671 1248.65 554.781 1363.22 c 4,34,35
 580.142 1383.07 580.142 1383.07 601.135 1405.16 c 6,36,-1
 616.962 1421.83 l 5,37,-1
 594.529 1426.81 l 6,0,1
670.746 1496.7 m 5,38,-1
 681.77 1522.42 l 6,39,40
 692.45 1547.34 692.45 1547.34 692.45 1575.69 c 4,41,42
 692.45 1618.21 692.45 1618.21 669.524 1637.08 c 4,43,44
 647.734 1655.03 647.734 1655.03 621.67 1655.03 c 4,45,46
 593.241 1655.03 593.241 1655.03 577.329 1642.69 c 4,47,48
 553.03 1624.4 553.03 1624.4 553.03 1588.53 c 4,49,50
 553.03 1540.14 553.03 1540.14 609.352 1517.61 c 4,51,52
 631.256 1508.85 631.256 1508.85 659.577 1500.14 c 6,53,-1
 670.746 1496.7 l 5,38,-1
EndSplineSet
EndChar

StartChar: uni0650
Encoding: 1616 1616 80
Width: 0
VWidth: 2186
GlyphClass: 4
Flags: W
AnchorPoint: "Anchor-7" 467.84 -12.5 mark 0
AnchorPoint: "Anchor-6" 467.84 -12.5 mark 0
AnchorPoint: "Anchor-0" 556.84 -311.5 basemark 0
AnchorPoint: "Anchor-0" 467.84 -12.5 mark 0
LayerCount: 2
Fore
SplineSet
267.96 -356.836 m 1,0,-1
 267.96 -229.766 l 1,1,-1
 825.84 -1.45605 l 1,2,-1
 825.84 -128.526 l 1,3,-1
 267.96 -356.836 l 1,0,-1
EndSplineSet
EndChar

StartChar: uni0651
Encoding: 1617 1617 81
Width: 0
VWidth: 2186
GlyphClass: 4
Flags: W
AnchorPoint: "Anchor-10" 547.84 1316.5 mark 0
AnchorPoint: "Anchor-9" 547.84 1316.5 mark 0
AnchorPoint: "Anchor-1" 535.84 1818.5 basemark 0
AnchorPoint: "Anchor-1" 547.84 1316.5 mark 0
LayerCount: 2
Fore
SplineSet
507.838 1339.09 m 128,-1,1
 469.58 1294.39 469.58 1294.39 378.78 1294.39 c 0,2,3
 301.302 1294.39 301.302 1294.39 261.261 1355.91 c 0,4,5
 227 1408.31 227 1408.31 227 1486.07 c 0,6,7
 227 1527.41 227 1527.41 242.222 1626.56 c 1,8,-1
 320.73 1626.56 l 1,9,10
 310.14 1502.98 310.14 1502.98 310.14 1459.89 c 0,11,12
 310.14 1394.86 310.14 1394.86 398.84 1393.09 c 0,13,14
 497.128 1391.16 497.128 1391.16 506.266 1518.54 c 0,15,16
 508.184 1545.08 508.184 1545.08 508.4 1680.83 c 1,17,-1
 586.06 1680.83 l 1,18,19
 588.34 1645.85 588.34 1645.85 588.34 1597.53 c 0,20,21
 588.34 1452.09 588.34 1452.09 700.84 1452.09 c 4,22,23
 785.54 1452.09 785.54 1452.09 785.54 1599.06 c 4,24,25
 785.54 1708.64 785.54 1708.64 774.521 1770.1 c 5,26,-1
 857.705 1770.1 l 5,27,28
 868.68 1694.87 868.68 1694.87 868.68 1580.87 c 4,29,30
 868.68 1511.69 868.68 1511.69 841.188 1456.65 c 4,31,32
 796.118 1367.27 796.118 1367.27 722.84 1358.99 c 4,33,34
 657.525 1351.76 657.525 1351.76 616.258 1379.33 c 4,35,36
 556.63 1418.62 556.63 1418.62 554.84 1431.09 c 1,37,38
 546.096 1383.79 546.096 1383.79 507.838 1339.09 c 128,-1,1
EndSplineSet
EndChar

StartChar: uni0652
Encoding: 1618 1618 82
Width: 0
VWidth: 2186
GlyphClass: 4
Flags: W
AnchorPoint: "Anchor-10" 565.84 1128.5 mark 0
AnchorPoint: "Anchor-9" 565.84 1128.5 mark 0
AnchorPoint: "Anchor-1" 551.84 1702 basemark 0
AnchorPoint: "Anchor-1" 565.84 1128.5 mark 0
LayerCount: 2
Fore
SplineSet
674.569 1383.62 m 0,0,1
 674.569 1428.15 674.569 1428.15 643.439 1459.28 c 128,-1,2
 612.312 1490.41 612.312 1490.41 567.126 1490.41 c 0,3,4
 521.285 1490.41 521.285 1490.41 490.485 1459.61 c 128,-1,5
 459.685 1428.81 459.685 1428.81 459.685 1383.62 c 0,6,7
 459.685 1337.78 459.685 1337.78 490.485 1306.98 c 128,-1,8
 521.285 1276.18 521.285 1276.18 567.126 1276.18 c 0,9,10
 612.314 1276.18 612.314 1276.18 643.439 1307.31 c 128,-1,11
 674.569 1338.44 674.569 1338.44 674.569 1383.62 c 0,0,1
750.396 1383.73 m 128,-1,13
 750.396 1306.88 750.396 1306.88 697.316 1253.46 c 128,-1,14
 644.259 1200.07 644.259 1200.07 567.436 1200.07 c 128,-1,15
 490.613 1200.07 490.613 1200.07 437.557 1253.46 c 128,-1,16
 384.476 1306.88 384.476 1306.88 384.476 1383.73 c 128,-1,17
 384.476 1460.56 384.476 1460.56 437.537 1513.63 c 128,-1,18
 490.596 1566.69 490.596 1566.69 567.436 1566.69 c 128,-1,19
 644.276 1566.69 644.276 1566.69 697.335 1513.63 c 128,-1,12
 750.396 1460.56 750.396 1460.56 750.396 1383.73 c 128,-1,13
EndSplineSet
EndChar

StartChar: uni0653
Encoding: 1619 1619 83
Width: 0
VWidth: 2186
GlyphClass: 4
Flags: W
AnchorPoint: "Anchor-10" 442.84 1264.52 mark 0
AnchorPoint: "Anchor-9" 442.84 1264.52 mark 0
AnchorPoint: "Anchor-1" 442.84 1600.5 basemark 0
AnchorPoint: "Anchor-1" 442.84 1264.52 mark 0
LayerCount: 2
Fore
SplineSet
109.638 1365.05 m 5,0,1
 212.289 1479.87 212.289 1479.87 287.73 1453.49 c 4,2,3
 442.183 1397.9 442.183 1397.9 515.207 1405.97 c 4,4,5
 587.354 1413.79 587.354 1413.79 656.914 1479.92 c 5,6,-1
 704.93 1408.22 l 5,7,8
 617.699 1349.9 617.699 1349.9 559.504 1324.21 c 4,9,10
 491.236 1295.05 491.236 1295.05 293.235 1356.78 c 4,11,12
 239.766 1372.07 239.766 1372.07 165.102 1302.38 c 5,13,-1
 109.638 1365.05 l 5,0,1
EndSplineSet
EndChar

StartChar: uni0657
Encoding: 1623 1623 86
Width: 0
VWidth: 2186
GlyphClass: 4
Flags: W
AnchorPoint: "Anchor-10" 547.84 1279.5 mark 0
AnchorPoint: "Anchor-9" 547.84 1279.5 mark 0
AnchorPoint: "Anchor-1" 547.84 1975 basemark 0
AnchorPoint: "Anchor-1" 547.84 1279.5 mark 0
LayerCount: 2
Fore
SplineSet
501.148 1675.55 m 2,0,1
 509.083 1673.79 509.083 1673.79 527.945 1663.86 c 0,2,3
 636.49 1607.58 636.49 1607.58 636.49 1513.83 c 0,4,5
 636.49 1427.22 636.49 1427.22 567.86 1375.5 c 0,6,7
 541.366 1355.63 541.366 1355.63 478.29 1355.63 c 0,8,9
 405.468 1355.63 405.468 1355.63 366.487 1393.64 c 0,10,11
 311.53 1447.59 311.53 1447.59 311.53 1526.67 c 0,12,13
 311.53 1558.94 311.53 1558.94 325.923 1605.2 c 2,14,-1
 330.858 1621.06 l 1,15,-1
 314.272 1622.04 l 2,16,17
 295.871 1623.12 295.871 1623.12 276.421 1623.66 c 0,18,19
 263.452 1624.02 263.452 1624.02 248.4 1624.15 c 1,20,-1
 248.4 1715.83 l 1,21,22
 278.631 1715.51 278.631 1715.51 306.226 1713.79 c 0,23,24
 338.082 1711.66 338.082 1711.66 367.766 1708.48 c 2,25,-1
 375.369 1707.67 l 1,26,-1
 379.775 1713.92 l 2,27,28
 424.231 1776.99 424.231 1776.99 495.801 1820.55 c 0,29,30
 697.387 1944.51 697.387 1944.51 847.28 1950 c 1,31,-1
 847.28 1858.35 l 1,32,33
 687.009 1853.71 687.009 1853.71 540.898 1739.14 c 0,34,35
 515.54 1719.29 515.54 1719.29 494.545 1697.2 c 2,36,-1
 478.72 1680.54 l 1,37,-1
 501.148 1675.55 l 2,0,1
424.935 1605.66 m 1,38,-1
 413.911 1579.94 l 2,39,40
 403.23 1555.02 403.23 1555.02 403.23 1526.67 c 0,41,42
 403.23 1484.16 403.23 1484.16 426.155 1465.28 c 0,43,44
 447.946 1447.33 447.946 1447.33 474.01 1447.33 c 0,45,46
 502.438 1447.33 502.438 1447.33 518.352 1459.67 c 0,47,48
 542.65 1477.96 542.65 1477.96 542.65 1513.83 c 0,49,50
 542.65 1562.22 542.65 1562.22 486.328 1584.75 c 0,51,52
 464.442 1593.51 464.442 1593.51 436.104 1602.22 c 2,53,-1
 424.935 1605.66 l 1,38,-1
EndSplineSet
EndChar

StartChar: uni065A
Encoding: 1626 1626 87
Width: 1095
VWidth: 2186
GlyphClass: 4
Flags: W
AnchorPoint: "Anchor-10" 547.84 1279.5 mark 0
AnchorPoint: "Anchor-9" 547.84 1279.5 mark 0
AnchorPoint: "Anchor-1" 545.7 1761 basemark 0
AnchorPoint: "Anchor-1" 547.84 1279.5 mark 0
LayerCount: 2
Fore
SplineSet
476.032 1358.84 m 1,0,-1
 282.934 1681.66 l 1,1,-1
 401.783 1681.66 l 1,2,-1
 547.84 1462.57 l 1,3,-1
 693.896 1681.66 l 1,4,-1
 812.746 1681.66 l 1,5,-1
 619.646 1358.84 l 1,6,-1
 476.032 1358.84 l 1,0,-1
EndSplineSet
EndChar

StartChar: afii57392
Encoding: 1632 1632 88
Width: 1177
VWidth: 2181
GlyphClass: 2
Flags: W
LayerCount: 2
Fore
SplineSet
497.74 603.61 m 128,-1,1
 497.74 561.913 497.74 561.913 527.621 532.031 c 128,-1,2
 557.503 502.15 557.503 502.15 599.2 502.15 c 128,-1,3
 640.896 502.15 640.896 502.15 670.777 532.031 c 128,-1,4
 700.66 561.914 700.66 561.914 700.66 603.61 c 128,-1,5
 700.66 645.305 700.66 645.305 670.777 675.188 c 128,-1,6
 640.896 705.07 640.896 705.07 599.2 705.07 c 128,-1,7
 557.504 705.07 557.504 705.07 527.621 675.188 c 128,-1,0
 497.74 645.306 497.74 645.306 497.74 603.61 c 128,-1,1
357.267 600.562 m 128,-1,9
 357.267 702.314 357.267 702.314 429.102 774.568 c 128,-1,10
 500.889 846.775 500.889 846.775 601.947 846.775 c 128,-1,11
 703.01 846.775 703.01 846.775 774.793 774.568 c 128,-1,12
 846.626 702.313 846.626 702.313 846.626 600.562 c 128,-1,13
 846.626 498.803 846.626 498.803 774.793 426.557 c 128,-1,14
 703.001 354.351 703.001 354.351 601.947 354.351 c 128,-1,15
 500.888 354.351 500.888 354.351 429.102 426.557 c 128,-1,8
 357.267 498.808 357.267 498.808 357.267 600.562 c 128,-1,9
EndSplineSet
EndChar

StartChar: afii57393
Encoding: 1633 1633 89
Width: 1177
VWidth: 2181
GlyphClass: 2
Flags: W
LayerCount: 2
Fore
SplineSet
730.99 8.5 m 1,0,-1
 574.386 8.5 l 1,1,2
 573.585 430.763 573.585 430.763 530.803 709.65 c 0,3,4
 483.817 1010.47 483.817 1010.47 324.615 1363.5 c 1,5,-1
 495.143 1363.5 l 1,6,7
 603.328 1184.84 603.328 1184.84 678.803 837.65 c 0,8,9
 728.802 607.65 728.802 607.65 730.99 8.5 c 1,0,-1
EndSplineSet
EndChar

StartChar: afii57394
Encoding: 1634 1634 90
Width: 1177
VWidth: 2181
GlyphClass: 2
Flags: W
LayerCount: 2
Fore
SplineSet
288.771 1363.5 m 5,0,1
 354.924 1208.23 354.924 1208.23 358.772 1201.54 c 4,2,3
 430.591 1056.06 430.591 1056.06 579.175 1047.5 c 4,4,5
 783.496 1035.94 783.496 1035.94 844.654 1155.35 c 4,6,7
 886.654 1237.35 886.654 1237.35 903.133 1363.35 c 5,8,-1
 1047.13 1327.35 l 5,9,10
 1037.13 1273.35 1037.13 1273.35 1017.13 1201.35 c 4,11,12
 929.545 891.723 929.545 891.723 639.175 879.5 c 4,13,14
 544.718 875.524 544.718 875.524 442.008 911.271 c 5,15,16
 481.167 812.272 481.167 812.272 507.175 574.5 c 4,17,18
 515.243 500.755 515.243 500.755 521.27 8.5 c 5,19,-1
 364.664 8.5 l 5,20,21
 363.89 446.489 363.89 446.489 324.837 683.659 c 4,22,23
 271.977 1004.68 271.977 1004.68 150.175 1266.5 c 5,24,-1
 288.771 1363.5 l 5,0,1
EndSplineSet
EndChar

StartChar: afii57395
Encoding: 1635 1635 91
Width: 1177
VWidth: 2181
GlyphClass: 2
Flags: W
LayerCount: 2
Fore
SplineSet
243.771 1363.5 m 1,0,1
 309.924 1208.23 309.924 1208.23 313.772 1201.54 c 0,2,3
 396.217 1048.51 396.217 1048.51 483 1040.75 c 0,4,5
 633.334 1028.59 633.334 1028.59 655 1115.75 c 0,6,7
 663.297 1148.98 663.297 1148.98 663.297 1318.75 c 1,8,-1
 779.4 1317.88 l 1,9,10
 781.513 1141.29 781.513 1141.29 805.4 1101.88 c 0,11,12
 839.663 1044.07 839.663 1044.07 932.4 1050.88 c 0,13,14
 1020.55 1057.88 1020.55 1057.88 1026.57 1351.88 c 1,15,-1
 1154.57 1330.88 l 1,16,17
 1151.61 1239.75 1151.61 1239.75 1129.57 1127.88 c 0,18,19
 1083.92 896.046 1083.92 896.046 917.4 896.046 c 0,20,21
 811.375 896.046 811.375 896.046 735.4 983.876 c 1,22,23
 684.788 895.982 684.788 895.982 552 887.75 c 0,24,25
 477.295 883.119 477.295 883.119 397.008 911.271 c 1,26,27
 431.411 829.41 431.411 829.41 473.4 476.876 c 0,28,29
 482.352 401.717 482.352 401.717 478.27 8.5 c 1,30,-1
 319.664 8.5 l 1,31,32
 318.89 446.488 318.89 446.488 279.837 683.659 c 0,33,34
 226.978 1004.68 226.978 1004.68 105.175 1266.5 c 1,35,-1
 243.771 1363.5 l 1,0,1
EndSplineSet
EndChar

StartChar: afii57396
Encoding: 1636 1636 92
Width: 1177
VWidth: 2181
GlyphClass: 2
Flags: W
LayerCount: 2
Fore
SplineSet
755.514 1369.21 m 1,0,-1
 747.191 1235.88 l 1,1,2
 622.541 1247.74 622.541 1247.74 539.314 1210.42 c 1,3,4
 429.063 1159.52 429.063 1159.52 437.877 1047.09 c 0,5,6
 447.153 930.327 447.153 930.327 566.078 885.305 c 0,7,8
 604.867 870.62 604.867 870.62 742.77 856.721 c 1,9,-1
 742.77 713.322 l 1,10,11
 588.49 684.021 588.49 684.021 498.288 624.809 c 0,12,13
 378.637 545.295 378.637 545.295 361.969 401.309 c 0,14,15
 357.018 358.521 357.018 358.521 361.91 322.85 c 0,16,17
 391.152 109.715 391.152 109.715 752.526 159.562 c 0,18,19
 835.112 170.937 835.112 170.937 958.91 229.883 c 1,20,-1
 958.91 61.0957 l 1,21,22
 835.432 12.0723 835.432 12.0723 671.832 0.755859 c 0,23,24
 292.089 -24.582 292.089 -24.582 223.893 229.285 c 0,25,26
 205.25 298.689 205.25 298.689 205.25 399.24 c 0,27,28
 205.25 536.091 205.25 536.091 315.484 667.957 c 1,29,30
 381.369 744.99 381.369 744.99 470.187 769.214 c 2,31,-1
 525.383 784.268 l 1,32,-1
 471.511 803.529 l 2,33,34
 324.39 856.131 324.39 856.131 294.745 995.727 c 0,35,36
 245.026 1231.99 245.026 1231.99 446.729 1316.54 c 0,37,38
 566.263 1366.64 566.263 1366.64 755.514 1369.21 c 1,0,-1
EndSplineSet
EndChar

StartChar: afii57397
Encoding: 1637 1637 93
Width: 1177
VWidth: 2181
GlyphClass: 2
Flags: W
LayerCount: 2
Fore
SplineSet
558.316 1029.44 m 2,0,1
 435.596 952.978 435.596 952.978 347.237 779.785 c 0,2,3
 267.629 623.745 267.629 623.745 261.968 501.817 c 0,4,5
 253.924 328.592 253.924 328.592 349.612 249.899 c 0,6,7
 438.292 176.952 438.292 176.952 612.858 176.156 c 0,8,9
 807.962 175.266 807.962 175.266 874.874 289.757 c 0,10,11
 931.282 387.875 931.282 387.875 919.441 533.265 c 0,12,13
 907.591 686.656 907.591 686.656 779.574 856.497 c 0,14,15
 683.022 984.606 683.022 984.606 574.889 1030.73 c 2,16,-1
 566.271 1034.4 l 1,17,-1
 558.316 1029.44 l 2,0,1
361.901 1159.19 m 1,18,-1
 428.864 1284.18 l 1,19,20
 605.398 1240.84 605.398 1240.84 723.104 1162.07 c 1,21,22
 882.141 1052.74 882.141 1052.74 979.707 876.4 c 1,23,24
 1078 702.704 1078 702.704 1087 517.754 c 0,25,26
 1099.63 263.693 1099.63 263.693 996.072 153.638 c 0,27,28
 866.263 16.918 866.263 16.918 594.251 17.958 c 1,29,30
 318.252 17.958 318.252 17.958 192.535 153.525 c 0,31,32
 62.7842 294.381 62.7842 294.381 90.4756 517.379 c 0,33,34
 112.886 695.866 112.886 695.866 202.562 848.477 c 0,35,36
 310.611 1032.35 310.611 1032.35 429.875 1125.57 c 2,37,-1
 436.899 1131.06 l 1,38,-1
 361.901 1159.19 l 1,18,-1
EndSplineSet
EndChar

StartChar: afii57398
Encoding: 1638 1638 94
Width: 1177
VWidth: 2181
GlyphClass: 2
Flags: W
LayerCount: 2
Fore
SplineSet
887.272 1358.75 m 1,0,1
 888.725 1053.76 888.725 1053.76 926.908 689.476 c 0,2,3
 957.165 400.473 957.165 400.473 1057.48 8.5 c 1,4,-1
 884.891 8.5 l 1,5,6
 797.13 347.691 797.13 347.691 764.782 693.033 c 0,7,8
 734.716 1012.95 734.716 1012.95 732.759 1153.61 c 2,9,-1
 732.429 1177.26 l 1,10,-1
 709.721 1170.64 l 2,11,12
 609.383 1141.4 609.383 1141.4 460.1 1141.4 c 0,13,14
 279.35 1141.4 279.35 1141.4 108.95 1190.38 c 1,15,-1
 108.95 1357.99 l 1,16,17
 292.058 1310 292.058 1310 460.1 1310 c 0,18,19
 674.898 1310 674.898 1310 887.272 1358.75 c 1,0,1
EndSplineSet
EndChar

StartChar: afii57399
Encoding: 1639 1639 95
Width: 1177
VWidth: 2181
GlyphClass: 2
Flags: W
LayerCount: 2
Fore
SplineSet
508.918 8.5 m 1,0,1
 488.396 268.027 488.396 268.027 386.335 595.058 c 0,2,3
 224.873 1112.94 224.873 1112.94 94.2314 1363.5 c 1,4,-1
 262.747 1363.5 l 1,5,6
 423.469 1037.6 423.469 1037.6 517.692 707.806 c 0,7,8
 568.812 528.885 568.812 528.885 570.791 518.001 c 2,9,-1
 588.5 420.575 l 1,10,-1
 606.209 518 l 2,11,12
 608.188 528.878 608.188 528.878 659.308 707.806 c 0,13,14
 753.547 1037.65 753.547 1037.65 914.253 1363.5 c 1,15,-1
 1082.62 1363.5 l 1,16,17
 914.045 1046.46 914.045 1046.46 790.49 594.46 c 0,18,19
 702.005 271.711 702.005 271.711 668.877 8.5 c 1,20,-1
 508.918 8.5 l 1,0,1
EndSplineSet
EndChar

StartChar: afii57400
Encoding: 1640 1640 96
Width: 1177
VWidth: 2181
GlyphClass: 2
Flags: W
LayerCount: 2
Fore
SplineSet
508.918 1363.5 m 1,0,-1
 668.877 1363.5 l 1,1,2
 702.004 1100.3 702.004 1100.3 790.487 777.554 c 0,3,4
 914.04 325.555 914.04 325.555 1082.62 8.5 c 1,5,-1
 914.253 8.5 l 1,6,7
 753.544 334.356 753.544 334.356 659.308 664.194 c 0,8,9
 608.189 843.115 608.189 843.115 606.209 853.999 c 2,10,-1
 588.5 951.424 l 1,11,-1
 570.791 854 l 2,12,13
 568.813 843.123 568.813 843.123 517.692 664.194 c 0,14,15
 423.456 334.355 423.456 334.355 262.747 8.5 c 1,16,-1
 94.2314 8.5 l 1,17,18
 224.863 259.033 224.863 259.033 386.334 776.938 c 0,19,20
 488.397 1103.98 488.397 1103.98 508.918 1363.5 c 1,0,-1
EndSplineSet
EndChar

StartChar: afii57401
Encoding: 1641 1641 97
Width: 1177
VWidth: 2181
GlyphClass: 2
Flags: W
LayerCount: 2
Fore
SplineSet
752.21 647.29 m 2,0,1
 554.958 647.29 554.958 647.29 471.291 665.898 c 0,2,3
 289.641 706.691 289.641 706.691 211.67 792.709 c 0,4,5
 125 888.322 125 888.322 125 1001.65 c 0,6,7
 125 1153.27 125 1153.27 219.468 1247.81 c 0,8,9
 348.76 1378.2 348.76 1378.2 499.69 1377.2 c 0,10,11
 680.926 1377.2 680.926 1377.2 764.24 1296.87 c 0,12,13
 883.019 1181.33 883.019 1181.33 896.898 994.971 c 0,14,15
 907.619 850.206 907.619 850.206 926.939 689.196 c 0,16,17
 965.434 369.737 965.434 369.737 1057.49 8.5 c 1,18,-1
 885.445 8.5 l 1,19,20
 791.051 437.602 791.051 437.602 770.106 631.226 c 2,21,-1
 768.368 647.29 l 1,22,-1
 752.21 647.29 l 2,0,1
744.53 804.96 m 1,23,-1
 744.53 916.05 l 2,24,25
 744.53 1044.6 744.53 1044.6 696.992 1109.42 c 1,26,27
 619.237 1218.62 619.237 1218.62 505.04 1217.6 c 0,28,29
 413.247 1217.6 413.247 1217.6 347.025 1153.71 c 0,30,31
 281.6 1090.63 281.6 1090.63 281.6 1007 c 0,32,33
 281.6 937.123 281.6 937.123 352.984 876.653 c 1,34,35
 394.433 843.488 394.433 843.488 477.309 823.646 c 0,36,37
 555.35 804.96 555.35 804.96 726.53 804.96 c 2,38,-1
 744.53 804.96 l 1,23,-1
EndSplineSet
EndChar

StartChar: afii57381
Encoding: 1642 1642 98
Width: 1177
VWidth: 2186
GlyphClass: 2
Flags: W
LayerCount: 2
Fore
SplineSet
839.04 250 m 1,0,-1
 1005.64 250 l 1,1,-1
 1005.64 8.5 l 1,2,-1
 839.04 8.5 l 1,3,-1
 839.04 250 l 1,0,-1
170.29 1373.5 m 1,4,-1
 336.89 1373.5 l 1,5,-1
 336.89 1132 l 1,6,-1
 170.29 1132 l 1,7,-1
 170.29 1373.5 l 1,4,-1
871.394 1373.5 m 1,8,-1
 1013.31 1373.5 l 1,9,-1
 305.606 8.5 l 1,10,-1
 163.693 8.5 l 1,11,-1
 871.394 1373.5 l 1,8,-1
EndSplineSet
EndChar

StartChar: uni066B
Encoding: 1643 1643 99
Width: 711
VWidth: 2186
GlyphClass: 2
Flags: W
LayerCount: 2
Fore
SplineSet
443.218 502.139 m 1,0,-1
 568.799 501.203 l 1,1,2
 342.799 113.203 342.799 113.203 130 -230.265 c 1,3,-1
 1.59766 -228.502 l 1,4,5
 94.7988 -78.7969 94.7988 -78.7969 443.218 502.139 c 1,0,-1
EndSplineSet
EndChar

StartChar: uni066C
Encoding: 1644 1644 100
Width: 696
VWidth: 2186
GlyphClass: 2
Flags: W
LayerCount: 2
Fore
SplineSet
291.2 1580.01 m 1,0,-1
 490.97 1580.01 l 1,1,-1
 490.97 1433.52 l 1,2,-1
 320.557 1102.04 l 1,3,-1
 207.225 1102.04 l 1,4,-1
 291.2 1428.73 l 1,5,-1
 291.2 1580.01 l 1,0,-1
EndSplineSet
EndChar

StartChar: afii63167
Encoding: 1645 1645 101
Width: 1194
VWidth: 2186
GlyphClass: 2
Flags: W
LayerCount: 2
Fore
SplineSet
132.901 794.63 m 1,0,-1
 486.633 794.63 l 1,1,-1
 597.061 1130.84 l 1,2,-1
 707.487 794.63 l 1,3,-1
 1061.22 794.63 l 1,4,-1
 775.453 585.725 l 1,5,-1
 884.797 249.809 l 1,6,-1
 597.061 457.729 l 1,7,-1
 309.323 249.809 l 1,8,-1
 418.667 585.725 l 1,9,-1
 132.901 794.63 l 1,0,-1
EndSplineSet
EndChar

StartChar: uni066E
Encoding: 1646 1646 102
Width: 1755
VWidth: 2181
GlyphClass: 2
Flags: W
AnchorPoint: "Anchor-10" 763.22 1051.5 basechar 0
AnchorPoint: "Anchor-7" 763.22 -179 basechar 0
LayerCount: 2
Fore
SplineSet
960.463 0.982422 m 0,0,1
 517.489 1.42383 517.489 1.42383 425.779 31.3779 c 0,2,3
 125.525 128.509 125.525 128.509 96.376 450.233 c 0,4,5
 86.2451 558.573 86.2451 558.573 127.76 702.758 c 1,6,-1
 256.475 668.796 l 1,7,8
 230.52 526.926 230.52 526.926 233.538 475.238 c 0,9,10
 247.537 235.538 247.537 235.538 561.779 183.378 c 0,11,12
 646.064 169.509 646.064 169.509 875.097 171.017 c 16,13,14
 1057.65 172.219 1057.65 172.219 1066.36 173 c 0,15,16
 1470.12 211.045 1470.12 211.045 1487.54 352.432 c 4,17,18
 1495.63 416.847 1495.63 416.847 1491.1 467.607 c 0,19,20
 1465.52 715.337 1465.52 715.337 1447.1 753.607 c 1,21,-1
 1606.1 834.607 l 1,22,23
 1632.69 725.259 1632.69 725.259 1645.1 594.607 c 0,24,25
 1673.1 318.608 1673.1 318.608 1636.36 247 c 0,26,27
 1509.65 0.00138779 1509.65 0.00138779 960.463 0.982422 c 0,0,1
EndSplineSet
Substitution2: "'init' Initial Forms in Arabic lookup 13 subtable" uni066E.init
Substitution2: "'medi' Medial Forms in Arabic lookup 11 subtable" uni066E.medi
Substitution2: "'fina' Terminal Forms in Arabic lookup 9 subtable" uni066E.fina
EndChar

StartChar: uni066F
Encoding: 1647 1647 103
Width: 1494
VWidth: 2181
GlyphClass: 2
Flags: W
AnchorPoint: "Anchor-10" 315 1045.5 basechar 0
AnchorPoint: "Anchor-7" 472 -540 basechar 0
LayerCount: 2
Fore
SplineSet
1105.75 736.839 m 4,0,1
 981.096 734.055 981.096 734.055 929.885 584.307 c 4,2,3
 857.654 375.64 857.654 375.64 1082.99 360.703 c 4,4,5
 1157.62 355.703 1157.62 355.703 1268.2 383.406 c 5,6,7
 1269.21 495.719 1269.21 495.719 1252.47 577.211 c 4,8,9
 1219.97 739.397 1219.97 739.397 1105.75 736.839 c 4,0,1
1409.99 223.703 m 5,10,-1
 1409.7 219.01 l 6,11,12
 1393.62 -41.2109 1393.62 -41.2109 1218.69 -204.797 c 4,13,14
 1058.79 -354.332 1058.79 -354.332 770.853 -359.746 c 4,15,16
 401.088 -366.698 401.088 -366.698 243.308 -209.771 c 4,17,18
 87.4707 -54.0342 87.4707 -54.0342 90.8516 209.57 c 4,19,20
 93.6543 415.512 93.6543 415.512 186.879 607.197 c 5,21,-1
 340.438 569.18 l 5,22,23
 254.89 344.965 254.89 344.965 255.783 208.082 c 4,24,25
 258.713 -219.56 258.713 -219.56 759.479 -207.855 c 4,26,27
 1044.87 -201.223 1044.87 -201.223 1156.32 -59.2676 c 4,28,29
 1258.11 70.3623 1258.11 70.3623 1259.98 224.646 c 5,30,31
 1166.56 207.836 1166.56 207.836 1091.99 207.703 c 4,32,33
 920.8 207.479 920.8 207.479 842 295.703 c 4,34,35
 762.48 384.733 762.48 384.733 781.521 524.526 c 4,36,37
 803.258 698.983 803.258 698.983 908.172 800.639 c 4,38,39
 1006.63 896.041 1006.63 896.041 1121.04 889.026 c 4,40,41
 1276.95 879.682 1276.95 879.682 1346.89 737.771 c 4,42,43
 1401.54 626.888 1401.54 626.888 1408.92 479.571 c 4,44,45
 1416.87 312.732 1416.87 312.732 1409.99 223.703 c 5,10,-1
EndSplineSet
Substitution2: "'init' Initial Forms in Arabic lookup 13 subtable" uni066F.init
Substitution2: "'medi' Medial Forms in Arabic lookup 11 subtable" uni066F.medi
Substitution2: "'fina' Terminal Forms in Arabic lookup 9 subtable" uni066F.fina
EndChar

StartChar: uni0670
Encoding: 1648 1648 104
Width: 0
VWidth: 2186
GlyphClass: 4
Flags: W
AnchorPoint: "Anchor-10" 547.84 1279.5 mark 0
AnchorPoint: "Anchor-9" 547.84 1279.5 mark 0
AnchorPoint: "Anchor-1" 547.84 1975 basemark 0
AnchorPoint: "Anchor-1" 547.84 1279.5 mark 0
LayerCount: 2
Fore
SplineSet
501.99 1327.81 m 1,0,-1
 501.99 1926.69 l 1,1,-1
 593.69 1926.69 l 1,2,-1
 593.69 1327.81 l 1,3,-1
 501.99 1327.81 l 1,0,-1
EndSplineSet
EndChar

StartChar: uni0674
Encoding: 1652 1652 105
Width: 639
VWidth: 2186
GlyphClass: 2
Flags: W
LayerCount: 2
Fore
SplineSet
143.54 1515.26 m 1,0,-1
 254.306 1540.82 l 1,1,-1
 219.379 1556.7 l 2,2,3
 176.794 1576.05 176.794 1576.05 161.706 1610 c 0,4,5
 145.68 1647.06 145.68 1647.06 145.68 1692.52 c 0,6,7
 145.68 1788.83 145.68 1788.83 200.568 1830.98 c 0,8,9
 259.108 1876.4 259.108 1876.4 353.1 1876.4 c 0,10,11
 411.842 1876.4 411.842 1876.4 462.08 1846.81 c 1,12,-1
 462.08 1769.8 l 1,13,14
 412.732 1795.4 412.732 1795.4 353.1 1795.4 c 0,15,16
 276.875 1795.4 276.875 1795.4 254.747 1771.97 c 0,17,18
 220.26 1733.92 220.26 1733.92 220.26 1701.08 c 0,19,20
 220.26 1608.9 220.26 1608.9 330.161 1577.33 c 0,21,22
 366.368 1566.36 366.368 1566.36 484.55 1593.69 c 1,23,-1
 484.55 1511.4 l 1,24,-1
 143.54 1434.84 l 1,25,-1
 143.54 1515.26 l 1,0,-1
EndSplineSet
EndChar

StartChar: uni06A1
Encoding: 1697 1697 109
Width: 1754
VWidth: 2181
GlyphClass: 2
Flags: W
AnchorPoint: "Anchor-10" 511.55 1225.28 basechar 0
AnchorPoint: "Anchor-7" 618.55 -152.88 basechar 0
LayerCount: 2
Fore
SplineSet
1345.16 863.902 m 0,0,1
 1226.03 860.494 1226.03 860.494 1185.59 699.372 c 0,2,3
 1145.67 538.499 1145.67 538.499 1285.22 514.918 c 0,4,5
 1426.37 490.449 1426.37 490.449 1521.48 563.961 c 1,6,7
 1528.75 588.236 1528.75 588.236 1511.41 682.082 c 0,8,9
 1476.62 867.719 1476.62 867.719 1345.16 863.902 c 0,0,1
1654.34 638.291 m 0,10,11
 1675.6 463.563 1675.6 463.563 1640.34 318.291 c 0,12,13
 1592.12 120.112 1592.12 120.112 1364.14 46.4951 c 0,14,15
 1211.13 -2.91211 1211.13 -2.91211 868.434 -1.30859 c 0,16,17
 515.202 0.648438 515.202 0.648438 420.779 31.3779 c 0,18,19
 120.525 128.509 120.525 128.509 91.376 450.233 c 0,20,21
 81.2451 558.573 81.2451 558.573 122.76 702.758 c 1,22,-1
 251.475 668.796 l 1,23,24
 225.52 526.926 225.52 526.926 228.538 475.238 c 0,25,26
 242.987 227.82 242.987 227.82 556.779 183.378 c 0,27,28
 583.55 179.586 583.55 179.586 800.097 171.017 c 16,29,30
 1136.08 158.456 1136.08 158.456 1333.71 218.174 c 0,31,32
 1483.11 263.32 1483.11 263.32 1511.39 401.816 c 2,33,-1
 1514.94 419.196 l 1,34,35
 1461.31 368.759 1461.31 368.759 1318.14 366.139 c 0,36,37
 1156.12 363.271 1156.12 363.271 1089.66 456.648 c 0,38,39
 1029.34 539.532 1029.34 539.532 1044.34 666.291 c 4,40,41
 1063.61 833.429 1063.61 833.429 1151.82 926.033 c 0,42,43
 1264.25 1044.06 1264.25 1044.06 1410.08 1013.38 c 0,44,45
 1514.69 991.379 1514.69 991.379 1577.37 884.09 c 0,46,47
 1638 780.3 1638 780.3 1654.34 638.291 c 0,10,11
EndSplineSet
Substitution2: "'init' Initial Forms in Arabic lookup 13 subtable" uni06A1.init
Substitution2: "'medi' Medial Forms in Arabic lookup 11 subtable" uni06A1.medi
Substitution2: "'fina' Terminal Forms in Arabic lookup 9 subtable" uni06A1.fina
EndChar

StartChar: uni06A9
Encoding: 1705 1705 110
Width: 1752
VWidth: 2181
GlyphClass: 2
Flags: W
AnchorPoint: "Anchor-10" 369 1202.34 basechar 0
AnchorPoint: "Anchor-7" 780 -195.68 basechar 0
LayerCount: 2
Fore
SplineSet
1089.04 0 m 1,0,-1
 747.279 0 l 0,1,2
 517.411 0.441406 517.411 0.441406 421.779 31.3779 c 0,3,4
 121.525 128.509 121.525 128.509 92.376 450.233 c 0,5,6
 82.2451 558.573 82.2451 558.573 123.76 702.758 c 1,7,-1
 252.475 668.796 l 1,8,9
 226.52 526.926 226.52 526.926 229.538 475.238 c 0,10,11
 243.793 231.141 243.793 231.141 557.779 183.378 c 0,12,13
 634.162 171.572 634.162 171.572 801.097 171.017 c 16,14,-1
 1056.75 169.004 l 1,15,-1
 1191.21 169.004 l 2,16,17
 1473.46 169.004 1473.46 169.004 1496.72 317.826 c 0,18,19
 1517.82 452.879 1517.82 452.879 1392.93 545.562 c 2,20,-1
 1032.26 813.224 l 2,21,22
 963.02 864.604 963.02 864.604 956.347 942.462 c 0,23,24
 944.796 1077.21 944.796 1077.21 1058.5 1134.92 c 2,25,-1
 1705.09 1463.09 l 1,26,-1
 1705.09 1297.42 l 1,27,-1
 1097.57 979.907 l 1,28,-1
 1104.72 974.626 l 2,29,30
 1320.47 815.225 1320.47 815.225 1521.13 649.002 c 1,31,32
 1669.08 524.118 1669.08 524.118 1643.79 276.723 c 0,33,34
 1629.73 141.869 1629.73 141.869 1522.57 71.1729 c 0,35,36
 1414.69 0 1414.69 0 1232.54 0 c 2,37,-1
 1089.04 0 l 1,0,-1
EndSplineSet
Substitution2: "'init' Initial Forms in Arabic lookup 13 subtable" uniFB90
Substitution2: "'medi' Medial Forms in Arabic lookup 11 subtable" uniFB91
Substitution2: "'fina' Terminal Forms in Arabic lookup 9 subtable" uniFB8F
EndChar

StartChar: afii57514
Encoding: 1722 1722 112
Width: 1297
VWidth: 2186
GlyphClass: 2
Flags: W
AnchorPoint: "Anchor-10" 558.734 1052.15 basechar 0
AnchorPoint: "Anchor-7" 504.58 -489.02 basechar 0
LayerCount: 2
Fore
SplineSet
1206 319.771 m 4,0,1
 1199.49 -242.473 1199.49 -242.473 671 -252 c 4,2,3
 120.1 -261.931 120.1 -261.931 91.1924 227.314 c 4,4,5
 86.7998 301.6 86.7998 301.6 107.074 406.097 c 4,6,7
 128.291 515.447 128.291 515.447 175.414 615.197 c 5,8,-1
 310.225 563.154 l 5,9,10
 223.604 352.398 223.604 352.398 241.705 215.616 c 4,11,12
 285.149 -106.503 285.149 -106.503 641.907 -103.861 c 4,13,14
 1042.91 -100.893 1042.91 -100.893 1059.99 268.115 c 4,15,16
 1067.81 437.067 1067.81 437.067 954.657 593.613 c 5,17,-1
 1089.41 722.364 l 5,18,19
 1208.04 509.022 1208.04 509.022 1206 319.771 c 4,0,1
EndSplineSet
Substitution2: "'init' Initial Forms in Arabic lookup 13 subtable" uni06BA.init
Substitution2: "'medi' Medial Forms in Arabic lookup 11 subtable" uni06BA.medi
Substitution2: "'fina' Terminal Forms in Arabic lookup 9 subtable" uniFB9F
EndChar

StartChar: uni06F4
Encoding: 1780 1780 119
Width: 1177
VWidth: 2181
GlyphClass: 2
Flags: W
LayerCount: 2
Fore
SplineSet
373.954 1113.08 m 2,0,-1
 390.401 1062.09 l 1,1,-1
 408.076 1112.66 l 2,2,3
 478.894 1315.24 478.894 1315.24 618.676 1355.98 c 0,4,5
 765.032 1398.51 765.032 1398.51 957.84 1358.41 c 1,6,-1
 957.84 1228.77 l 1,7,8
 918.031 1240 918.031 1240 834.188 1250.63 c 0,9,10
 670.066 1271.43 670.066 1271.43 585.823 1185.46 c 0,11,12
 476.05 1074.15 476.05 1074.15 544.819 961.178 c 0,13,14
 595.149 880.1 595.149 880.1 791.244 879.86 c 0,15,16
 845.03 879.811 845.03 879.811 1015.41 904.857 c 1,17,-1
 1017.51 769.148 l 1,18,19
 823.321 743.59 823.321 743.59 761.84 743.59 c 0,20,21
 592.262 743.59 592.262 743.59 489.921 812.229 c 2,22,-1
 442.074 844.321 l 1,23,-1
 463.142 790.697 l 2,24,25
 474.179 762.604 474.179 762.604 487.25 677.905 c 0,26,27
 524.821 434.472 524.821 434.472 521.441 8.5 c 1,28,-1
 364.664 8.5 l 1,29,30
 363.881 451.524 363.881 451.524 324.84 683.643 c 0,31,32
 273.827 984.481 273.827 984.481 114.896 1363.5 c 1,33,-1
 287.91 1363.5 l 1,34,35
 353.356 1176.93 353.356 1176.93 373.954 1113.08 c 2,0,-1
EndSplineSet
EndChar

StartChar: uni06F5
Encoding: 1781 1781 120
Width: 1177
VWidth: 2181
GlyphClass: 2
Flags: W
LayerCount: 2
Fore
SplineSet
650.175 306.278 m 1,0,1
 683.285 180.89 683.285 180.89 806.149 184.39 c 0,2,3
 846.106 185.344 846.106 185.344 875.592 195.619 c 0,4,5
 1008.22 241.844 1008.22 241.844 928.052 470.974 c 0,6,7
 809.35 808.062 809.35 808.062 592.071 1078.04 c 2,8,-1
 588.03 1083.05 l 1,9,-1
 584.172 1077.89 l 2,10,11
 362.406 781.288 362.406 781.288 259.962 465.662 c 0,12,13
 234.372 386.273 234.372 386.273 234.327 330.016 c 0,14,15
 234.212 187.945 234.212 187.945 395.245 187.945 c 0,16,17
 500.421 187.945 500.421 187.945 541.963 306.277 c 1,18,-1
 650.175 306.278 l 1,0,1
366.971 8.36426 m 0,19,20
 94.3955 8.36426 94.3955 8.36426 80 279 c 0,21,22
 60.8672 638.697 60.8672 638.697 548.267 1270.45 c 0,23,24
 556.375 1280.96 556.375 1280.96 564.476 1287.61 c 0,25,26
 599.508 1316.38 599.508 1316.38 637.045 1270.34 c 0,27,28
 1134.58 660.177 1134.58 660.177 1097 283 c 0,29,30
 1070.27 13.5996 1070.27 13.5996 819.699 8.86426 c 0,31,32
 649.851 5.41797 649.851 5.41797 596.155 154.498 c 2,33,-1
 591.455 167.547 l 1,34,-1
 586.748 154.501 l 2,35,36
 534.018 8.36621 534.018 8.36621 366.971 8.36426 c 0,19,20
EndSplineSet
EndChar

StartChar: uni06F6
Encoding: 1782 1782 121
Width: 1177
VWidth: 2181
GlyphClass: 2
Flags: W
LayerCount: 2
Fore
SplineSet
245.846 8.5 m 1,0,1
 314.002 264.626 314.002 264.626 426.229 447.617 c 0,2,3
 497.486 563.939 497.486 563.939 602.297 653.025 c 2,4,-1
 639.608 684.74 l 1,5,-1
 590.64 684.74 l 2,6,7
 513.519 684.74 513.519 684.74 469.318 720.294 c 0,8,9
 332.58 831.523 332.58 831.523 332.58 984.53 c 0,10,11
 332.58 1163.2 332.58 1163.2 432.111 1261.72 c 0,12,13
 546.677 1375.27 546.677 1375.27 689.08 1375.27 c 0,14,15
 805.562 1375.27 805.562 1375.27 893.64 1347.17 c 1,16,-1
 893.64 1197.52 l 1,17,18
 805.661 1240.07 805.661 1240.07 695.5 1240.07 c 0,19,20
 621.822 1240.07 621.822 1240.07 565.17 1184.6 c 0,21,22
 489.18 1109.77 489.18 1109.77 489.18 997.37 c 0,23,24
 489.18 907.122 489.18 907.122 553.76 847.241 c 0,25,26
 606.027 798.54 606.027 798.54 723.32 798.54 c 0,27,28
 858.563 798.54 858.563 798.54 957.84 834.021 c 1,29,-1
 957.84 680.81 l 1,30,31
 720.512 600.258 720.512 600.258 600.728 437.694 c 0,32,33
 459.657 245.049 459.657 245.049 400.99 8.5 c 1,34,-1
 245.846 8.5 l 1,0,1
EndSplineSet
EndChar

StartChar: uniFB8F
Encoding: 64399 64399 136
Width: 1893
VWidth: 2181
GlyphClass: 2
Flags: W
AnchorPoint: "Anchor-10" 450 1174.5 basechar 0
AnchorPoint: "Anchor-7" 607 -170 basechar 0
LayerCount: 2
Fore
SplineSet
800.403 0.5 m 1,0,1
 516.146 0.441406 516.146 0.441406 420.779 31.3779 c 0,2,3
 120.525 128.509 120.525 128.509 91.376 450.233 c 0,4,5
 81.2451 558.573 81.2451 558.573 122.76 702.758 c 1,6,-1
 251.475 668.796 l 1,7,8
 225.52 526.926 225.52 526.926 228.538 475.238 c 0,9,10
 242.793 231.14 242.793 231.14 556.779 183.378 c 0,11,12
 633.766 171.572 633.766 171.572 800.403 169.48 c 17,13,-1
 1140.68 169.63 l 2,14,15
 1320.27 169.709 1320.27 169.709 1344.68 283.63 c 0,16,17
 1366.3 388.767 1366.3 388.767 1280.68 475.63 c 2,18,19
 1021.72 738.35 l 2,20,21
 955.381 805.652 955.381 805.652 952.319 880.844 c 0,22,23
 946.565 1022.77 946.565 1022.77 1084.38 1093.38 c 2,24,-1
 1737.05 1427.76 l 5,25,-1
 1737.05 1260.94 l 5,26,-1
 1077.71 909.527 l 1,27,28
 1740.14 169.357 1740.14 169.357 1883.53 169.791 c 2,29,-1
 1912.95 169.88 l 1,30,-1
 1912.95 1 l 1,31,-1
 1860.21 1 l 2,32,33
 1685.18 1 1685.18 1 1470.68 286.63 c 1,34,35
 1444.4 0.5 1444.4 0.5 1038.68 0.5 c 2,36,-1
 800.403 0.5 l 1,0,1
EndSplineSet
EndChar

StartChar: uniFB9F
Encoding: 64415 64415 144
Width: 1428
VWidth: 2186
GlyphClass: 2
Flags: W
AnchorPoint: "Anchor-10" 361.092 711.45 basechar 0
AnchorPoint: "Anchor-7" 266.712 -701.104 basechar 0
LayerCount: 2
Fore
SplineSet
1216.64 74.0156 m 5,0,1
 1212.12 -482.932 1212.12 -482.932 655.25 -488.25 c 4,2,3
 114.253 -495.181 114.253 -495.181 84.3916 9.85449 c 4,4,5
 79.9453 85.0518 79.9453 85.0518 100.469 190.831 c 4,6,7
 121.946 301.524 121.946 301.524 169.646 402.498 c 5,8,-1
 313.845 352.996 l 5,9,10
 225.274 137.498 225.274 137.498 243.783 -2.3623 c 4,11,12
 287.15 -330.066 287.15 -330.066 649.923 -331.072 c 4,13,14
 1038.41 -332.133 1038.41 -332.133 1078.12 0 c 4,15,16
 1105.03 215.263 1105.03 215.263 972.776 384.141 c 5,17,-1
 1106 510.98 l 5,18,19
 1140.7 429.423 1140.7 429.423 1198.4 286.691 c 13,20,21
 1241.09 169.38 1241.09 169.38 1369.28 169.38 c 6,22,-1
 1448.53 169.38 l 5,23,-1
 1448.53 0.5 l 5,24,-1
 1350.43 0.5 l 6,25,26
 1264.4 0.5 1264.4 0.5 1216.64 74.0156 c 5,0,1
EndSplineSet
EndChar

StartChar: uniFBE8
Encoding: 64488 64488 147
Width: 558
VWidth: 2186
GlyphClass: 2
Flags: W
AnchorPoint: "Anchor-10" 252.93 1016.5 basechar 0
AnchorPoint: "Anchor-7" 284.93 -112.5 basechar 0
LayerCount: 2
Fore
SplineSet
406.12 80.1006 m 4,0,1
 312.558 0 312.558 0 61.9004 0 c 6,2,-1
 -40.4004 0 l 5,3,-1
 -40.4004 168.98 l 5,4,-1
 70.0498 168.98 l 6,5,6
 163.686 168.98 163.686 168.98 197.12 173.28 c 4,7,8
 301.573 188.691 301.573 188.691 323.12 255.28 c 4,9,10
 343.499 319.302 343.499 319.302 328.987 483.436 c 4,11,12
 319.571 591.016 319.571 591.016 297.223 681.193 c 5,13,-1
 443.719 712.201 l 5,14,15
 473.661 622.982 473.661 622.982 481.012 486.354 c 4,16,17
 498.136 159.966 498.136 159.966 406.12 80.1006 c 4,0,1
EndSplineSet
EndChar

StartChar: uniFBE9
Encoding: 64489 64489 148
Width: 757
VWidth: 2181
GlyphClass: 2
Flags: W
AnchorPoint: "Anchor-10" 326.93 964.5 basechar 0
AnchorPoint: "Anchor-7" 308.93 -120.5 basechar 0
LayerCount: 2
Fore
SplineSet
351.94 94.9971 m 2,0,1
 266.863 2.12677e-06 266.863 2.12677e-06 119.9 0 c 2,2,-1
 -20.4004 0 l 5,3,-1
 -20.4004 168.98 l 5,4,-1
 73.0498 168.98 l 2,5,6
 188.426 168.979 188.426 168.979 234.704 214.946 c 0,7,8
 289.886 269.761 289.886 269.761 291.462 342.783 c 2,9,-1
 295.988 552.5 l 1,10,-1
 434.871 576.5 l 1,11,-1
 443.397 342.783 l 2,12,13
 446.209 265.697 446.209 265.697 504.386 214.733 c 0,14,15
 556.615 168.979 556.615 168.979 692.811 168.98 c 2,16,-1
 777.66 168.98 l 1,17,-1
 777.66 0 l 1,18,-1
 633.96 0 l 2,19,20
 465.196 -2.93985e-06 465.196 -2.93985e-06 378.188 94.6973 c 2,21,-1
 364.76 109.312 l 1,22,-1
 351.94 94.9971 l 2,0,1
EndSplineSet
EndChar

StartChar: uniFE73
Encoding: 65139 65139 156
Width: 573
VWidth: 2186
GlyphClass: 2
Flags: W
AnchorPoint: "Anchor-10" 210.79 1279.5 basechar 0
AnchorPoint: "Anchor-7" 210.79 -111.5 basechar 0
LayerCount: 2
Fore
SplineSet
296.23 350.74 m 2,0,1
 296.23 286.506 296.23 286.506 352.468 230.268 c 0,2,3
 403.354 179.38 403.354 179.38 514.67 179.38 c 2,4,-1
 581.92 179.38 l 1,5,-1
 581.92 8.5 l 1,6,-1
 455.82 8.5 l 2,7,8
 309.266 8.5 309.266 8.5 214.633 103.133 c 0,9,10
 125.35 192.415 125.35 192.415 125.35 337.9 c 2,11,-1
 125.35 370.91 l 1,12,-1
 296.23 370.91 l 1,13,-1
 296.23 350.74 l 2,0,1
EndSplineSet
EndChar

StartChar: uniFE8E
Encoding: 65166 65166 182
Width: 621
VWidth: 2181
GlyphClass: 2
Flags: W
AnchorPoint: "Anchor-10" 267.95 1500 basechar 0
AnchorPoint: "Anchor-7" 249.95 -116.5 basechar 0
LayerCount: 2
Fore
SplineSet
185.51 403.94 m 6,0,-1
 185.51 1321.03 l 5,1,-1
 342.39 1390.03 l 5,2,-1
 302.39 416.78 l 6,3,4
 298.755 328.343 298.755 328.343 331.381 267.047 c 4,5,6
 383.583 168.98 383.583 168.98 565.83 168.98 c 6,7,-1
 628.08 168.98 l 5,8,-1
 628.08 0 l 5,9,-1
 545.98 0 l 6,10,11
 339.784 0 339.784 0 230.443 156.294 c 4,12,13
 185.51 220.522 185.51 220.522 185.51 403.94 c 6,0,-1
EndSplineSet
EndChar

StartChar: uniFEA2
Encoding: 65186 65186 202
Width: 1435
VWidth: 2181
GlyphClass: 2
Flags: W
AnchorPoint: "Anchor-10" 680.5 1133.5 basechar 0
AnchorPoint: "Anchor-7" 553.84 -818.64 basechar 0
LayerCount: 2
Fore
SplineSet
1171.38 706.73 m 1,0,-1
 1147.12 561.977 l 1,1,2
 1061.21 549.003 1061.21 549.003 983.515 532.219 c 1,3,4
 1041.51 169.38 1041.51 169.38 1372.13 169.38 c 2,5,-1
 1457.94 169.38 l 1,6,-1
 1457.94 0.5 l 1,7,-1
 1362.51 0.5 l 2,8,9
 915.515 0.5 915.515 0.5 832.515 493.7 c 1,10,11
 316.222 341.915 316.222 341.915 260.195 23.7881 c 0,12,13
 221.649 -191.471 221.649 -191.471 338 -324 c 0,14,15
 494.647 -503.898 494.647 -503.898 876 -444 c 0,16,17
 1046.56 -417.21 1046.56 -417.21 1251.51 -295 c 1,18,-1
 1309.51 -450 l 1,19,20
 1232.99 -507.396 1232.99 -507.396 1045.51 -558 c 0,21,22
 660.498 -662.072 660.498 -662.072 357 -533 c 0,23,24
 86.877 -418.076 86.877 -418.076 90 -69 c 0,25,26
 95.2666 422.757 95.2666 422.757 914.452 650.938 c 1,27,28
 850.17 655.755 850.17 655.755 784.452 674.633 c 0,29,30
 596.181 729.34 596.181 729.34 526.452 735.938 c 0,31,32
 378.493 749.938 378.493 749.938 241.377 573.127 c 1,33,-1
 137.377 653.127 l 1,34,35
 200.391 753.362 200.391 753.362 307.502 833.149 c 0,36,37
 400.721 901.578 400.721 901.578 530.452 880.938 c 0,38,39
 644.743 866.762 644.743 866.762 817.452 800.633 c 0,40,41
 993.079 741.183 993.079 741.183 1171.38 706.73 c 1,0,-1
EndSplineSet
EndChar

StartChar: uniFEA3
Encoding: 65187 65187 203
Width: 1256
VWidth: 2181
GlyphClass: 2
Flags: W
AnchorPoint: "Anchor-10" 457 1052.73 basechar 0
AnchorPoint: "Anchor-7" 656 -116.5 basechar 0
LayerCount: 2
Fore
SplineSet
662.854 89.4824 m 0,0,1
 502.017 -2.23984e-05 502.017 -2.23984e-05 132.255 0 c 2,2,-1
 -3.40039 0 l 1,3,-1
 -3.40039 168.98 l 1,4,-1
 103.6 168.98 l 2,5,6
 441.75 168.98 441.75 168.98 545.854 218.482 c 0,7,8
 847.247 361.797 847.247 361.797 974.854 398.482 c 1,9,10
 932.309 391.563 932.309 391.563 742.357 477.833 c 0,11,12
 536.22 571.453 536.22 571.453 496.114 577.396 c 0,13,14
 381.373 594.396 381.373 594.396 255.114 428.396 c 1,15,-1
 151.114 508.396 l 1,16,17
 241.559 636.498 241.559 636.498 299.114 679 c 0,18,19
 416.352 766.024 416.352 766.024 567.114 722.396 c 0,20,21
 657.102 696.354 657.102 696.354 892.357 568.833 c 0,22,23
 1016.45 501.568 1016.45 501.568 1233.11 489 c 1,24,-1
 1211.11 356.396 l 1,25,26
 1088.85 323.482 1088.85 323.482 662.854 89.4824 c 0,0,1
EndSplineSet
EndChar

StartChar: uniFEA4
Encoding: 65188 65188 204
Width: 1363
VWidth: 2181
GlyphClass: 2
Flags: W
AnchorPoint: "Anchor-10" 455 1072.69 basechar 0
AnchorPoint: "Anchor-7" 599 -116.5 basechar 0
LayerCount: 2
Fore
SplineSet
1009.5 271.545 m 1,0,1
 1022.66 169.881 1022.66 169.881 1322.32 169.88 c 2,2,-1
 1383.94 169.88 l 1,3,-1
 1383.94 0 l 1,4,-1
 1300.92 0 l 2,5,6
 951.502 0 951.502 0 886 209.128 c 1,7,8
 787.411 157.901 787.411 157.901 662.854 89.4824 c 0,9,10
 502.017 0 502.017 0 132.255 0 c 2,11,-1
 -20.4004 0 l 5,12,-1
 -20.4004 168.98 l 5,13,-1
 103.6 168.98 l 2,14,15
 441.747 168.979 441.747 168.979 545.854 218.482 c 0,16,17
 847.247 361.797 847.247 361.797 974.854 398.482 c 1,18,19
 932.309 391.563 932.309 391.563 742.357 477.833 c 0,20,21
 536.22 571.453 536.22 571.453 496.114 577.396 c 0,22,23
 381.373 594.396 381.373 594.396 255.114 428.396 c 1,24,-1
 151.114 508.396 l 1,25,26
 241.559 636.498 241.559 636.498 299.114 679 c 0,27,28
 416.352 766.024 416.352 766.024 567.114 722.396 c 0,29,30
 657.102 696.354 657.102 696.354 892.357 568.833 c 0,31,32
 1016.45 501.568 1016.45 501.568 1233.11 489 c 1,33,-1
 1211.11 356.396 l 1,34,35
 1149.22 339.735 1149.22 339.735 1009.5 271.545 c 1,0,1
EndSplineSet
EndChar

StartChar: uniFEAA
Encoding: 65194 65194 210
Width: 1100
VWidth: 2181
GlyphClass: 2
Flags: W
AnchorPoint: "Anchor-10" 552.99 1108.65 basechar 0
AnchorPoint: "Anchor-7" 435.5 -236 basechar 0
LayerCount: 2
Fore
SplineSet
645.586 453.671 m 2,0,-1
 481.101 832.132 l 1,1,-1
 630.976 895.83 l 1,2,3
 693.113 755.917 693.113 755.917 853.376 386.448 c 1,4,5
 935.381 200.356 935.381 200.356 1073.4 169.805 c 2,6,-1
 1075.32 169.38 l 1,7,-1
 1120.65 169.38 l 1,8,-1
 1120.65 0.5 l 1,9,-1
 1079.44 0.5 l 2,10,11
 920.39 0.5 920.39 0.5 829.875 121.808 c 1,12,13
 681.922 -41.6211 681.922 -41.6211 350.912 -24.7734 c 0,14,15
 174.065 -15.7725 174.065 -15.7725 80.1748 49.1123 c 1,16,-1
 80.1748 226.915 l 1,17,18
 227.514 145.177 227.514 145.177 368.412 140.632 c 0,19,20
 624.671 132.468 624.671 132.468 680.412 202.632 c 0,21,22
 723.878 257.345 723.878 257.345 703.372 312.46 c 0,23,24
 682.045 369.783 682.045 369.783 645.586 453.671 c 2,0,-1
EndSplineSet
EndChar

StartChar: uniFEAE
Encoding: 65198 65198 214
Width: 958
VWidth: 2186
GlyphClass: 2
Flags: W
AnchorPoint: "Anchor-10" 489 818 basechar 0
AnchorPoint: "Anchor-7" 461.925 -555.55 basechar 0
LayerCount: 2
Fore
SplineSet
519.601 462.5 m 1,0,-1
 656.6 561.2 l 1,1,2
 719.516 258.369 719.516 258.369 724.601 243.5 c 0,3,4
 750.085 168.978 750.085 168.978 927.84 168.98 c 2,5,-1
 978.6 168.98 l 5,6,-1
 978.6 0.000976562 l 5,7,8
 932.806 -0.00102541 932.806 -0.00102541 932.768 0.00878906 c 2,9,10
 775.1 0.0356653 775.1 0.0356653 733.601 51.5 c 1,11,12
 661.917 -502.302 661.917 -502.302 94.2334 -503.804 c 1,13,-1
 26.2334 -380.804 l 1,14,15
 543.115 -349.809 543.115 -349.809 590.101 66.4297 c 0,16,17
 601.613 168.416 601.613 168.416 519.601 462.5 c 1,0,-1
EndSplineSet
PairPos2: "'kern' Horizontal Kerning lookup 15-1" uniFB58 dx=70 dy=0 dh=70 dv=0 dx=0 dy=0 dh=0 dv=0
PairPos2: "'kern' Horizontal Kerning lookup 15-1" uniFEF3 dx=70 dy=0 dh=70 dv=0 dx=0 dy=0 dh=0 dv=0
PairPos2: "'kern' Horizontal Kerning lookup 15-1" uniFBFE dx=70 dy=0 dh=70 dv=0 dx=0 dy=0 dh=0 dv=0
PairPos2: "'kern' Horizontal Kerning lookup 15-1" uniFEDF dx=-70 dy=0 dh=-70 dv=0 dx=0 dy=0 dh=0 dv=0
PairPos2: "'kern' Horizontal Kerning lookup 15-1" uniFBAC dx=-70 dy=0 dh=-70 dv=0 dx=0 dy=0 dh=0 dv=0
PairPos2: "'kern' Horizontal Kerning lookup 15-1" uniFB90 dx=-70 dy=0 dh=-70 dv=0 dx=0 dy=0 dh=0 dv=0
PairPos2: "'kern' Horizontal Kerning lookup 15-1" uni06A9 dx=-70 dy=0 dh=-70 dv=0 dx=0 dy=0 dh=0 dv=0
PairPos2: "'kern' Horizontal Kerning lookup 15-1" uni0649 dx=-70 dy=0 dh=-70 dv=0 dx=0 dy=0 dh=0 dv=0
PairPos2: "'kern' Horizontal Kerning lookup 15-1" uni0647 dx=-70 dy=0 dh=-70 dv=0 dx=0 dy=0 dh=0 dv=0
PairPos2: "'kern' Horizontal Kerning lookup 15-1" uniFEE7 dx=-70 dy=0 dh=-70 dv=0 dx=0 dy=0 dh=0 dv=0
PairPos2: "'kern' Horizontal Kerning lookup 15-1" uniFEE3 dx=-70 dy=0 dh=-70 dv=0 dx=0 dy=0 dh=0 dv=0
PairPos2: "'kern' Horizontal Kerning lookup 15-1" uni0645 dx=-70 dy=0 dh=-70 dv=0 dx=0 dy=0 dh=0 dv=0
PairPos2: "'kern' Horizontal Kerning lookup 15-1" uniFEDB dx=-70 dy=0 dh=-70 dv=0 dx=0 dy=0 dh=0 dv=0
PairPos2: "'kern' Horizontal Kerning lookup 15-1" uniFED7 dx=-70 dy=0 dh=-70 dv=0 dx=0 dy=0 dh=0 dv=0
PairPos2: "'kern' Horizontal Kerning lookup 15-1" uniFED3 dx=-70 dy=0 dh=-70 dv=0 dx=0 dy=0 dh=0 dv=0
PairPos2: "'kern' Horizontal Kerning lookup 15-1" uni0641 dx=-70 dy=0 dh=-70 dv=0 dx=0 dy=0 dh=0 dv=0
PairPos2: "'kern' Horizontal Kerning lookup 15-1" uniFECF dx=-70 dy=0 dh=-70 dv=0 dx=0 dy=0 dh=0 dv=0
PairPos2: "'kern' Horizontal Kerning lookup 15-1" uniFECB dx=-70 dy=0 dh=-70 dv=0 dx=0 dy=0 dh=0 dv=0
PairPos2: "'kern' Horizontal Kerning lookup 15-1" uniFEC7 dx=-70 dy=0 dh=-70 dv=0 dx=0 dy=0 dh=0 dv=0
PairPos2: "'kern' Horizontal Kerning lookup 15-1" uni0638 dx=-70 dy=0 dh=-70 dv=0 dx=0 dy=0 dh=0 dv=0
PairPos2: "'kern' Horizontal Kerning lookup 15-1" uniFEC3 dx=-70 dy=0 dh=-70 dv=0 dx=0 dy=0 dh=0 dv=0
PairPos2: "'kern' Horizontal Kerning lookup 15-1" uni0637 dx=-70 dy=0 dh=-70 dv=0 dx=0 dy=0 dh=0 dv=0
PairPos2: "'kern' Horizontal Kerning lookup 15-1" uniFEBF dx=-70 dy=0 dh=-70 dv=0 dx=0 dy=0 dh=0 dv=0
PairPos2: "'kern' Horizontal Kerning lookup 15-1" uni0636 dx=-70 dy=0 dh=-70 dv=0 dx=0 dy=0 dh=0 dv=0
PairPos2: "'kern' Horizontal Kerning lookup 15-1" uniFEBB dx=-70 dy=0 dh=-70 dv=0 dx=0 dy=0 dh=0 dv=0
PairPos2: "'kern' Horizontal Kerning lookup 15-1" uni0635 dx=-70 dy=0 dh=-70 dv=0 dx=0 dy=0 dh=0 dv=0
PairPos2: "'kern' Horizontal Kerning lookup 15-1" uniFEB7 dx=-70 dy=0 dh=-70 dv=0 dx=0 dy=0 dh=0 dv=0
PairPos2: "'kern' Horizontal Kerning lookup 15-1" uni0634 dx=-70 dy=0 dh=-70 dv=0 dx=0 dy=0 dh=0 dv=0
PairPos2: "'kern' Horizontal Kerning lookup 15-1" uniFEB3 dx=-70 dy=0 dh=-70 dv=0 dx=0 dy=0 dh=0 dv=0
PairPos2: "'kern' Horizontal Kerning lookup 15-1" uni0633 dx=-70 dy=0 dh=-70 dv=0 dx=0 dy=0 dh=0 dv=0
PairPos2: "'kern' Horizontal Kerning lookup 15-1" uni0630 dx=-70 dy=0 dh=-70 dv=0 dx=0 dy=0 dh=0 dv=0
PairPos2: "'kern' Horizontal Kerning lookup 15-1" uni062F dx=-70 dy=0 dh=-70 dv=0 dx=0 dy=0 dh=0 dv=0
PairPos2: "'kern' Horizontal Kerning lookup 15-1" uniFEA7 dx=-70 dy=0 dh=-70 dv=0 dx=0 dy=0 dh=0 dv=0
PairPos2: "'kern' Horizontal Kerning lookup 15-1" uniFEA3 dx=-70 dy=0 dh=-70 dv=0 dx=0 dy=0 dh=0 dv=0
PairPos2: "'kern' Horizontal Kerning lookup 15-1" uniFE9F dx=-70 dy=0 dh=-70 dv=0 dx=0 dy=0 dh=0 dv=0
PairPos2: "'kern' Horizontal Kerning lookup 15-1" uniFE9B dx=-70 dy=0 dh=-70 dv=0 dx=0 dy=0 dh=0 dv=0
PairPos2: "'kern' Horizontal Kerning lookup 15-1" uni062B dx=-70 dy=0 dh=-70 dv=0 dx=0 dy=0 dh=0 dv=0
PairPos2: "'kern' Horizontal Kerning lookup 15-1" uniFE97 dx=-70 dy=0 dh=-70 dv=0 dx=0 dy=0 dh=0 dv=0
PairPos2: "'kern' Horizontal Kerning lookup 15-1" uni062A dx=-70 dy=0 dh=-70 dv=0 dx=0 dy=0 dh=0 dv=0
PairPos2: "'kern' Horizontal Kerning lookup 15-1" uni0629 dx=-70 dy=0 dh=-70 dv=0 dx=0 dy=0 dh=0 dv=0
PairPos2: "'kern' Horizontal Kerning lookup 15-1" uni0628 dx=-70 dy=0 dh=-70 dv=0 dx=0 dy=0 dh=0 dv=0
PairPos2: "'kern' Horizontal Kerning lookup 15-1" uni0627 dx=-70 dy=0 dh=-70 dv=0 dx=0 dy=0 dh=0 dv=0
PairPos2: "'kern' Horizontal Kerning lookup 15-1" uni0622 dx=-70 dy=0 dh=-70 dv=0 dx=0 dy=0 dh=0 dv=0
PairPos2: "'kern' Horizontal Kerning lookup 15-1" uniFB94 dx=-70 dy=0 dh=-70 dv=0 dx=0 dy=0 dh=0 dv=0
PairPos2: "'kern' Horizontal Kerning lookup 15-1" afii57509 dx=-70 dy=0 dh=-70 dv=0 dx=0 dy=0 dh=0 dv=0
PairPos2: "'kern' Horizontal Kerning lookup 15-1" uniFB56 dx=-70 dy=0 dh=-70 dv=0 dx=0 dy=0 dh=0 dv=0
PairPos2: "'kern' Horizontal Kerning lookup 15-1" afii57506 dx=-70 dy=0 dh=-70 dv=0 dx=0 dy=0 dh=0 dv=0
EndChar

StartChar: uniFEB2
Encoding: 65202 65202 218
Width: 2443
VWidth: 2186
GlyphClass: 2
Flags: W
AnchorPoint: "Anchor-10" 601 881.5 basechar 0
AnchorPoint: "Anchor-7" 436 -701.5 basechar 0
LayerCount: 2
Fore
SplineSet
1205.4 286.691 m 5,0,1
 1270.15 165.913 1270.15 165.913 1416.15 167.913 c 4,2,3
 1609.12 170.267 1609.12 170.267 1595.88 533.65 c 5,4,-1
 1729.32 533.65 l 5,5,6
 1740.74 369.13 1740.74 369.13 1751.48 313.562 c 4,7,8
 1781.77 155.843 1781.77 155.843 1914.93 160.507 c 4,9,10
 2031.34 163.76 2031.34 163.76 2042.41 345.115 c 6,11,-1
 2058.24 604.36 l 5,12,-1
 2167.63 604.36 l 5,13,-1
 2195.9 347.513 l 6,14,15
 2209.04 228.126 2209.04 228.126 2261.16 198.707 c 132,-1,16
 2313.13 169.38 2313.13 169.38 2407.46 169.38 c 6,17,-1
 2464.33 169.38 l 5,18,-1
 2464.33 0.5 l 5,19,-1
 2378.92 0.5 l 6,20,21
 2194.15 0.5 2194.15 0.5 2128.56 116.384 c 6,22,-1
 2124.37 123.787 l 5,23,-1
 2119.94 116.52 l 6,24,25
 2048.22 -1.13184 2048.22 -1.13184 1944.69 0 c 4,26,27
 1731.81 1.38184 1731.81 1.38184 1672.85 127.014 c 6,28,29
 1668.19 136.944 l 5,30,-1
 1663.75 126.916 l 6,31,32
 1607.12 -0.980469 1607.12 -0.980469 1443.81 0 c 4,33,34
 1248.18 1.17969 1248.18 1.17969 1223.64 74.0156 c 5,35,36
 1219.12 -482.932 1219.12 -482.932 662.25 -488.25 c 4,37,38
 121.254 -495.181 121.254 -495.181 91.3916 9.85449 c 4,39,40
 86.9453 85.0518 86.9453 85.0518 107.469 190.831 c 4,41,42
 128.946 301.524 128.946 301.524 176.646 402.498 c 5,43,-1
 320.845 352.996 l 5,44,45
 232.274 137.498 232.274 137.498 250.783 -2.3623 c 4,46,47
 294.15 -330.066 294.15 -330.066 656.923 -331.072 c 4,48,49
 1045.41 -332.133 1045.41 -332.133 1085.12 0 c 4,50,51
 1112.03 215.263 1112.03 215.263 979.776 384.141 c 5,52,-1
 1113 510.98 l 5,53,54
 1147.7 429.423 1147.7 429.423 1205.4 286.691 c 5,0,1
EndSplineSet
EndChar

StartChar: uniFEB3
Encoding: 65203 65203 219
Width: 1530
VWidth: 2181
GlyphClass: 2
Flags: W
AnchorPoint: "Anchor-10" 695.5 953.5 basechar 0
AnchorPoint: "Anchor-7" 695.5 -170 basechar 0
LayerCount: 2
Fore
SplineSet
277.955 47.0439 m 0,0,1
 207.224 0 207.224 0 117.7 0 c 2,2,-1
 -3.40039 0 l 1,3,-1
 -3.40039 168.98 l 1,4,-1
 58.8496 168.98 l 2,5,6
 265.692 168.98 265.692 168.98 298.557 368.246 c 2,7,-1
 324.257 524.07 l 1,8,-1
 419.134 524.07 l 1,9,-1
 435.195 368.333 l 2,10,11
 456.203 164.639 456.203 164.639 640.408 162.499 c 0,12,13
 814.053 160.475 814.053 160.475 829.28 295.133 c 2,14,-1
 855.168 524.07 l 1,15,-1
 962.126 524.07 l 1,16,-1
 985.199 317.195 l 2,17,18
 1005.37 136.388 1005.37 136.388 1178.89 158.633 c 0,19,20
 1253.91 168.124 1253.91 168.124 1277.89 236.633 c 0,21,22
 1298.89 296.632 1298.89 296.632 1285.89 465.633 c 0,23,24
 1283.49 499.358 1283.49 499.358 1252.66 656.314 c 1,25,-1
 1399.25 691.276 l 1,26,27
 1430.77 602.85 1430.77 602.85 1438.89 468.633 c 0,28,29
 1457.78 156.112 1457.78 156.112 1358.89 53.6328 c 0,30,31
 1308.23 1.10645 1308.23 1.10645 1152.74 0.5 c 0,32,33
 947.689 -0.304786 947.689 -0.304786 906.073 130.017 c 2,34,-1
 901.276 145.038 l 1,35,-1
 896.541 129.998 l 2,36,37
 855.131 -1.52534 855.131 -1.52534 643.457 0.00585938 c 0,38,39
 435.394 1.62303 435.394 1.62303 376.189 117.456 c 2,40,-1
 371.723 126.195 l 1,41,-1
 367.279 117.443 l 2,42,43
 358.857 100.853 358.857 100.853 277.955 47.0439 c 0,0,1
EndSplineSet
EndChar

StartChar: uniFEB4
Encoding: 65204 65204 220
Width: 1671
VWidth: 2176
GlyphClass: 2
Flags: W
AnchorPoint: "Anchor-10" 720.5 948.5 basechar 0
AnchorPoint: "Anchor-7" 720.5 -175 basechar 0
LayerCount: 2
Fore
SplineSet
1144.27 2.12402 m 0,0,1
 973.289 -10.5684 973.289 -10.5684 912.936 131.504 c 2,2,-1
 907.694 143.844 l 1,3,-1
 903.576 131.085 l 2,4,5
 861.792 1.6416 861.792 1.6416 635.672 3.20996 c 0,6,7
 437.438 4.69434 437.438 4.69434 377.505 121.956 c 2,8,-1
 372.396 131.952 l 1,9,-1
 368.383 121.467 l 2,10,11
 360.995 102.16 360.995 102.16 290.335 55.1631 c 0,12,13
 207.397 0 207.397 0 72.207 0 c 2,14,-1
 -22.2744 0 l 1,15,-1
 -22.2744 168.979 l 1,16,-1
 36.6953 168.979 l 1,17,18
 269.943 170.954 269.943 170.954 294.401 324.212 c 2,19,-1
 326.503 525.36 l 1,20,-1
 416.973 525.36 l 1,21,-1
 440.027 361.384 l 2,22,23
 466.761 171.232 466.761 171.232 633.206 165.678 c 0,24,25
 811.508 160.247 811.508 160.247 831.842 316.45 c 2,26,-1
 859.033 525.36 l 5,27,-1
 962.082 525.36 l 1,28,-1
 989.74 301.805 l 2,29,30
 1006.52 166.184 1006.52 166.184 1136.3 165.607 c 0,31,32
 1266.3 165.03 1266.3 165.03 1279.96 328.293 c 2,33,-1
 1302.2 594 l 1,34,-1
 1407.73 594 l 1,35,-1
 1428.26 360.123 l 2,36,37
 1438.14 247.52 1438.14 247.52 1500.53 200.992 c 0,38,39
 1542.25 169.88 1542.25 169.88 1621.45 169.88 c 2,40,-1
 1677.64 169.88 l 1,41,-1
 1677.64 0 l 1,42,-1
 1576.66 0 l 2,43,44
 1420.97 0 1420.97 0 1363.54 122.135 c 2,45,-1
 1357.83 134.26 l 1,46,-1
 1354.2 121.363 l 2,47,48
 1324.38 15.5693 1324.38 15.5693 1144.27 2.12402 c 0,0,1
EndSplineSet
EndChar

StartChar: uniFEBA
Encoding: 65210 65210 226
Width: 2518
VWidth: 2181
GlyphClass: 2
Flags: W
AnchorPoint: "Anchor-10" 628 981.5 basechar 0
AnchorPoint: "Anchor-7" 485 -673.5 basechar 0
LayerCount: 2
Fore
SplineSet
1205.4 286.691 m 13,0,1
 1228.91 233.149 1228.91 233.149 1277.85 229.022 c 5,2,3
 1495.87 560.133 1495.87 560.133 1768.87 680.133 c 4,4,5
 1998.17 780.925 1998.17 780.925 2164.87 677.133 c 4,6,7
 2318.99 580.432 2318.99 580.432 2297.89 330.188 c 4,8,9
 2295.25 298.873 2295.25 298.873 2283.83 268.5 c 5,10,11
 2335.44 169.38 2335.44 169.38 2506.78 169.38 c 6,12,-1
 2538.1 169.38 l 5,13,-1
 2538.1 0.5 l 5,14,-1
 2447.93 0.5 l 6,15,16
 2277.54 0.5 2277.54 0.5 2182.3 131.5 c 5,17,18
 2163.56 114.984 2163.56 114.984 2141.8 98.792 c 4,19,20
 2012.41 2.5 2012.41 2.5 1655.74 0.188477 c 6,21,-1
 1371.25 -1.65527 l 6,22,23
 1297.47 -2.13379 1297.47 -2.13379 1241.07 73.75 c 5,24,-1
 1223.64 74.0156 l 5,25,26
 1219.14 -481.116 1219.14 -481.116 662.25 -488.25 c 4,27,28
 121.254 -495.181 121.254 -495.181 91.3916 9.85449 c 4,29,30
 86.9453 85.0518 86.9453 85.0518 107.469 190.831 c 4,31,32
 128.946 301.524 128.946 301.524 176.646 402.498 c 5,33,-1
 320.845 352.996 l 5,34,35
 232.274 137.498 232.274 137.498 250.783 -2.3623 c 4,36,37
 294.15 -330.066 294.15 -330.066 656.923 -331.072 c 4,38,39
 1043.61 -332.128 1043.61 -332.128 1085.12 0 c 4,40,41
 1112.03 215.263 1112.03 215.263 979.776 384.141 c 5,42,-1
 1113 510.98 l 5,43,44
 1147.7 429.423 1147.7 429.423 1205.4 286.691 c 13,0,1
1419.18 180.197 m 5,45,-1
 1597.95 180.197 l 6,46,47
 1916.93 180.197 1916.93 180.197 2006.89 223.188 c 4,48,49
 2125.78 280.003 2125.78 280.003 2139.06 354.529 c 5,50,51
 2150.76 433.338 2150.76 433.338 2115.68 482.013 c 4,52,53
 2078.8 533.193 2078.8 533.193 2002.32 544.29 c 4,54,55
 1871.11 564.592 1871.11 564.592 1744.87 479.133 c 4,56,57
 1555.87 353.133 1555.87 353.133 1419.18 180.197 c 5,45,-1
EndSplineSet
EndChar

StartChar: uniFEBB
Encoding: 65211 65211 227
Width: 1635
VWidth: 2181
GlyphClass: 2
Flags: W
AnchorPoint: "Anchor-10" 548.3 1069.8 basechar 0
AnchorPoint: "Anchor-7" 524.3 -170 basechar 0
LayerCount: 2
Fore
SplineSet
684.34 180.009 m 5,0,-1
 863.115 180.009 l 6,1,2
 1182.09 180.009 1182.09 180.009 1272.05 223 c 4,3,4
 1390.94 279.815 1390.94 279.815 1404.22 354.341 c 5,5,6
 1415.92 433.15 1415.92 433.15 1380.84 481.824 c 4,7,8
 1343.96 533.005 1343.96 533.005 1267.48 544.102 c 4,9,10
 1136.27 564.403 1136.27 564.403 1010.03 478.945 c 4,11,12
 821.026 352.945 821.026 352.945 684.34 180.009 c 5,0,-1
920.898 0 m 6,13,-1
 662.956 0.670898 l 6,14,15
 441.3 1.24742 441.3 1.24742 346 156.189 c 1,16,17
 230.564 0 230.564 0 60.9902 0 c 2,18,-1
 -20.4004 0 l 1,19,-1
 -20.4004 168.98 l 1,20,-1
 2.13965 168.98 l 2,21,22
 116.947 168.978 116.947 168.978 172 212.189 c 0,23,24
 266.547 286.422 266.547 286.422 270.212 385.366 c 2,25,-1
 275.608 531.04 l 1,26,-1
 422.008 531.04 l 1,27,-1
 428.526 364.189 l 2,28,29
 434.143 220.41 434.143 220.41 543.01 228.834 c 5,30,31
 758.96 556.807 758.96 556.807 1034.03 679.945 c 4,32,33
 1261.59 781.819 1261.59 781.819 1430.03 676.945 c 4,34,35
 1584.16 580.234 1584.16 580.234 1563.05 330 c 4,36,37
 1552.68 207.042 1552.68 207.042 1406.96 98.6035 c 4,38,39
 1274.46 -0.919602 1274.46 -0.919602 920.898 0 c 6,13,-1
EndSplineSet
EndChar

StartChar: uniFEBC
Encoding: 65212 65212 228
Width: 1781
VWidth: 2181
GlyphClass: 2
Flags: W
AnchorPoint: "Anchor-10" 580.5 1134.5 basechar 0
AnchorPoint: "Anchor-7" 588.5 -170 basechar 0
LayerCount: 2
Fore
SplineSet
684.34 180.009 m 1,0,-1
 863.115 180.009 l 2,1,2
 1182.09 180.009 1182.09 180.009 1272.05 223 c 0,3,4
 1390.94 279.815 1390.94 279.815 1404.22 354.341 c 1,5,6
 1415.92 433.15 1415.92 433.15 1380.84 481.824 c 0,7,8
 1343.96 533.005 1343.96 533.005 1267.48 544.102 c 0,9,10
 1136.27 564.403 1136.27 564.403 1010.03 478.945 c 0,11,12
 821.026 352.945 821.026 352.945 684.34 180.009 c 1,0,-1
1449.37 133 m 1,13,14
 1429.83 115.623 1429.83 115.623 1406.96 98.6035 c 0,15,16
 1274.46 -0.919602 1274.46 -0.919602 920.898 0 c 2,17,-1
 662.956 0.670898 l 2,18,19
 441.3 1.24742 441.3 1.24742 346 156.189 c 1,20,21
 230.564 0 230.564 0 60.9902 0 c 2,22,-1
 -20.4004 0 l 1,23,-1
 -20.4004 168.98 l 1,24,-1
 2.13965 168.98 l 2,25,26
 116.947 168.978 116.947 168.978 172 212.189 c 0,27,28
 266.547 286.422 266.547 286.422 270.212 385.366 c 2,29,-1
 275.608 531.04 l 1,30,-1
 422.008 531.04 l 1,31,-1
 428.526 364.189 l 2,32,33
 434.143 220.41 434.143 220.41 543.01 228.834 c 1,34,35
 758.96 556.807 758.96 556.807 1034.03 679.945 c 0,36,37
 1261.59 781.819 1261.59 781.819 1430.03 676.945 c 0,38,39
 1584.16 580.234 1584.16 580.234 1563.05 330 c 0,40,41
 1560.59 300.842 1560.59 300.842 1550.52 272.5 c 1,42,43
 1632.62 169.38 1632.62 169.38 1758.51 169.38 c 2,44,-1
 1801.8 169.38 l 5,45,-1
 1801.8 0.5 l 5,46,-1
 1737.11 0.5 l 2,47,48
 1511.55 0.5 1511.55 0.5 1449.37 133 c 1,13,14
EndSplineSet
EndChar

StartChar: uniFEC1
Encoding: 65217 65217 233
Width: 1427
VWidth: 2181
GlyphClass: 2
Flags: W
AnchorPoint: "Anchor-7" 287.72 -170 basechar 0
AnchorPoint: "Anchor-10" 287.72 1507.47 basechar 0
LayerCount: 2
Fore
SplineSet
509.34 180.009 m 1,0,-1
 688.115 180.009 l 2,1,2
 1007.09 180.009 1007.09 180.009 1097.05 223 c 0,3,4
 1215.94 279.815 1215.94 279.815 1229.22 354.341 c 1,5,6
 1240.92 433.15 1240.92 433.15 1205.84 481.824 c 0,7,8
 1168.96 533.005 1168.96 533.005 1092.48 544.102 c 0,9,10
 961.27 564.403 961.27 564.403 835.026 478.945 c 0,11,12
 646.026 352.945 646.026 352.945 509.34 180.009 c 1,0,-1
745.898 0 m 2,13,-1
 81.75 0 l 5,14,-1
 81.75 168.979 l 5,15,-1
 252.28 168.98 l 1,16,-1
 252.28 1321.89 l 1,17,-1
 414.16 1388.89 l 1,18,-1
 368.01 228.834 l 1,19,20
 583.96 556.807 583.96 556.807 859.026 679.945 c 0,21,22
 1086.59 781.819 1086.59 781.819 1255.03 676.945 c 0,23,24
 1409.16 580.234 1409.16 580.234 1388.05 330 c 0,25,26
 1377.68 207.042 1377.68 207.042 1231.96 98.6035 c 0,27,28
 1099.46 0 1099.46 0 745.898 0 c 2,13,-1
EndSplineSet
EndChar

StartChar: uniFEC2
Encoding: 65218 65218 234
Width: 1486
VWidth: 2181
GlyphClass: 2
Flags: W
AnchorPoint: "Anchor-7" 430.13 -170 basechar 0
AnchorPoint: "Anchor-10" 326.67 1510.79 basechar 0
LayerCount: 2
Fore
SplineSet
430.34 180.009 m 1,0,-1
 609.115 180.009 l 2,1,2
 928.091 180.009 928.091 180.009 1018.05 223 c 0,3,4
 1136.94 279.815 1136.94 279.815 1150.22 354.341 c 1,5,6
 1161.92 433.15 1161.92 433.15 1126.84 481.824 c 0,7,8
 1089.96 533.005 1089.96 533.005 1013.48 544.102 c 0,9,10
 882.27 564.403 882.27 564.403 756.026 478.945 c 0,11,12
 567.026 352.945 567.026 352.945 430.34 180.009 c 1,0,-1
1278.84 233.5 m 1,13,14
 1302.3 169.381 1302.3 169.381 1470.7 169.38 c 2,15,-1
 1506.5 169.38 l 5,16,-1
 1506.5 0.5 l 5,17,-1
 1411.85 0.5 l 2,18,19
 1228.33 0.5 1228.33 0.5 1156.96 98.6035 c 1,20,21
 1024.46 0 1024.46 0 670.898 0 c 2,22,-1
 21.5996 0 l 1,23,-1
 21.5996 168.98 l 1,24,-1
 175.13 168.98 l 1,25,-1
 175.13 1318.89 l 1,26,-1
 337.01 1390.89 l 1,27,-1
 289.01 228.834 l 1,28,29
 504.96 556.807 504.96 556.807 780.026 679.945 c 0,30,31
 1007.59 781.819 1007.59 781.819 1176.03 676.945 c 0,32,33
 1330.16 580.234 1330.16 580.234 1309.05 330 c 0,34,35
 1304.88 280.577 1304.88 280.577 1278.84 233.5 c 1,13,14
EndSplineSet
EndChar

StartChar: uniFEC3
Encoding: 65219 65219 235
Width: 1427
VWidth: 2181
GlyphClass: 2
Flags: W
AnchorPoint: "Anchor-10" 262.57 1513.47 basechar 0
AnchorPoint: "Anchor-7" 268.57 -170 basechar 0
LayerCount: 2
Fore
SplineSet
490.34 180.009 m 1,0,-1
 669.115 180.009 l 2,1,2
 988.091 180.009 988.091 180.009 1078.05 223 c 0,3,4
 1196.94 279.815 1196.94 279.815 1210.22 354.341 c 1,5,6
 1221.92 433.15 1221.92 433.15 1186.84 481.824 c 0,7,8
 1149.96 533.005 1149.96 533.005 1073.48 544.102 c 0,9,10
 942.27 564.403 942.27 564.403 816.026 478.945 c 0,11,12
 627.027 352.945 627.027 352.945 490.34 180.009 c 1,0,-1
1212.96 98.6035 m 0,13,14
 1080.46 0 1080.46 0 726.898 0 c 2,15,-1
 -20.4004 0 l 5,16,-1
 -20.4004 168.98 l 5,17,-1
 233.13 168.98 l 1,18,-1
 233.13 1324.89 l 1,19,-1
 395.01 1389.89 l 1,20,-1
 349.01 228.834 l 1,21,22
 564.96 556.806 564.96 556.806 840.026 679.945 c 0,23,24
 1067.59 781.819 1067.59 781.819 1236.03 676.945 c 0,25,26
 1390.15 580.239 1390.15 580.239 1369.05 330 c 0,27,28
 1358.68 207.042 1358.68 207.042 1212.96 98.6035 c 0,13,14
EndSplineSet
EndChar

StartChar: uniFEC4
Encoding: 65220 65220 236
Width: 1446
VWidth: 2181
GlyphClass: 2
Flags: W
AnchorPoint: "Anchor-10" 166.27 1523.79 basechar 0
AnchorPoint: "Anchor-7" 362.73 -170 basechar 0
LayerCount: 2
Fore
SplineSet
395.34 180.009 m 1,0,-1
 574.115 180.009 l 2,1,2
 893.091 180.009 893.091 180.009 983.05 223 c 0,3,4
 1101.94 279.815 1101.94 279.815 1115.22 354.341 c 1,5,6
 1126.92 433.15 1126.92 433.15 1091.84 481.824 c 0,7,8
 1054.96 533.005 1054.96 533.005 978.48 544.102 c 0,9,10
 847.27 564.403 847.27 564.403 721.026 478.945 c 0,11,12
 532.026 352.945 532.026 352.945 395.34 180.009 c 1,0,-1
1243.84 233.5 m 1,13,14
 1267.3 169.381 1267.3 169.381 1435.7 169.38 c 2,15,-1
 1466.5 169.38 l 1,16,-1
 1466.5 0.5 l 1,17,-1
 1376.85 0.5 l 2,18,19
 1193.33 0.5 1193.33 0.5 1121.96 98.6035 c 1,20,21
 989.463 0 989.463 0 635.898 0 c 2,22,-1
 -20.4004 0 l 5,23,-1
 -20.4004 168.98 l 5,24,-1
 140.13 168.98 l 1,25,-1
 140.13 1318.89 l 1,26,-1
 304.01 1390.89 l 1,27,-1
 254.01 228.834 l 1,28,29
 469.96 556.807 469.96 556.807 745.026 679.945 c 0,30,31
 972.593 781.819 972.593 781.819 1141.03 676.945 c 0,32,33
 1295.16 580.234 1295.16 580.234 1274.05 330 c 0,34,35
 1269.88 280.577 1269.88 280.577 1243.84 233.5 c 1,13,14
EndSplineSet
EndChar

StartChar: uniFECA
Encoding: 65226 65226 242
Width: 1189
VWidth: 2181
GlyphClass: 2
Flags: W
AnchorPoint: "Anchor-10" 568 1060.5 basechar 0
AnchorPoint: "Anchor-7" 611.69 -622.64 basechar 0
LayerCount: 2
Fore
SplineSet
636.904 742.788 m 0,0,1
 570.455 742.788 570.455 742.788 506.712 733.005 c 0,2,3
 381.703 713.84 381.703 713.84 381.703 654.828 c 0,4,5
 381.703 625.37 381.703 625.37 442.722 581.458 c 0,6,7
 500.502 539.877 500.502 539.877 630.604 467.8 c 2,8,-1
 636.904 464.31 l 1,9,-1
 643.201 467.8 l 2,10,11
 773.277 539.849 773.277 539.849 831.083 581.454 c 0,12,13
 892.109 625.369 892.109 625.369 892.109 654.828 c 0,14,15
 892.109 715.492 892.109 715.492 766.72 733.064 c 0,16,17
 697.33 742.788 697.33 742.788 636.904 742.788 c 0,0,1
749.412 385 m 1,18,19
 912.063 169.38 912.063 169.38 1049.5 169.38 c 2,20,-1
 1208.7 169.38 l 1,21,-1
 1208.7 0.5 l 1,22,-1
 1066.62 0.5 l 2,23,24
 856.934 0.5 856.934 0.5 613.592 287.611 c 2,25,-1
 611.229 290.399 l 1,26,-1
 607.855 288.995 l 2,27,28
 407.103 205.458 407.103 205.458 325.893 102.619 c 0,29,30
 207.585 -45.6064 207.585 -45.6064 289.521 -209.021 c 0,31,32
 386.316 -400.96 386.316 -400.96 750.44 -360.531 c 0,33,34
 883.429 -346.076 883.429 -346.076 1035.99 -276.136 c 1,35,-1
 1035.99 -432.589 l 1,36,37
 927.033 -497.595 927.033 -497.595 745.06 -507.171 c 0,38,39
 260.941 -532.647 260.941 -532.647 142.517 -280.657 c 0,40,41
 39.4001 -59.5252 39.4001 -59.5252 196.264 150.557 c 0,42,43
 287.734 273.059 287.734 273.059 507.47 381.743 c 2,44,-1
 518.833 387.363 l 1,45,46
 385.305 438.547 385.305 438.547 250.312 551.782 c 0,47,48
 186.965 604.922 186.965 604.922 190.407 639.931 c 0,49,50
 201.961 757.383 201.961 757.383 376.559 839.387 c 0,51,52
 486.664 891.681 486.664 891.681 634.765 891.681 c 128,-1,53
 782.867 891.681 782.867 891.681 893.049 839.353 c 0,54,55
 1083.49 749.913 1083.49 749.913 1083.49 640.561 c 0,56,57
 1083.49 615.787 1083.49 615.787 1020.06 552.74 c 0,58,59
 919.607 452.895 919.607 452.895 749.412 385 c 1,18,19
EndSplineSet
EndChar

StartChar: uniFECB
Encoding: 65227 65227 243
Width: 1039
VWidth: 2181
GlyphClass: 2
Flags: W
AnchorPoint: "Anchor-10" 373.265 1216.23 basechar 0
AnchorPoint: "Anchor-7" 513.6 -116.5 basechar 0
LayerCount: 2
Fore
SplineSet
20.3301 168.98 m 2,0,1
 234.601 168.98 234.601 168.98 238.914 168.969 c 2,2,-1
 281.32 169.029 l 1,3,4
 210.488 236.04 210.488 236.04 176.351 330.646 c 0,5,6
 115.628 498.926 115.628 498.926 182.48 640.158 c 0,7,8
 287.316 859.548 287.316 859.548 541.352 873.977 c 0,9,10
 770.397 886.144 770.397 886.144 886.98 756.572 c 1,11,-1
 831.853 639.417 l 1,12,13
 708.489 734.826 708.489 734.826 546 722.375 c 0,14,15
 354.63 707.509 354.63 707.509 310 552.375 c 0,16,17
 281.171 452.531 281.171 452.531 333.405 342.167 c 0,18,19
 387.356 228.176 387.356 228.176 462.3 193.445 c 0,20,21
 514.277 169.358 514.277 169.358 664.72 198.519 c 2,22,-1
 958 255.365 l 1,23,-1
 958 103.302 l 1,24,25
 556.674 -0.0243252 556.674 -0.0243252 356.357 -0.015625 c 2,26,-1
 -3.40039 0 l 1,27,-1
 -3.40039 168.98 l 1,28,-1
 20.3301 168.98 l 2,0,1
EndSplineSet
EndChar

StartChar: uniFECC
Encoding: 65228 65228 244
Width: 1097
VWidth: 2181
GlyphClass: 2
Flags: W
AnchorPoint: "Anchor-10" 544.58 1060.5 basechar 0
AnchorPoint: "Anchor-7" 544.58 -116.5 basechar 0
LayerCount: 2
Fore
SplineSet
550.384 612.093 m 0,0,1
 483.935 612.093 483.935 612.093 420.191 602.31 c 0,2,3
 295.183 583.145 295.183 583.145 295.183 524.133 c 0,4,5
 295.183 494.675 295.183 494.675 356.201 450.763 c 0,6,7
 413.981 409.182 413.981 409.182 544.084 337.104 c 2,8,-1
 550.384 333.614 l 1,9,-1
 556.681 337.104 l 2,10,11
 686.757 409.153 686.757 409.153 744.562 450.759 c 0,12,13
 805.589 494.674 805.589 494.674 805.589 524.133 c 0,14,15
 805.589 584.797 805.589 584.797 680.199 602.369 c 0,16,17
 610.81 612.093 610.81 612.093 550.384 612.093 c 0,0,1
120.86 0 m 2,18,-1
 -17.4004 0 l 1,19,-1
 -17.4004 168.98 l 1,20,-1
 97.3203 168.98 l 2,21,22
 210.994 168.98 210.994 168.98 304.683 200.668 c 0,23,24
 427.18 242.107 427.18 242.107 432.312 256.668 c 1,25,26
 298.784 307.852 298.784 307.852 163.792 421.087 c 0,27,28
 100.444 474.227 100.444 474.227 103.887 509.235 c 0,29,30
 115.44 626.688 115.44 626.688 290.038 708.691 c 0,31,32
 388.107 755.268 388.107 755.268 548.244 760.985 c 0,33,34
 589.774 762.52 589.774 762.52 688.58 752.492 c 0,35,36
 845.015 736.313 845.015 736.313 901.58 665.492 c 0,37,38
 944.913 610.432 944.913 610.432 928.58 485.492 c 0,39,40
 913.842 375.951 913.842 375.951 662.892 254.305 c 1,41,42
 676.964 234.59 676.964 234.59 796.699 200.194 c 0,43,44
 906.27 168.719 906.27 168.719 991.862 168.98 c 2,45,-1
 1115.56 169.357 l 1,46,-1
 1115.56 0.5 l 1,47,-1
 968.3 0.5 l 2,48,49
 717.808 0.500021 717.808 0.500021 549.53 161.022 c 2,50,-1
 546.08 164.313 l 1,51,-1
 542.629 161.022 l 2,52,53
 373.779 0 373.779 0 120.86 0 c 2,18,-1
EndSplineSet
EndChar

StartChar: uniFEDA
Encoding: 65242 65242 258
Width: 1840
VWidth: 2181
GlyphClass: 2
Flags: W
AnchorPoint: "Anchor-10" 539 1367.5 basechar 0
AnchorPoint: "Anchor-7" 790 -223.5 basechar 0
LayerCount: 2
Fore
SplineSet
751.279 0 m 0,0,1
 521.411 0.441527 521.411 0.441527 425.779 31.3779 c 0,2,3
 125.526 128.509 125.526 128.509 96.376 450.233 c 0,4,5
 86.2451 558.573 86.2451 558.573 127.76 702.758 c 1,6,-1
 256.475 668.796 l 1,7,8
 230.52 526.926 230.52 526.926 233.538 475.238 c 0,9,10
 243.504 230.165 243.504 230.165 561.779 183.378 c 0,11,12
 658.67 169.135 658.67 169.135 812 167.48 c 0,13,14
 1014.98 165.392 1014.98 165.392 1131.14 176.459 c 0,15,16
 1498.38 209.988 1498.38 209.988 1513.52 391.131 c 4,17,-1
 1517.43 436.814 l 6,18,-1
 1477.43 1323.96 l 1,19,-1
 1634.3 1400.96 l 1,20,-1
 1634.3 406.814 l 2,21,22
 1634.3 388.138 1634.3 388.138 1631.66 352.496 c 0,23,24
 1628.02 303.314 1628.02 303.314 1609.88 251.267 c 2,25,-1
 1609.01 248.771 l 1,26,-1
 1610.58 246.649 l 2,27,28
 1667.75 169.38 1667.75 169.38 1795.97 169.38 c 2,29,-1
 1860.22 169.38 l 1,30,-1
 1860.22 0.5 l 1,31,-1
 1737.12 0.5 l 2,32,33
 1634.54 0.500048 1634.54 0.500048 1503.77 107.786 c 2,34,-1
 1501.03 110.034 l 1,35,-1
 1498 108.188 l 2,36,37
 1407.87 53.2797 1407.87 53.2797 1262.3 28.4834 c 0,38,39
 1081.43 -1.44922 1081.43 -1.44922 751.279 0 c 0,0,1
1045.77 1181.06 m 1,40,-1
 1045.77 1129.12 l 1,41,42
 976.084 1123.99 976.084 1123.99 937.614 1109.81 c 0,43,44
 840.33 1073.34 840.33 1073.34 840.33 1025.55 c 0,45,46
 840.33 989.411 840.33 989.411 859.004 965.402 c 0,47,48
 876.196 942.479 876.196 942.479 956.292 930.699 c 0,49,50
 1005.69 923.436 1005.69 923.436 1030.62 900.664 c 0,51,52
 1055.05 878.351 1055.05 878.351 1055.05 838.298 c 0,53,54
 1055.05 742.199 1055.05 742.199 965.839 691.751 c 0,55,56
 896.97 652.804 896.97 652.804 802.689 651.929 c 0,57,58
 742.751 651.929 742.751 651.929 690.148 660.715 c 1,59,-1
 690.148 719.167 l 1,60,61
 750.907 711.158 750.907 711.158 793.059 711.158 c 0,62,63
 867.867 711.158 867.867 711.158 916.098 730.146 c 0,64,65
 1000.45 762.542 1000.45 762.542 1000.45 816.898 c 0,66,67
 1000.45 877.435 1000.45 877.435 902.515 893.393 c 0,68,69
 845.717 902.048 845.717 902.048 814.966 933.498 c 128,-1,70
 784.138 965.029 784.138 965.029 785.373 1021.9 c 0,71,72
 787.251 1097.81 787.251 1097.81 857.895 1133.61 c 0,73,74
 938.2 1174.24 938.2 1174.24 1045.77 1181.06 c 1,40,-1
EndSplineSet
EndChar

StartChar: uniFEDB
Encoding: 65243 65243 259
Width: 780
VWidth: 2181
GlyphClass: 2
Flags: W
AnchorPoint: "Anchor-10" 198.5 1388 basechar 0
AnchorPoint: "Anchor-7" 305 -230 basechar 0
LayerCount: 2
Fore
SplineSet
293.7 0 m 2,0,-1
 -20.4004 0 l 5,1,-1
 -20.4004 168.98 l 5,2,-1
 252.371 169.004 l 2,3,4
 534.629 169.028 534.629 169.028 557.885 317.826 c 0,5,6
 578.984 452.878 578.984 452.878 454.092 545.562 c 2,7,-1
 93.417 813.224 l 2,8,9
 24.1814 864.605 24.1814 864.605 17.5078 942.462 c 0,10,11
 7.03315 1077.75 7.03315 1077.75 119.665 1134.92 c 2,12,-1
 766.25 1463.09 l 1,13,-1
 766.25 1297.42 l 1,14,-1
 158.729 979.907 l 1,15,-1
 165.877 974.626 l 2,16,17
 381.664 815.2 381.664 815.2 582.288 649.002 c 1,18,19
 730.239 524.118 730.239 524.118 704.952 276.723 c 0,20,21
 690.892 141.869 690.892 141.869 583.733 71.1729 c 0,22,23
 475.853 0 475.853 0 293.7 0 c 2,0,-1
EndSplineSet
EndChar

StartChar: uniFEDC
Encoding: 65244 65244 260
Width: 1009
VWidth: 2181
GlyphClass: 2
Flags: W
AnchorPoint: "Anchor-10" 206.5 1343 basechar 0
AnchorPoint: "Anchor-7" 317 -220 basechar 0
LayerCount: 2
Fore
SplineSet
589.875 286.13 m 1,0,1
 563.598 0 563.598 0 157.875 0 c 2,2,-1
 -20.4004 0 l 1,3,-1
 -20.4004 168.98 l 1,4,-1
 259.875 169.13 l 2,5,6
 439.467 169.226 439.467 169.226 463.875 283.13 c 0,7,8
 485.961 390.52 485.961 390.52 406.875 470.13 c 6,9,-1
 140.918 737.85 l 2,10,11
 74.5999 804.608 74.5999 804.608 71.5156 880.344 c 0,12,13
 65.8882 1019.18 65.8882 1019.18 203.571 1092.88 c 2,14,-1
 856.25 1442.26 l 1,15,-1
 856.25 1275.44 l 1,16,-1
 196.908 909.027 l 1,17,18
 862.858 168.909 862.858 168.909 997.725 169.291 c 2,19,-1
 1029.15 169.38 l 1,20,-1
 1029.15 0.5 l 1,21,-1
 979.41 0.5 l 2,22,23
 804.375 0.5 804.375 0.5 589.875 286.13 c 1,0,1
EndSplineSet
EndChar

StartChar: uniFEDE
Encoding: 65246 65246 262
Width: 1448
VWidth: 2181
GlyphClass: 2
Flags: W
AnchorPoint: "Anchor-10" 452.5 880.5 basechar 0
AnchorPoint: "Anchor-7" 402.974 -774.619 basechar 0
LayerCount: 2
Fore
SplineSet
1069.96 37.3164 m 2,0,1
 1070.13 272.14 l 1,2,-1
 1035.4 1319.83 l 1,3,-1
 1193.28 1390.83 l 1,4,-1
 1193.28 400.31 l 2,5,6
 1193.28 279.43 1193.28 279.43 1250.98 221.732 c 0,7,8
 1303.34 169.38 1303.34 169.38 1406.72 169.38 c 2,9,-1
 1467.97 169.38 l 1,10,-1
 1467.97 0.5 l 1,11,-1
 1420.87 0.5 l 2,12,13
 1298.65 0.5 1298.65 0.5 1193.98 68.9492 c 1,14,15
 1188.68 -198.571 1188.68 -198.571 1075.27 -345 c 0,16,17
 951.83 -504.374 951.83 -504.374 683.018 -511.074 c 0,18,19
 380.381 -518.644 380.381 -518.644 236.269 -370 c 0,20,21
 103.586 -234.039 103.586 -234.039 106.892 -17.3164 c 0,22,23
 110.269 204 110.269 204 194.269 374 c 1,24,-1
 348.269 336 l 1,25,26
 265.16 146.478 265.16 146.478 270.572 -11.1875 c 0,27,28
 276.17 -174.224 276.17 -174.224 365.269 -256 c 0,29,30
 472.588 -354.405 472.588 -354.405 670.938 -349.32 c 0,31,32
 854.965 -344.602 854.965 -344.602 950.889 -272 c 0,33,34
 1069.8 -181.998 1069.8 -181.998 1069.96 37.3164 c 2,0,1
EndSplineSet
EndChar

StartChar: uniFEDF
Encoding: 65247 65247 263
Width: 532
VWidth: 2181
GlyphClass: 2
Flags: W
AnchorPoint: "Anchor-10" 297.73 1507 basechar 0
AnchorPoint: "Anchor-7" 230.73 -194.5 basechar 0
LayerCount: 2
Fore
SplineSet
393.17 436.69 m 2,0,1
 393.17 194.928 393.17 194.928 283.885 86.8975 c 0,2,3
 195.977 0 195.977 0 61.7002 0 c 2,4,-1
 -20.4004 0 l 1,5,-1
 -20.4004 168.98 l 1,6,-1
 12.8496 168.98 l 2,7,8
 151.998 168.978 151.998 168.978 215.957 248.894 c 0,9,10
 278.624 327.208 278.624 327.208 273.29 449.53 c 2,11,-1
 235.29 1321.03 l 1,12,-1
 393.17 1391.03 l 1,13,-1
 393.17 436.69 l 2,0,1
EndSplineSet
EndChar

StartChar: uniFEE0
Encoding: 65248 65248 264
Width: 650
VWidth: 2181
GlyphClass: 2
Flags: W
AnchorPoint: "Anchor-10" 316.73 1503 basechar 0
AnchorPoint: "Anchor-7" 243.73 -244.5 basechar 0
LayerCount: 2
Fore
SplineSet
312.32 94.5264 m 6,0,1
 227.675 -4.05053e-07 227.675 -4.05053e-07 80.7002 0 c 2,2,-1
 -20.4004 0 l 1,3,-1
 -20.4004 168.98 l 1,4,-1
 21.8496 168.98 l 2,5,6
 131.399 168.979 131.399 168.979 186.495 221.642 c 0,7,8
 240.23 273.004 240.23 273.004 247.29 400.31 c 2,9,-1
 247.29 1319.96 l 1,10,-1
 404.17 1389.96 l 1,11,-1
 364.17 400.31 l 2,12,13
 359.552 286.059 359.552 286.059 423.871 221.732 c 0,14,15
 476.627 168.978 476.627 168.978 629.61 168.98 c 2,16,-1
 670.86 168.98 l 1,17,-1
 670.86 0 l 1,18,-1
 570.76 0 l 2,19,20
 425.989 -1.40678e-05 425.989 -1.40678e-05 338.987 94.6973 c 6,21,-1
 325.56 109.312 l 5,22,-1
 312.32 94.5264 l 6,0,1
EndSplineSet
EndChar

StartChar: uniFEE2
Encoding: 65250 65250 266
Width: 1133
VWidth: 2181
GlyphClass: 2
Flags: W
AnchorPoint: "Anchor-10" 551.5 991 basechar 0
AnchorPoint: "Anchor-7" 189.188 -758.422 basechar 0
LayerCount: 2
Fore
SplineSet
460.696 385.557 m 1,0,1
 467.831 185.716 467.831 185.716 581.936 103.5 c 0,2,3
 653.199 53.0382 653.199 53.0382 736.818 78.832 c 0,4,5
 837.416 109.863 837.416 109.863 799.78 345.552 c 0,6,7
 781.811 458.34 781.811 458.34 676.227 460.49 c 0,8,9
 539.359 463.225 539.359 463.225 460.696 385.557 c 1,0,1
950.226 216.499 m 1,10,11
 981.752 169.067 981.752 169.067 1113.54 168.713 c 2,12,-1
 1152.99 168.607 l 1,13,-1
 1152.99 0.709961 l 1,14,-1
 1099.5 0.709961 l 2,15,16
 953.798 0.709961 953.798 0.709961 902.283 79.2559 c 1,17,18
 880.995 -44.0928 880.995 -44.0928 764.626 -65.1895 c 0,19,20
 660.612 -84.5313 660.612 -84.5313 564.5 -46.5 c 0,21,22
 351.788 38.6396 351.788 38.6396 340.035 342.126 c 1,23,24
 273.269 321.532 273.269 321.532 235.452 229.095 c 0,25,26
 208.267 162.644 208.267 162.644 217.452 19.0947 c 2,27,-1
 254.452 -559.146 l 1,28,-1
 98.9141 -637 l 1,29,-1
 98.9141 78.5107 l 2,30,31
 98.914 344.466 98.914 344.466 273.936 469 c 0,32,33
 429.936 580 429.936 580 564.109 594.482 c 0,34,35
 739.999 614.811 739.999 614.811 810.297 568.451 c 0,36,37
 898.906 510.016 898.906 510.016 922.917 402.438 c 128,-1,38
 946.928 294.861 946.928 294.861 950.226 216.499 c 1,10,11
EndSplineSet
EndChar

StartChar: uniFEE3
Encoding: 65251 65251 267
Width: 903
VWidth: 2181
GlyphClass: 2
Flags: W
AnchorPoint: "Anchor-10" 374.69 928.5 basechar 0
AnchorPoint: "Anchor-7" 344.69 -155.5 basechar 0
LayerCount: 2
Fore
SplineSet
806.437 122.183 m 4,0,1
 757.953 -33.5479 757.953 -33.5479 535.262 -15.377 c 4,2,3
 377.996 -2.54372 377.996 -2.54372 253.146 98.2178 c 6,4,-1
 248.58 101.902 l 5,5,-1
 245.851 97.2598 l 6,6,7
 188.669 0 188.669 0 35.9805 0 c 6,8,-1
 -20.4004 0 l 5,9,-1
 -20.4004 168.979 l 5,10,-1
 50.96 168.979 l 6,11,12
 151.646 168.979 151.646 168.979 167.686 232.565 c 4,13,14
 195.485 342.775 195.485 342.775 217.046 408.868 c 4,15,16
 288.9 625.879 288.9 625.879 457.371 661.223 c 4,17,18
 663.406 704.172 663.406 704.172 770.337 450.882 c 4,19,20
 849.943 261.101 849.943 261.101 806.437 122.183 c 4,0,1
454.176 149.029 m 4,21,22
 704.493 90.1797 704.493 90.1797 679.559 272.485 c 4,23,24
 674.36 311.802 674.36 311.802 630.614 402.544 c 4,25,26
 585.747 496.953 585.747 496.953 517.081 505.176 c 4,27,28
 446.456 513.629 446.456 513.629 383.359 427.17 c 4,29,30
 347.57 378.617 347.57 378.617 309.981 229.116 c 5,31,32
 395.468 163.432 395.468 163.432 454.176 149.029 c 4,21,22
EndSplineSet
EndChar

StartChar: uniFEE4
Encoding: 65252 65252 268
Width: 1127
VWidth: 2181
GlyphClass: 2
Flags: W
AnchorPoint: "Anchor-10" 492.79 888.5 basechar 0
AnchorPoint: "Anchor-7" 468.79 -206.5 basechar 0
LayerCount: 2
Fore
SplineSet
546.014 120.972 m 4,0,1
 647.947 89.7012 647.947 89.7012 699.876 120.972 c 4,2,3
 803.772 184.698 803.772 184.698 699.876 383.937 c 4,4,5
 638.525 500.383 638.525 500.383 551.608 493.039 c 4,6,7
 414.109 481.424 414.109 481.424 382.868 217.805 c 6,8,-1
 382.568 215.271 l 5,9,-1
 384.546 213.659 l 6,10,11
 467.638 145.924 467.638 145.924 546.014 120.972 c 4,0,1
652.122 -49.7617 m 4,12,13
 442.077 -49.5273 442.077 -49.5273 319.879 86.2373 c 5,14,15
 224.669 0 224.669 0 85.5996 0 c 6,16,-1
 -20.4004 0 l 5,17,-1
 -20.4004 168.979 l 5,18,-1
 92.0195 168.979 l 6,19,20
 236.155 168.979 236.155 168.979 246.897 225.958 c 5,21,22
 245.851 226.448 245.851 226.448 263.145 324.79 c 4,23,24
 290.074 474.311 290.074 474.311 348.79 543.781 c 4,25,26
 442.955 655.194 442.955 655.194 573.988 643.307 c 4,27,28
 765.93 625.894 765.93 625.894 871.996 349.975 c 4,29,30
 941.582 169.09 941.582 169.09 1074.28 169.09 c 6,31,-1
 1147.18 169.09 l 5,32,-1
 1147.18 0.209961 l 5,33,-1
 1015.43 0.209961 l 6,34,35
 919.097 0.209961 919.097 0.209961 845.347 118.175 c 5,36,37
 820.067 -49.95 820.067 -49.95 652.122 -49.7617 c 4,12,13
EndSplineSet
EndChar

StartChar: uniFEEA
Encoding: 65258 65258 274
Width: 1174
VWidth: 2181
GlyphClass: 2
Flags: W
AnchorPoint: "Anchor-10" 445.95 1147.81 basechar 0
AnchorPoint: "Anchor-7" 428.88 -134 basechar 0
LayerCount: 2
Fore
SplineSet
724.225 382.9 m 5,0,1
 702.837 543.87 702.837 543.87 691.057 644.895 c 5,2,3
 235.8 607.738 235.8 607.738 245.56 457.439 c 4,4,5
 250.405 385.651 250.405 385.651 323.239 369.366 c 4,6,7
 471.737 337.775 471.737 337.775 724.225 382.9 c 5,0,1
741.024 241.225 m 5,8,9
 193.003 157.717 193.003 157.717 101.666 369.018 c 4,10,11
 93.5654 387.609 93.5654 387.609 91.6035 434.102 c 4,12,13
 74.9932 743.15 74.9932 743.15 671.697 798.211 c 5,14,15
 672.309 823.622 672.309 823.622 658.096 926.032 c 5,16,-1
 806.058 961.035 l 21,17,18
 806.754 954.801 806.754 954.801 865.285 426.781 c 4,19,20
 887.265 228.621 887.265 228.621 981.819 187 c 4,21,22
 1023.56 169.022 1023.56 169.022 1121.3 169 c 6,23,-1
 1194.26 168.983 l 5,24,-1
 1194.26 0 l 5,25,-1
 1102.34 0 l 6,26,27
 779.175 0 779.175 0 741.024 241.225 c 5,8,9
EndSplineSet
EndChar

StartChar: uniFEEB
Encoding: 65259 65259 275
Width: 1222
VWidth: 2181
GlyphClass: 2
Flags: W
AnchorPoint: "Anchor-10" 601.801 1213.23 basechar 0
AnchorPoint: "Anchor-7" 425.542 -230.946 basechar 0
LayerCount: 2
Fore
SplineSet
756.526 505.521 m 1,0,1
 786.388 403.42 786.388 403.42 748.367 326.248 c 0,2,3
 709.794 246.834 709.794 246.834 593.173 175.79 c 2,4,-1
 583.562 169.936 l 1,5,6
 930.309 25.9002 930.309 25.9002 967.961 221.185 c 0,7,8
 988.999 330.52 988.999 330.52 756.526 505.521 c 1,0,1
479.115 711.312 m 1,9,10
 427.627 739.918 427.627 739.918 402.18 753.769 c 1,11,-1
 452.477 869.591 l 1,12,13
 784.287 658.871 l 0,14,15
 1080.14 463.424 1080.14 463.424 1099.07 293.688 c 0,16,17
 1131.81 4.9248 1131.81 4.9248 852.588 -24.4316 c 0,18,19
 677.982 -42.986 677.982 -42.986 429.185 70.5605 c 2,20,-1
 427.203 71.4648 l 1,21,-1
 425.223 70.5605 l 2,22,23
 270.69 0 270.69 0 -7.37012 0 c 2,24,-1
 -20.4004 0 l 1,25,-1
 -20.4004 168.98 l 1,26,-1
 93.0898 168.98 l 2,27,28
 151.14 165.438 151.14 165.438 209.189 161.896 c 1,29,30
 143.538 242.687 143.538 242.687 149.21 367.105 c 0,31,32
 153.108 464.503 153.108 464.503 208.308 551.846 c 0,33,34
 283.215 668.229 283.215 668.229 404.743 705.592 c 0,35,36
 452.436 719.948 452.436 719.948 479.115 711.312 c 1,9,10
634.993 379.845 m 0,37,38
 693.703 511.226 693.703 511.226 613.546 564.479 c 0,39,40
 473.145 658.598 473.145 658.598 361.771 524.382 c 0,41,42
 304.344 455.178 304.344 455.178 295.563 399.427 c 0,43,44
 270.061 242.767 270.061 242.767 418.653 195.21 c 1,45,46
 588.332 278.028 588.332 278.028 634.993 379.845 c 0,37,38
EndSplineSet
EndChar

StartChar: uniFEEC
Encoding: 65260 65260 276
Width: 1055
VWidth: 2181
GlyphClass: 2
Flags: W
AnchorPoint: "Anchor-7" 369.88 -601.244 basechar 0
AnchorPoint: "Anchor-10" 557.76 1074.74 basechar 0
LayerCount: 2
Fore
SplineSet
326.334 168.9 m 1,0,-1
 366.352 171 l 2,1,2
 443.275 175.037 443.275 175.037 483.441 233.983 c 0,3,4
 551.688 337.077 551.688 337.077 551.688 480.296 c 0,5,6
 551.688 559.219 551.688 559.219 535.352 586 c 0,7,8
 508.885 626 508.885 626 465.352 626 c 0,9,10
 377.021 626 377.021 626 340.652 464.883 c 0,11,12
 304.365 302.876 304.365 302.876 326.334 168.9 c 1,0,-1
236.939 596.344 m 0,13,14
 308.514 761.573 308.514 761.573 466.353 760.505 c 0,15,16
 577.07 759.703 577.07 759.703 631.354 697.505 c 0,17,18
 698.082 621.047 698.082 621.047 698.082 506.893 c 0,19,20
 698.082 228.464 698.082 228.464 525.686 71.377 c 0,21,22
 447.352 0 447.352 0 340.352 0 c 1,23,24
 330.993 -203.244 330.993 -203.244 436.353 -351.244 c 5,25,26
 481.119 -33.7852 481.119 -33.7852 680.352 89 c 0,27,28
 807.548 166.691 807.548 166.691 1018.03 169.979 c 1,29,-1
 1075.64 169.414 l 1,30,-1
 1075.64 0.463867 l 1,31,-1
 877.352 0 l 2,32,33
 625.588 -0.588966 625.588 -0.588966 502.353 -556.244 c 5,34,35
 221.37 -458.511 221.37 -458.511 193.825 0 c 1,36,-1
 -20.9355 0 l 1,37,-1
 -20.9355 168.98 l 1,38,-1
 191.988 169.038 l 1,39,40
 182.138 471.695 182.138 471.695 236.939 596.344 c 0,13,14
EndSplineSet
EndChar

StartChar: uniFEEE
Encoding: 65262 65262 278
Width: 961
VWidth: 2181
GlyphClass: 2
Flags: W
AnchorPoint: "Anchor-10" 376 1059 basechar 0
AnchorPoint: "Anchor-7" 553.515 -614.238 basechar 0
LayerCount: 2
Fore
SplineSet
485.845 514.636 m 0,0,1
 355.952 511.718 355.952 511.718 309.978 361.104 c 0,2,3
 251.527 173.248 251.527 173.248 458.777 157.264 c 0,4,5
 509.948 153.107 509.948 153.107 649.293 160.203 c 1,6,7
 650.301 272.516 650.301 272.516 633.56 354.008 c 0,8,9
 600.652 518.223 600.652 518.223 485.845 514.636 c 0,0,1
780.693 0.5 m 1,10,11
 753.981 -181.111 753.981 -181.111 633 -322 c 0,12,13
 475 -506 475 -506 145.27 -506.139 c 1,14,-1
 80.2695 -380.139 l 1,15,16
 574.694 -350 574.694 -350 641.073 1.44336 c 1,17,18
 617.407 1.41569 617.407 1.41569 471.828 1.23926 c 0,19,20
 294.276 1.01367 294.276 1.01367 219.993 86.7031 c 0,21,22
 142.484 177.125 142.484 177.125 157.613 301.323 c 0,23,24
 176.859 471.613 176.859 471.613 288.265 578.436 c 0,25,26
 386.725 673.838 386.725 673.838 501.138 666.823 c 0,27,28
 653.057 657.354 653.057 657.354 720.98 515.567 c 0,29,30
 774.741 404.605 774.741 404.605 787.014 256.368 c 0,31,32
 793.697 176.43 793.697 176.43 794.506 168.473 c 1,33,-1
 981.66 169.354 l 1,34,-1
 981.66 0.5 l 1,35,-1
 780.693 0.5 l 1,10,11
EndSplineSet
EndChar

StartChar: uniFEF0
Encoding: 65264 65264 280
Width: 1511
VWidth: 2181
GlyphClass: 2
Flags: W
AnchorPoint: "Anchor-10" 610.857 463.69 basechar 0
AnchorPoint: "Anchor-7" 324.067 -754.505 basechar 0
LayerCount: 2
Fore
SplineSet
986.02 128.171 m 0,0,1
 1149.1 196.818 1149.1 196.818 1506.81 169.534 c 1,2,3
 1519.35 169.456 1519.35 169.456 1531.89 169.377 c 1,4,-1
 1531.89 0.500977 l 1,5,-1
 1346.78 0.544922 l 1,6,7
 1117.42 11.2041 1117.42 11.2041 1075.02 0 c 0,8,9
 1037.26 -9.31445 1037.26 -9.31445 1043.02 -47.0811 c 0,10,11
 1051.02 -92.5775 1051.02 -92.5775 1137.02 -93.0801 c 0,12,13
 1371.07 -94.4483 1371.07 -94.4483 1384.15 -214.454 c 0,14,15
 1394.36 -308.179 1394.36 -308.179 1338.65 -381.955 c 0,16,17
 1251.35 -496.531 1251.35 -496.531 1116.15 -557.454 c 0,18,19
 880.925 -662.186 880.925 -662.186 544.148 -633.454 c 0,20,21
 206.9 -604.689 206.9 -604.689 123.755 -350.012 c 0,22,23
 88.5323 -242.123 88.5323 -242.123 99.2021 -112.756 c 0,24,25
 112.93 65.5244 112.93 65.5244 262.28 262.582 c 1,26,-1
 382.28 172.582 l 1,27,28
 292.487 32.9141 292.487 32.9141 276.939 -66.9443 c 0,29,30
 250.312 -228.74 250.312 -228.74 307.148 -335.454 c 0,31,32
 373.603 -463.262 373.603 -463.262 604.148 -478.454 c 4,33,34
 867.914 -495.836 867.914 -495.836 1051.15 -421.454 c 4,35,36
 1172.42 -372.818 1172.42 -372.818 1237.15 -301.454 c 0,37,38
 1305.08 -227.184 1305.08 -227.184 1189.02 -221.08 c 0,39,40
 1059.96 -214.293 1059.96 -214.293 1001.02 -194.081 c 0,41,42
 886.604 -156.585 886.604 -156.585 884.02 -50.0811 c 0,43,44
 880.235 83.2576 880.235 83.2576 986.02 128.171 c 0,0,1
EndSplineSet
EndChar

StartChar: uniFEFB
Encoding: 65275 65275 291
Width: 1019
VWidth: 2181
GlyphClass: 3
Flags: W
AnchorPoint: "Anchor-9" 857.69 1493 baselig 0
AnchorPoint: "Anchor-6" 922.69 -68.5 baselig 0
AnchorPoint: "Anchor-6" 218.5 -117.908 baselig 1
AnchorPoint: "Anchor-9" 174.565 1412.84 baselig 1
LayerCount: 2
Fore
SplineSet
688.347 443.065 m 1,0,1
 492.597 219.066 492.597 219.066 205.097 158.881 c 1,2,3
 269.128 116.321 269.128 116.321 535.347 132.065 c 0,4,5
 721.329 143.016 721.329 143.016 755.347 189.065 c 0,6,7
 815.739 271.817 815.739 271.817 688.347 443.065 c 1,0,1
934.097 1028.88 m 2,8,9
 931.381 919.999 931.381 919.999 909.347 786.065 c 0,10,11
 888.953 664.066 888.953 664.066 779.347 528.065 c 1,12,13
 905.446 357.126 905.446 357.126 889.347 204.065 c 0,14,15
 880.428 117.345 880.428 117.345 829.347 67 c 0,16,17
 749.85 -10.0156 749.85 -10.0156 457.347 -7.93457 c 0,18,19
 257.881 -6.53223 257.881 -6.53223 175.564 16.0918 c 1,20,21
 97.6641 52.7393 97.6641 52.7393 65.3467 132.065 c 0,22,23
 43.3467 188.066 43.3467 188.066 61.5645 234.092 c 1,24,25
 355.413 320.066 355.413 320.066 591.347 536.065 c 1,26,-1
 79.3467 1159.07 l 1,27,-1
 166.935 1298.01 l 5,28,-1
 677.347 624.065 l 1,29,30
 762.783 729.428 762.783 729.428 781.097 878.622 c 0,31,32
 795.636 1001.79 795.636 1001.79 784.789 1323 c 1,33,-1
 943.129 1390.96 l 1,34,-1
 934.097 1028.88 l 2,8,9
EndSplineSet
LCarets2: 1 0 
Ligature2: "'rlig' Required Ligatures in Arabic lookup 16 subtable" uniFEDF uniFE8E
EndChar

StartChar: uniFEFC
Encoding: 65276 65276 292
Width: 1236
VWidth: 2181
GlyphClass: 3
Flags: W
AnchorPoint: "Anchor-9" 882.69 1489 baselig 0
AnchorPoint: "Anchor-6" 795.69 -116.5 baselig 0
AnchorPoint: "Anchor-6" 160 -170 baselig 1
AnchorPoint: "Anchor-9" 112.5 1439.5 baselig 1
LayerCount: 2
Fore
SplineSet
755.397 158.989 m 0,0,1
 611.867 0.5 611.867 0.5 333.99 0.5 c 0,2,3
 171.053 0.5 171.053 0.5 124.08 9.1084 c 1,4,-1
 124.08 177.976 l 1,5,6
 399.76 126.04 399.76 126.04 497.397 167 c 2,7,-1
 501.571 168.751 l 1,8,-1
 100.397 1230 l 5,9,-1
 235.354 1335.22 l 1,10,-1
 603.613 221.916 l 1,11,12
 724.768 296.533 724.768 296.533 785.397 487.989 c 1,13,14
 837.239 689.813 837.239 689.813 823.396 907.989 c 2,15,-1
 797.248 1320.11 l 1,16,-1
 954.13 1390.11 l 1,17,-1
 954.13 632.5 l 2,18,19
 954.13 460.25 954.13 460.25 991.728 349.948 c 0,20,21
 1053.28 169.38 1053.28 169.38 1193.59 169.38 c 2,22,-1
 1256.94 169.38 l 1,23,-1
 1256.94 0.5 l 1,24,-1
 1194.91 0.5 l 2,25,26
 926.398 0.5 926.398 0.5 857.397 347.989 c 1,27,28
 814.507 225.519 814.507 225.519 755.397 158.989 c 0,0,1
EndSplineSet
LCarets2: 1 0 
Ligature2: "'rlig' Required Ligatures in Arabic lookup 16 subtable" uniFEE0 uniFE8E
EndChar

StartChar: arabic_dot
Encoding: 65536 -1 293
Width: 150
GlyphClass: 2
Flags: W
LayerCount: 2
Fore
SplineSet
74.5 210.84 m 1,0,-1
 202.84 82.5 l 1,1,-1
 74.5 -45.8397 l 1,2,-1
 -53.8397 82.5 l 1,3,-1
 74.5 210.84 l 1,0,-1
EndSplineSet
EndChar

StartChar: arabic_2dots
Encoding: 65537 -1 294
Width: 452
GlyphClass: 2
Flags: W
LayerCount: 2
Fore
SplineSet
383.25 210.84 m 5,0,-1
 511.59 82.5 l 5,1,-1
 383.25 -45.8398 l 5,2,-1
 254.91 82.5 l 5,3,-1
 383.25 210.84 l 5,0,-1
68.75 210.84 m 1,4,-1
 197.09 82.5 l 1,5,-1
 68.75 -45.84 l 1,6,-1
 -59.59 82.5 l 1,7,-1
 68.75 210.84 l 1,4,-1
EndSplineSet
EndChar

StartChar: arabic_3dots
Encoding: 65538 -1 295
Width: 455
GlyphClass: 2
Flags: W
LayerCount: 2
Fore
SplineSet
239.812 424.368 m 5,0,-1
 354.341 309.841 l 5,1,-1
 226 181.5 l 5,2,-1
 97.6602 309.841 l 5,3,-1
 226 438.181 l 5,4,-1
 239.469 424.712 l 5,5,-1
 239.812 424.368 l 5,0,-1
386.25 197.09 m 1,6,-1
 514.59 68.75 l 1,7,-1
 386.25 -59.5898 l 1,8,-1
 257.91 68.75 l 1,9,-1
 386.25 197.09 l 1,6,-1
68.75 197.09 m 1,10,-1
 197.09 68.75 l 1,11,-1
 68.75 -59.59 l 1,12,-1
 -59.59 68.75 l 1,13,-1
 68.75 197.09 l 1,10,-1
EndSplineSet
EndChar

StartChar: arabic_3dots_a
Encoding: 65539 -1 296
Width: 454
GlyphClass: 2
Flags: W
LayerCount: 2
Fore
SplineSet
226 0 m 5,0,-1
 354.341 -128.341 l 5,1,-1
 226 -256.682 l 5,2,-1
 97.6602 -128.341 l 5,3,-1
 226 0 l 5,0,-1
385.25 222.004 m 1,4,-1
 513.59 93.665 l 1,5,-1
 385.25 -34.6758 l 1,6,-1
 256.91 93.665 l 1,7,-1
 385.25 222.004 l 1,4,-1
68.75 222.004 m 1,8,-1
 197.09 93.6651 l 1,9,-1
 68.75 -34.676 l 1,10,-1
 -59.59 93.6651 l 1,11,-1
 68.75 222.004 l 1,8,-1
EndSplineSet
EndChar

StartChar: uni066E.fina
Encoding: 65540 -1 297
Width: 2051
VWidth: 2181
GlyphClass: 2
Flags: W
AnchorPoint: "Anchor-10" 703 1060.5 basechar 0
AnchorPoint: "Anchor-7" 703 -179 basechar 0
LayerCount: 2
Fore
SplineSet
751.279 0 m 0,0,1
 521.411 0.441527 521.411 0.441527 425.779 31.3779 c 0,2,3
 125.526 128.509 125.526 128.509 96.376 450.233 c 0,4,5
 86.2451 558.573 86.2451 558.573 127.76 702.758 c 1,6,-1
 256.475 668.796 l 1,7,8
 230.52 526.926 230.52 526.926 233.538 475.238 c 0,9,10
 243.437 231.803 243.437 231.803 561.779 183.378 c 0,11,12
 638.162 171.572 638.162 171.572 805.097 171.017 c 24,13,14
 1261.8 169.881 1261.8 169.881 1421 245.379 c 0,15,16
 1610 335.379 1610 335.379 1635.31 537.795 c 1,17,-1
 1744.21 537.795 l 1,18,19
 1749.72 467.396 1749.72 467.396 1760.34 406.745 c 0,20,21
 1785.85 261.106 1785.85 261.106 1838.48 216.897 c 0,22,23
 1895.06 169.38 1895.06 169.38 2004.97 169.38 c 2,24,-1
 2071.17 169.38 l 5,25,-1
 2071.17 0.5 l 5,26,-1
 1960.03 0.5 l 2,27,28
 1738.57 0.5 1738.57 0.5 1652 209.879 c 1,29,30
 1601.98 147.945 1601.98 147.945 1471 88.8789 c 0,31,32
 1272.46 -0.461914 1272.46 -0.461914 751.279 0 c 0,0,1
EndSplineSet
EndChar

StartChar: uni06A1.fina
Encoding: 65543 -1 300
Width: 1884
VWidth: 2181
GlyphClass: 2
Flags: W
AnchorPoint: "Anchor-10" 537 1167.5 basechar 0
AnchorPoint: "Anchor-7" 644 -223.5 basechar 0
LayerCount: 2
Fore
SplineSet
747.279 0 m 16,0,1
 517.411 0.441406 517.411 0.441406 421.779 31.3779 c 0,2,3
 121.525 128.509 121.525 128.509 92.376 450.233 c 0,4,5
 82.2451 558.573 82.2451 558.573 123.76 702.758 c 1,6,-1
 252.475 668.796 l 1,7,8
 226.52 526.926 226.52 526.926 229.538 475.238 c 0,9,10
 243.882 229.619 243.882 229.619 557.779 183.378 c 0,11,12
 607.78 176.012 607.78 176.012 801.097 171.017 c 16,13,14
 922.69 167.875 922.69 167.875 1037.47 177.424 c 0,15,16
 1216.97 193.284 1216.97 193.284 1265.8 220.342 c 1,17,-1
 1258.03 225.844 l 2,18,19
 1201.95 265.558 1201.95 265.558 1168.21 309.081 c 0,20,21
 1045.65 467.182 1045.65 467.182 1114.72 638.05 c 1,22,23
 1171.93 764.984 1171.93 764.984 1304.44 810.349 c 0,24,25
 1453.31 861.729 1453.31 861.729 1589.33 788.052 c 0,26,27
 1721.59 715.62 1721.59 715.62 1748.86 570.086 c 0,28,29
 1784.27 379.967 1784.27 379.967 1614.31 253.417 c 2,30,-1
 1609.87 250.111 l 1,31,32
 1693 169.38 1693 169.38 1832.89 169.38 c 2,33,-1
 1904.6 169.38 l 5,34,-1
 1904.6 0.5 l 5,35,-1
 1825.22 0.5 l 2,36,37
 1622.24 0.5 1622.24 0.5 1449 149.542 c 1,38,39
 1309.58 63.0957 1309.58 63.0957 1209 29.542 c 0,40,41
 1117.5 -0.710911 1117.5 -0.710911 747.279 0 c 16,0,1
1240.06 504.84 m 128,-1,43
 1240.06 427.809 1240.06 427.809 1294.57 373.295 c 128,-1,44
 1349.09 318.782 1349.09 318.782 1426.12 318.782 c 128,-1,45
 1503.15 318.782 1503.15 318.782 1557.67 373.295 c 128,-1,46
 1612.18 427.805 1612.18 427.805 1612.18 504.84 c 128,-1,47
 1612.18 581.874 1612.18 581.874 1557.67 636.385 c 128,-1,48
 1503.15 690.896 1503.15 690.896 1426.12 690.896 c 128,-1,49
 1349.09 690.896 1349.09 690.896 1294.57 636.383 c 128,-1,42
 1240.06 581.868 1240.06 581.868 1240.06 504.84 c 128,-1,43
EndSplineSet
EndChar

StartChar: uni06A1.init
Encoding: 65544 -1 301
Width: 815
VWidth: 2181
GlyphClass: 2
Flags: W
AnchorPoint: "Anchor-10" 405.53 1224.5 basechar 0
AnchorPoint: "Anchor-7" 380.53 -170 basechar 0
LayerCount: 2
Fore
SplineSet
408.104 848.134 m 4,0,1
 288.973 844.726 288.973 844.726 248.527 683.604 c 4,2,3
 208.612 522.73 208.612 522.73 348.161 499.149 c 4,4,5
 489.314 474.681 489.314 474.681 584.419 548.192 c 5,6,7
 591.688 572.468 591.688 572.468 574.348 666.313 c 4,8,9
 539.564 851.95 539.564 851.95 408.104 848.134 c 4,0,1
723.285 608.521 m 28,10,11
 736.415 491.721 736.415 491.721 715.26 326 c 4,12,13
 693.227 145.243 693.227 145.243 559.26 60 c 4,14,15
 464.964 0 464.964 0 196.23 0 c 6,16,-1
 -20.4004 0 l 5,17,-1
 -20.4004 168.98 l 5,18,-1
 82 168.98 l 6,19,20
 403.14 168.98 403.14 168.98 444.915 184 c 4,21,22
 574.914 231.427 574.914 231.427 577.88 403.428 c 5,23,24
 524.25 352.99 524.25 352.99 381.082 350.37 c 4,25,26
 222.625 347.564 222.625 347.564 152.599 440.88 c 4,27,28
 90.1719 524.068 90.1719 524.068 104.957 650.971 c 4,29,30
 123.417 814.374 123.417 814.374 214.762 910.265 c 4,31,32
 327.192 1028.29 327.192 1028.29 473.026 997.613 c 4,33,34
 575.812 975.992 575.812 975.992 640.307 868.321 c 4,35,36
 705.519 759.206 705.519 759.206 723.285 608.521 c 28,10,11
EndSplineSet
EndChar

StartChar: uni06A1.medi
Encoding: 65545 -1 302
Width: 1108
VWidth: 2181
GlyphClass: 2
Flags: W
AnchorPoint: "Anchor-10" 554.26 1007 basechar 0
AnchorPoint: "Anchor-7" 554.26 -170 basechar 0
LayerCount: 2
Fore
SplineSet
365.427 488.602 m 128,-1,1
 365.427 412.165 365.427 412.165 420.822 358.013 c 128,-1,2
 476.395 303.689 476.395 303.689 555.033 303.689 c 128,-1,3
 633.669 303.689 633.669 303.689 689.241 358.013 c 128,-1,4
 744.636 412.163 744.636 412.163 744.636 488.602 c 128,-1,5
 744.636 565.032 744.636 565.032 689.241 619.185 c 128,-1,6
 633.668 673.509 633.668 673.509 555.033 673.509 c 128,-1,7
 476.397 673.509 476.397 673.509 420.822 619.185 c 128,-1,0
 365.427 565.038 365.427 565.038 365.427 488.602 c 128,-1,1
726.467 784.729 m 4,8,9
 869.277 703.694 869.277 703.694 892.132 581.492 c 0,10,11
 912.926 469.262 912.926 469.262 879.273 372.179 c 0,12,13
 844.143 270.833 844.143 270.833 716.043 186.906 c 1,14,15
 764.127 168.327 764.127 168.327 994.046 168.98 c 2,16,-1
 1128.92 169.363 l 1,17,-1
 1128.92 0.490234 l 1,18,-1
 857.721 -0 l 2,19,20
 709.703 -0.267554 709.703 -0.267554 557.111 105.742 c 2,21,-1
 554.343 107.665 l 1,22,-1
 551.521 105.818 l 2,23,24
 389.842 0 389.842 0 251.79 0 c 2,25,-1
 -20.4004 0 l 1,26,-1
 -20.4004 168.98 l 1,27,-1
 114.49 168.98 l 2,28,29
 302.977 168.979 302.977 168.979 379.784 198.648 c 1,30,31
 278.861 265.011 278.861 265.011 234.285 367.918 c 0,32,33
 191.226 467.324 191.226 467.324 224.74 581.014 c 1,34,35
 265.403 732.346 265.403 732.346 409.881 791.366 c 0,36,37
 475.109 818.013 475.109 818.013 558.492 818.013 c 0,38,39
 667.418 818.013 667.418 818.013 726.467 784.729 c 4,8,9
EndSplineSet
EndChar

StartChar: uni066F.fina
Encoding: 65546 -1 303
Width: 1528
VWidth: 2181
GlyphClass: 2
Flags: W
AnchorPoint: "Anchor-10" 387 900 basechar 0
AnchorPoint: "Anchor-7" 470.645 -718.82 basechar 0
LayerCount: 2
Fore
SplineSet
1098.84 521.636 m 4,0,1
 971.104 518.718 971.104 518.718 922.978 361.104 c 4,2,3
 864.527 173.248 864.527 173.248 1071.78 157.264 c 4,4,5
 1125.67 153.107 1125.67 153.107 1269.29 160.203 c 5,6,7
 1270.3 272.516 1270.3 272.516 1253.56 354.008 c 4,8,9
 1218.49 524.711 1218.49 524.711 1098.84 521.636 c 4,0,1
1414.51 169.473 m 5,10,11
 1453.03 169.427 1453.03 169.427 1491.55 169.38 c 5,12,-1
 1547.96 169.38 l 5,13,-1
 1547.96 0.5 l 5,14,-1
 1411.08 0.5 l 5,15,-1
 1410.79 -4.19336 l 6,16,17
 1394.72 -264.407 1394.72 -264.407 1219.78 -428 c 4,18,19
 1059.88 -577.536 1059.88 -577.536 771.945 -582.95 c 4,20,21
 402.18 -589.902 402.18 -589.902 244.4 -432.975 c 4,22,23
 88.5635 -277.238 88.5635 -277.238 91.9443 -13.6328 c 4,24,25
 94.7471 192.308 94.7471 192.308 187.971 383.994 c 5,26,-1
 341.53 345.976 l 5,27,28
 255.982 121.761 255.982 121.761 256.876 -15.1211 c 4,29,30
 259.812 -443.765 259.812 -443.765 760.572 -431.059 c 4,31,32
 1040.36 -424.426 1040.36 -424.426 1157.42 -275.471 c 4,33,34
 1259.29 -145.842 1259.29 -145.842 1261.07 1.44336 c 5,35,36
 1248.3 1.41602 1248.3 1.41602 1084.83 1.23926 c 4,37,38
 907.276 1.01367 907.276 1.01367 832.993 86.7031 c 4,39,40
 755.484 177.125 755.484 177.125 770.613 301.323 c 4,41,42
 791.65 479.226 791.65 479.226 901.265 585.436 c 4,43,44
 999.725 680.838 999.725 680.838 1114.14 673.823 c 4,45,46
 1273.27 664.354 1273.27 664.354 1340.98 522.567 c 4,47,48
 1394.04 411.605 1394.04 411.605 1407.01 256.368 c 4,49,50
 1413.23 176.43 1413.23 176.43 1414.51 169.473 c 5,10,11
EndSplineSet
EndChar

StartChar: arabic_ring
Encoding: 65549 -1 306
Width: 438
GlyphClass: 2
Flags: W
LayerCount: 2
Fore
SplineSet
316 220 m 0,0,1
 316 260 316 260 288 288 c 0,2,3
 260 317 260 317 219 317 c 128,-1,4
 178 317 178 317 150 289 c 128,-1,5
 122 261 122 261 122 220 c 0,6,7
 122 178 122 178 150 150 c 0,8,9
 178 123 178 123 219 123 c 128,-1,10
 260 123 260 123 288 151 c 128,-1,11
 316 179 316 179 316 220 c 0,0,1
438 220 m 128,-1,13
 438 128 438 128 375 64 c 0,14,15
 311 0 311 0 219 0 c 128,-1,16
 127 0 127 0 64 64 c 0,17,18
 0 128 0 128 0 220 c 128,-1,19
 0 312 0 312 64 376 c 0,20,21
 127 439 127 439 219 439 c 128,-1,22
 311 439 311 439 375 376 c 1,23,12
 438 312 438 312 438 220 c 128,-1,13
EndSplineSet
EndChar

StartChar: arabic_gaf_bar
Encoding: 65550 -1 307
Width: 674
GlyphClass: 2
Flags: W
LayerCount: 2
Fore
SplineSet
666 1673 m 1,0,-1
 0 1333 l 1,1,-1
 0 1442 l 1,2,-1
 666 1782 l 1,3,-1
 666 1673 l 1,0,-1
EndSplineSet
EndChar

StartChar: uni066E.init.math
Encoding: 65560 -1 317
Width: 877
VWidth: 2181
GlyphClass: 2
Flags: W
LayerCount: 2
Fore
SplineSet
573.584 94.0195 m 0,0,1
 501.396 8.5 501.396 8.5 342.4 8.5 c 2,2,-1
 -3.40039 8.5 l 1,3,-1
 -3.40039 169.38 l 1,4,-1
 283.55 169.38 l 2,5,6
 396.937 169.38 396.937 169.38 449.287 221.732 c 0,7,8
 506.99 279.434 506.99 279.434 506.99 400.31 c 2,9,-1
 506.99 614.5 l 1,10,-1
 667.87 614.5 l 1,11,-1
 667.87 400.31 l 2,12,13
 667.87 207.324 667.87 207.324 573.584 94.0195 c 0,0,1
EndSplineSet
EndChar

StartChar: guillemotleft
Encoding: 171 171 318
Width: 1180
VWidth: 0
Flags: W
LayerCount: 2
Fore
SplineSet
997.34 995.46 m 1,0,-1
 997.34 815.92 l 1,1,-1
 714.4 564 l 1,2,-1
 997.34 312.08 l 1,3,-1
 997.34 132.54 l 1,4,-1
 556.48 525.46 l 1,5,-1
 556.48 602.54 l 1,6,-1
 997.34 995.46 l 1,0,-1
589.38 995.46 m 1,7,-1
 589.38 815.92 l 1,8,-1
 306.44 564 l 1,9,-1
 589.38 312.08 l 1,10,-1
 589.38 132.54 l 1,11,-1
 148.52 525.46 l 1,12,-1
 148.52 602.54 l 1,13,-1
 589.38 995.46 l 1,7,-1
EndSplineSet
EndChar

StartChar: guillemotright
Encoding: 187 187 319
Width: 1094
VWidth: 0
Flags: W
LayerCount: 2
Fore
SplineSet
181.42 995.46 m 1,0,-1
 622.28 602.54 l 1,1,-1
 622.28 525.46 l 1,2,-1
 181.42 132.54 l 1,3,-1
 181.42 312.08 l 1,4,-1
 464.36 564 l 1,5,-1
 181.42 815.92 l 1,6,-1
 181.42 995.46 l 1,0,-1
589.38 995.46 m 1,7,-1
 1030.24 602.54 l 1,8,-1
 1030.24 525.46 l 1,9,-1
 589.38 132.54 l 1,10,-1
 589.38 312.08 l 1,11,-1
 872.32 564 l 1,12,-1
 589.38 815.92 l 1,13,-1
 589.38 995.46 l 1,7,-1
EndSplineSet
EndChar

StartChar: zero
Encoding: 48 48 320
Width: 1223
Flags: W
LayerCount: 2
Fore
SplineSet
611.94 1278.4 m 0,0,1
 465.3 1278.4 465.3 1278.4 391.51 1134.11 c 128,-1,2
 317.72 989.82 317.72 989.82 317.72 700.3 c 0,3,4
 317.72 411.72 317.72 411.72 391.51 267.43 c 128,-1,5
 465.3 123.14 465.3 123.14 611.94 123.14 c 0,6,7
 759.52 123.14 759.52 123.14 833.31 267.43 c 128,-1,8
 907.1 411.72 907.1 411.72 907.1 700.3 c 0,9,10
 907.1 989.82 907.1 989.82 833.31 1134.11 c 128,-1,11
 759.52 1278.4 759.52 1278.4 611.94 1278.4 c 0,0,1
611.94 1428.8 m 128,-1,13
 847.88 1428.8 847.88 1428.8 972.43 1242.21 c 128,-1,14
 1096.98 1055.62 1096.98 1055.62 1096.98 700.3 c 0,15,16
 1096.98 345.92 1096.98 345.92 972.43 159.33 c 128,-1,17
 847.88 -27.2598 847.88 -27.2598 611.94 -27.2598 c 132,-1,18
 376 -27.2598 376 -27.2598 251.45 159.33 c 128,-1,19
 126.9 345.92 126.9 345.92 126.9 700.3 c 0,20,21
 126.9 1055.62 126.9 1055.62 251.45 1242.21 c 128,-1,12
 376 1428.8 376 1428.8 611.94 1428.8 c 128,-1,13
EndSplineSet
EndChar

StartChar: one
Encoding: 49 49 321
Width: 1223
Flags: W
LayerCount: 2
Fore
SplineSet
238.76 159.8 m 1,0,-1
 548.96 159.8 l 1,1,-1
 548.96 1230.46 l 1,2,-1
 211.5 1162.78 l 1,3,-1
 211.5 1335.74 l 1,4,-1
 547.08 1403.42 l 1,5,-1
 736.96 1403.42 l 1,6,-1
 736.96 159.8 l 1,7,-1
 1047.16 159.8 l 1,8,-1
 1047.16 0 l 5,9,-1
 238.76 0 l 1,10,-1
 238.76 159.8 l 1,0,-1
EndSplineSet
EndChar

StartChar: two
Encoding: 50 50 322
Width: 1223
Flags: W
LayerCount: 2
Fore
SplineSet
369.42 159.8 m 1,0,-1
 1032.12 159.8 l 1,1,-1
 1032.12 0 l 1,2,-1
 141 0 l 1,3,-1
 141 159.8 l 1,4,5
 249.1 271.66 249.1 271.66 435.69 460.13 c 128,-1,6
 622.28 648.6 622.28 648.6 670.22 703.12 c 0,7,8
 761.4 805.58 761.4 805.58 797.59 876.55 c 128,-1,9
 833.78 947.52 833.78 947.52 833.78 1016.14 c 0,10,11
 833.78 1128 833.78 1128 755.29 1198.5 c 128,-1,12
 676.8 1269 676.8 1269 550.84 1269 c 0,13,14
 461.54 1269 461.54 1269 362.37 1237.98 c 128,-1,15
 263.2 1206.96 263.2 1206.96 150.4 1143.98 c 1,16,-1
 150.4 1335.74 l 1,17,18
 265.08 1381.8 265.08 1381.8 364.72 1405.3 c 128,-1,19
 464.36 1428.8 464.36 1428.8 547.08 1428.8 c 4,20,21
 765.16 1428.8 765.16 1428.8 894.88 1319.76 c 128,-1,22
 1024.6 1210.72 1024.6 1210.72 1024.6 1028.36 c 0,23,24
 1024.6 941.88 1024.6 941.88 992.17 864.33 c 128,-1,25
 959.74 786.78 959.74 786.78 874.2 681.5 c 1,26,27
 850.7 654.24 850.7 654.24 724.74 524.05 c 128,-1,28
 598.78 393.86 598.78 393.86 369.42 159.8 c 1,0,-1
EndSplineSet
EndChar

StartChar: three
Encoding: 51 51 323
Width: 1223
Flags: W
LayerCount: 2
Fore
SplineSet
781.14 756.7 m 1,0,1
 917.44 727.56 917.44 727.56 994.05 635.44 c 128,-1,2
 1070.66 543.32 1070.66 543.32 1070.66 407.96 c 0,3,4
 1070.66 200.22 1070.66 200.22 927.78 86.4805 c 128,-1,5
 784.9 -27.2598 784.9 -27.2598 521.7 -27.2598 c 0,6,7
 433.34 -27.2598 433.34 -27.2598 339.81 -9.87012 c 128,-1,8
 246.28 7.51953 246.28 7.51953 146.64 42.2998 c 1,9,-1
 146.64 225.6 l 1,10,11
 225.6 179.54 225.6 179.54 319.6 156.04 c 128,-1,12
 413.6 132.54 413.6 132.54 516.06 132.54 c 0,13,14
 694.66 132.54 694.66 132.54 788.19 203.04 c 128,-1,15
 881.72 273.54 881.72 273.54 881.72 407.96 c 0,16,17
 881.72 532.04 881.72 532.04 794.77 602.07 c 128,-1,18
 707.82 672.1 707.82 672.1 552.72 672.1 c 2,19,-1
 389.16 672.1 l 1,20,-1
 389.16 828.14 l 1,21,-1
 560.24 828.14 l 2,22,23
 700.3 828.14 700.3 828.14 774.56 884.07 c 128,-1,24
 848.82 940 848.82 940 848.82 1045.28 c 0,25,26
 848.82 1153.38 848.82 1153.38 772.21 1211.19 c 128,-1,27
 695.6 1269 695.6 1269 552.72 1269 c 0,28,29
 474.7 1269 474.7 1269 385.4 1252.08 c 128,-1,30
 296.1 1235.16 296.1 1235.16 188.94 1199.44 c 1,31,-1
 188.94 1368.64 l 1,32,33
 297.04 1398.72 297.04 1398.72 391.51 1413.76 c 128,-1,34
 485.98 1428.8 485.98 1428.8 569.64 1428.8 c 4,35,36
 785.84 1428.8 785.84 1428.8 911.8 1330.57 c 128,-1,37
 1037.76 1232.34 1037.76 1232.34 1037.76 1065.02 c 0,38,39
 1037.76 948.46 1037.76 948.46 971.02 868.09 c 128,-1,40
 904.28 787.72 904.28 787.72 781.14 756.7 c 1,0,1
EndSplineSet
EndChar

StartChar: four
Encoding: 52 52 324
Width: 1223
Flags: W
LayerCount: 2
Fore
SplineSet
727.56 1237.98 m 1,0,-1
 248.16 488.8 l 1,1,-1
 727.56 488.8 l 1,2,-1
 727.56 1237.98 l 1,0,-1
677.74 1403.42 m 1,3,-1
 916.5 1403.42 l 1,4,-1
 916.5 488.8 l 1,5,-1
 1116.72 488.8 l 1,6,-1
 1116.72 330.88 l 1,7,-1
 916.5 330.88 l 1,8,-1
 916.5 0 l 1,9,-1
 727.56 0 l 1,10,-1
 727.56 330.88 l 1,11,-1
 94 330.88 l 1,12,-1
 94 514.18 l 1,13,-1
 677.74 1403.42 l 1,3,-1
EndSplineSet
EndChar

StartChar: five
Encoding: 53 53 325
Width: 1223
Flags: W
LayerCount: 2
Fore
SplineSet
207.74 1403.42 m 5,0,-1
 953.16 1403.42 l 5,1,-1
 953.16 1243.62 l 5,2,-1
 381.64 1243.62 l 5,3,-1
 381.64 899.58 l 5,4,5
 423 913.68 423 913.68 464.36 920.73 c 132,-1,6
 505.72 927.78 505.72 927.78 547.08 927.78 c 4,7,8
 782.08 927.78 782.08 927.78 919.32 799 c 132,-1,9
 1056.56 670.22 1056.56 670.22 1056.56 450.26 c 4,10,11
 1056.56 223.72 1056.56 223.72 915.56 98.2305 c 132,-1,12
 774.56 -27.2598 774.56 -27.2598 517.94 -27.2598 c 4,13,14
 429.58 -27.2598 429.58 -27.2598 337.93 -12.2197 c 132,-1,15
 246.28 2.82031 246.28 2.82031 148.52 32.9004 c 5,16,-1
 148.52 223.72 l 5,17,18
 233.12 177.66 233.12 177.66 323.36 155.1 c 132,-1,19
 413.6 132.54 413.6 132.54 514.18 132.54 c 4,20,21
 676.8 132.54 676.8 132.54 771.74 218.08 c 132,-1,22
 866.68 303.62 866.68 303.62 866.68 450.26 c 132,-1,23
 866.68 596.9 866.68 596.9 771.74 682.44 c 132,-1,24
 676.8 767.98 676.8 767.98 514.18 767.98 c 4,25,26
 438.04 767.98 438.04 767.98 362.37 751.06 c 132,-1,27
 286.7 734.14 286.7 734.14 207.74 698.42 c 5,28,-1
 207.74 1403.42 l 5,0,-1
EndSplineSet
EndChar

StartChar: six
Encoding: 54 54 326
Width: 1223
Flags: W
LayerCount: 2
Fore
SplineSet
628.44 777.38 m 132,-1,1
 500.6 777.38 500.6 777.38 425.87 689.96 c 132,-1,2
 351.14 602.54 351.14 602.54 351.14 450.26 c 4,3,4
 351.14 298.92 351.14 298.92 425.87 211.03 c 132,-1,5
 500.6 123.14 500.6 123.14 628.44 123.14 c 132,-1,6
 756.28 123.14 756.28 123.14 831.01 211.03 c 132,-1,7
 905.74 298.92 905.74 298.92 905.74 450.26 c 4,8,9
 905.74 602.54 905.74 602.54 831.01 689.96 c 132,-1,0
 756.28 777.38 756.28 777.38 628.44 777.38 c 132,-1,1
1005.38 1372.4 m 5,10,-1
 1005.38 1199.44 l 5,11,12
 933.94 1233.28 933.94 1233.28 861.09 1251.14 c 132,-1,13
 788.24 1269 788.24 1269 716.8 1269 c 4,14,15
 528.8 1269 528.8 1269 429.63 1142.1 c 132,-1,16
 330.46 1015.2 330.46 1015.2 316.36 758.58 c 5,17,18
 371.82 840.36 371.82 840.36 455.48 884.07 c 132,-1,19
 539.14 927.78 539.14 927.78 639.72 927.78 c 4,20,21
 851.22 927.78 851.22 927.78 973.89 799.47 c 132,-1,22
 1096.56 671.16 1096.56 671.16 1096.56 450.26 c 4,23,24
 1096.56 234.06 1096.56 234.06 968.72 103.4 c 132,-1,25
 840.88 -27.2598 840.88 -27.2598 628.44 -27.2598 c 4,26,27
 384.98 -27.2598 384.98 -27.2598 256.2 159.33 c 132,-1,28
 127.42 345.92 127.42 345.92 127.42 700.3 c 4,29,30
 127.42 1033.06 127.42 1033.06 285.34 1230.93 c 132,-1,31
 443.26 1428.8 443.26 1428.8 709.28 1428.8 c 4,32,33
 780.72 1428.8 780.72 1428.8 853.57 1414.7 c 132,-1,34
 926.42 1400.6 926.42 1400.6 1005.38 1372.4 c 5,10,-1
EndSplineSet
EndChar

StartChar: seven
Encoding: 55 55 327
Width: 1223
Flags: W
LayerCount: 2
Fore
SplineSet
157.92 1403.42 m 1,0,-1
 1060.32 1403.42 l 5,1,-1
 1060.32 1322.58 l 1,2,-1
 550.84 0 l 1,3,-1
 352.5 0 l 1,4,-1
 831.9 1243.62 l 1,5,-1
 157.92 1243.62 l 1,6,-1
 157.92 1403.42 l 1,0,-1
EndSplineSet
EndChar

StartChar: eight
Encoding: 56 56 328
Width: 1223
Flags: W
LayerCount: 2
Fore
SplineSet
611.94 666.46 m 0,0,1
 476.58 666.46 476.58 666.46 399.03 594.08 c 128,-1,2
 321.48 521.7 321.48 521.7 321.48 394.8 c 128,-1,3
 321.48 267.9 321.48 267.9 399.03 195.52 c 128,-1,4
 476.58 123.14 476.58 123.14 611.94 123.14 c 128,-1,5
 747.3 123.14 747.3 123.14 825.32 195.99 c 128,-1,6
 903.34 268.84 903.34 268.84 903.34 394.8 c 0,7,8
 903.34 521.7 903.34 521.7 825.79 594.08 c 128,-1,9
 748.24 666.46 748.24 666.46 611.94 666.46 c 0,0,1
422.06 747.3 m 1,10,11
 299.86 777.38 299.86 777.38 231.71 861.04 c 128,-1,12
 163.56 944.7 163.56 944.7 163.56 1065.02 c 0,13,14
 163.56 1233.28 163.56 1233.28 283.41 1331.04 c 128,-1,15
 403.26 1428.8 403.26 1428.8 611.94 1428.8 c 4,16,17
 821.56 1428.8 821.56 1428.8 940.94 1331.04 c 128,-1,18
 1060.32 1233.28 1060.32 1233.28 1060.32 1065.02 c 0,19,20
 1060.32 944.7 1060.32 944.7 992.17 861.04 c 128,-1,21
 924.02 777.38 924.02 777.38 802.76 747.3 c 1,22,23
 940 715.34 940 715.34 1016.61 622.28 c 128,-1,24
 1093.22 529.22 1093.22 529.22 1093.22 394.8 c 0,25,26
 1093.22 190.82 1093.22 190.82 968.67 81.7803 c 128,-1,27
 844.12 -27.2598 844.12 -27.2598 611.94 -27.2598 c 128,-1,28
 379.76 -27.2598 379.76 -27.2598 255.21 81.7803 c 128,-1,29
 130.66 190.82 130.66 190.82 130.66 394.8 c 0,30,31
 130.66 529.22 130.66 529.22 207.74 622.28 c 128,-1,32
 284.82 715.34 284.82 715.34 422.06 747.3 c 1,10,11
352.5 1047.16 m 128,-1,34
 352.5 938.12 352.5 938.12 420.65 877.02 c 128,-1,35
 488.8 815.92 488.8 815.92 611.94 815.92 c 0,36,37
 734.14 815.92 734.14 815.92 803.23 877.02 c 128,-1,38
 872.32 938.12 872.32 938.12 872.32 1047.16 c 128,-1,39
 872.32 1156.2 872.32 1156.2 803.23 1217.3 c 128,-1,40
 734.14 1278.4 734.14 1278.4 611.94 1278.4 c 0,41,42
 488.8 1278.4 488.8 1278.4 420.65 1217.3 c 128,-1,33
 352.5 1156.2 352.5 1156.2 352.5 1047.16 c 128,-1,34
EndSplineSet
EndChar

StartChar: nine
Encoding: 57 57 329
Width: 1223
VWidth: 1925
Flags: W
LayerCount: 2
Fore
SplineSet
217.5 28.3398 m 5,0,-1
 217.5 201.3 l 5,1,2
 288.94 167.46 288.94 167.46 362.26 149.6 c 132,-1,3
 435.58 131.74 435.58 131.74 506.08 131.74 c 4,4,5
 694.08 131.74 694.08 131.74 793.25 258.17 c 132,-1,6
 892.42 384.6 892.42 384.6 906.52 642.16 c 5,7,8
 852 561.32 852 561.32 768.34 518.08 c 132,-1,9
 684.68 474.84 684.68 474.84 583.16 474.84 c 4,10,11
 372.6 474.84 372.6 474.84 249.93 602.21 c 132,-1,12
 127.26 729.58 127.26 729.58 127.26 950.48 c 4,13,14
 127.26 1166.68 127.26 1166.68 255.1 1297.34 c 132,-1,15
 382.94 1428 382.94 1428 595.38 1428 c 4,16,17
 838.84 1428 838.84 1428 967.15 1241.41 c 132,-1,18
 1095.46 1054.82 1095.46 1054.82 1095.46 699.5 c 4,19,20
 1095.46 367.68 1095.46 367.68 938.01 169.81 c 132,-1,21
 780.56 -28.0596 780.56 -28.0596 514.54 -28.0596 c 4,22,23
 443.1 -28.0596 443.1 -28.0596 369.78 -13.96 c 132,-1,24
 296.46 0.139648 296.46 0.139648 217.5 28.3398 c 5,0,-1
595.38 623.36 m 132,-1,26
 723.22 623.36 723.22 623.36 797.95 710.78 c 132,-1,27
 872.68 798.2 872.68 798.2 872.68 950.48 c 4,28,29
 872.68 1101.82 872.68 1101.82 797.95 1189.71 c 132,-1,30
 723.22 1277.6 723.22 1277.6 595.38 1277.6 c 132,-1,31
 467.54 1277.6 467.54 1277.6 392.81 1189.71 c 132,-1,32
 318.08 1101.82 318.08 1101.82 318.08 950.48 c 4,33,34
 318.08 798.2 318.08 798.2 392.81 710.78 c 132,-1,25
 467.54 623.36 467.54 623.36 595.38 623.36 c 132,-1,26
EndSplineSet
EndChar

